<svg id="Group_14" data-name="Group 14" xmlns="http://www.w3.org/2000/svg" xmlns:xlink="http://www.w3.org/1999/xlink" width="535.379" height="372.283" viewBox="0 0 535.379 372.283">
  <defs>
    <clipPath id="clip-path">
      <rect id="Rectangle_6" data-name="Rectangle 6" width="535.379" height="372.283" fill="none"/>
    </clipPath>
  </defs>
  <g id="Group_13" data-name="Group 13" clip-path="url(#clip-path)">
    <path id="Path_52" data-name="Path 52" d="M139.8,0A77.66,77.66,0,0,0,64.974,57.367L0,299.911H160.637L240.981,0Zm12.818,289.49H13.547L75.082,60.076A67.078,67.078,0,0,1,139.8,10.421h87.639Z" fill="#008999"/>
    <path id="Path_53" data-name="Path 53" d="M81.207,13.89,42.494,158.635h-.052L39.68,169.056H200.265l2.761-10.421h.052l17.976-67.162,18.028-67.162,2.762-10.421ZM192.24,158.635H53.227l36-134.324H228.3Z" transform="translate(167.069 58.482)" fill="#008999"/>
    <path id="Path_54" data-name="Path 54" d="M73.809,41.67,71.048,52.091,32.23,196.836H133.468a77.66,77.66,0,0,0,74.821-57.367l23.343-87.378,2.762-10.421Zm124.372,95.09a67.078,67.078,0,0,1-64.713,49.655H45.777L81.833,52.091H220.846Z" transform="translate(135.701 175.447)" fill="#008999"/>
    <path id="Path_55" data-name="Path 55" d="M231.2,44.215A76.845,76.845,0,0,0,169.772,13.89H110.009l-2.762,10.421H107.2L71.244,158.635h-.052L68.43,169.056H229.067l15.527-57.679A76.845,76.845,0,0,0,231.2,44.215m3.283,64.453-13.443,49.968H81.977l18.028-67.162,18.028-67.162h51.739a67.056,67.056,0,0,1,64.713,84.356" transform="translate(288.118 58.482)" fill="#008999"/>
  </g>
</svg>
