<svg id="Group_46" data-name="Group 46" xmlns="http://www.w3.org/2000/svg" xmlns:xlink="http://www.w3.org/1999/xlink" width="86.672" height="42.662" viewBox="0 0 86.672 42.662">
  <defs>
    <clipPath id="clip-path">
      <path id="Path_1420" data-name="Path 1420" d="M0,7.61H86.672V-35.052H0Z" transform="translate(0 35.052)" fill="none"/>
    </clipPath>
  </defs>
  <g id="Group_43" data-name="Group 43" transform="translate(21.698 14.111)">
    <path id="Path_1418" data-name="Path 1418" d="M2.638,0V13.963H-1.214V6.131L-3.787,9.9H-5.8L-8.632,6.131v7.832h-3.521V0H-8.6l4.063,5.475L-.9,0ZM3.752,3.162V0H16.9V3.162H12.3v10.8H8.371V3.162ZM31.394,0V13.963H28.159L21.538,5.982v7.981H18.017V0h3.506l6.335,7.7V0Z" transform="translate(12.153)"/>
  </g>
  <g id="Group_45" data-name="Group 45" clip-path="url(#clip-path)">
    <g id="Group_44" data-name="Group 44" transform="translate(0 0)">
      <path id="Path_1419" data-name="Path 1419" d="M7.73,7.61c-11.376,0-22.1-2.1-30.2-5.937C-30.941-2.34-35.606-7.8-35.606-13.721S-30.941-25.1-22.47-29.115c8.1-3.834,18.824-5.937,30.2-5.937s22.1,2.1,30.2,5.937C46.4-25.1,51.066-19.642,51.066-13.721S46.4-2.34,37.93,1.673C29.834,5.507,19.106,7.61,7.73,7.61m0-39.515c-10.925,0-21.157,2-28.831,5.639-7.3,3.46-11.33,7.921-11.33,12.559s4.018,9.1,11.33,12.546C-13.427,2.479-3.179,4.477,7.73,4.477s21.157-2,28.831-5.638c7.3-3.447,11.33-7.921,11.33-12.546s-4.018-9.1-11.33-12.545C28.887-29.906,18.655-31.9,7.73-31.9" transform="translate(35.606 35.052)"/>
    </g>
  </g>
</svg>
