<svg id="Group_68133" data-name="Group 68133" xmlns="http://www.w3.org/2000/svg" xmlns:xlink="http://www.w3.org/1999/xlink" width="43.135" height="75.107" viewBox="0 0 43.135 75.107">
  <defs>
    <clipPath id="clip-path">
      <rect id="Rectangle_2082" data-name="Rectangle 2082" width="43.135" height="75.107" fill="#fff"/>
    </clipPath>
  </defs>
  <g id="Group_68132" data-name="Group 68132" clip-path="url(#clip-path)">
    <path id="Path_2361" data-name="Path 2361" d="M43.135,29.678q0,12.447,0,24.893a4.305,4.305,0,0,1-4.665,4.694q-16.9,0-33.806,0C1.744,59.264,0,57.506,0,54.568Q0,29.637,0,4.705C0,1.767,1.748,0,4.666,0q16.9,0,33.806,0c2.915,0,4.662,1.768,4.662,4.705q0,12.485,0,24.97M21.57,16.944q7.183,0,14.365,0c1.262,0,1.575-.321,1.577-1.6q.006-4.071,0-8.143c0-1.209-.355-1.572-1.543-1.572q-14.4,0-28.808,0c-1.184,0-1.535.364-1.537,1.577q-.007,4.033,0,8.066c0,1.383.288,1.674,1.658,1.674q7.145,0,14.289,0M9.05,29.661c.793,0,1.586.009,2.379,0,.878-.013,1.174-.286,1.184-1.132.016-1.3,0-2.609.007-3.913.007-.7-.314-1.047-1.014-1.047q-2.494,0-4.987,0a.871.871,0,0,0-1,.983c.006,1.355,0,2.711,0,4.066a.93.93,0,0,0,1.046,1.04c.793,0,1.586,0,2.378,0m12.5-6.092v0c-.818,0-1.637,0-2.455,0a.9.9,0,0,0-1.031,1.03c.012,1.33-.01,2.66.009,3.99.011.765.313,1.061,1.087,1.069q2.417.023,4.834,0c.755-.008,1.052-.32,1.061-1.1.016-1.33,0-2.66.006-3.99a.872.872,0,0,0-.98-1c-.844,0-1.688,0-2.532,0m12.455,6.09c.818,0,1.637,0,2.455,0a.931.931,0,0,0,1.047-1.04c0-1.355,0-2.711,0-4.066,0-.622-.291-.973-.92-.976q-2.57-.014-5.14,0a.843.843,0,0,0-.933.963c0,1.355-.014,2.711.006,4.066.011.751.324,1.037,1.1,1.053s1.586,0,2.379,0M9.092,35.569v0c-.793,0-1.586-.013-2.378,0-.817.016-1.078.261-1.088,1.046-.016,1.33,0,2.659-.007,3.989A.918.918,0,0,0,6.653,41.65q2.455.01,4.909,0c.674,0,1.057-.312,1.054-1.023q-.005-2.033,0-4.066a.879.879,0,0,0-.992-.992c-.844,0-1.688,0-2.532,0m.052,12c-.818,0-1.636-.012-2.453,0-.8.015-1.056.271-1.065,1.066q-.022,1.955,0,3.91c.008.784.285,1.081,1.055,1.089,1.635.018,3.271.009,4.907,0a.916.916,0,0,0,1.032-1.043c-.007-1.329.01-2.658-.007-3.987-.01-.781-.277-1.026-1.091-1.04-.792-.014-1.584,0-2.377,0m12.453,0c-.818,0-1.636-.012-2.453,0-.8.015-1.06.269-1.069,1.062q-.022,1.955,0,3.91c.008.788.281,1.085,1.049,1.093,1.635.018,3.271.009,4.907,0A.916.916,0,0,0,25.067,52.6c-.006-1.329.01-2.658-.006-3.987-.01-.786-.273-1.03-1.088-1.044-.792-.014-1.584,0-2.376,0m12.416,0c-.818,0-1.636.005-2.453,0a.9.9,0,0,0-1.041,1.022c0,1.329.008,2.658,0,3.987-.005.694.32,1.059,1.011,1.063q2.491.012,4.983,0a.889.889,0,0,0,1-.991q0-2.032,0-4.063c0-.7-.356-1.023-1.047-1.016-.818.007-1.636,0-2.453,0m-12.407-12c-.818,0-1.636-.013-2.453,0s-1.068.267-1.077,1.056q-.023,1.955,0,3.911c.008.824.281,1.1,1.113,1.112q2.377.023,4.754,0c.82-.008,1.11-.3,1.12-1.113q.024-1.955,0-3.911c-.009-.788-.271-1.038-1.078-1.055-.792-.017-1.585,0-2.377,0m12.432,0c-.818,0-1.636-.014-2.454,0-.8.017-1.052.274-1.061,1.072q-.021,1.955,0,3.911c.008.811.291,1.088,1.129,1.1q2.377.021,4.754,0c.81-.008,1.095-.3,1.1-1.129.015-1.3,0-2.607.006-3.911a.9.9,0,0,0-1.024-1.041q-1.227,0-2.454,0" transform="translate(0)" fill="#fff"/>
    <path id="Path_2362" data-name="Path 2362" d="M43.9,291.978c2.612,0,5.224.021,7.836-.013.744-.01,1.034.185,1.027.988q-.053,6.606,0,13.213c0,.74-.227.965-.963.961-4.43-.028-8.86-.007-13.29-.018a3.191,3.191,0,0,1-3.4-3.425c-.006-3.585.016-7.17-.016-10.755-.007-.744.24-.973.969-.964,2.612.033,5.224.013,7.836.013m-4.24,5.626c0,.947-.013,1.9,0,2.842a1.342,1.342,0,0,0,1.469,1.491q2.842.035,5.684,0a1.38,1.38,0,0,0,1.5-1.486q.038-2.841,0-5.684a1.357,1.357,0,0,0-1.494-1.481q-2.842-.029-5.684,0a1.328,1.328,0,0,0-1.475,1.476c-.017.947,0,1.895,0,2.842" transform="translate(-27.893 -232.02)" fill="#fff"/>
    <path id="Path_2363" data-name="Path 2363" d="M153.649,298.447c0,1.792.011,3.583,0,5.375a3.183,3.183,0,0,1-3.247,3.263c-2.231.049-2.231.049-2.231-2.2,0-3.993.015-7.985-.013-11.978-.005-.727.211-1.006.957-.976,1.2.048,2.407.05,3.608,0,.76-.032.96.27.944.986-.04,1.842-.013,3.685-.014,5.528" transform="translate(-117.736 -231.994)" fill="#fff"/>
    <path id="Path_2364" data-name="Path 2364" d="M128.631,299.552c0,2.225-.018,4.449.011,6.673.008.664-.215.927-.888.888-.739-.043-1.483-.008-2.224-.01-1.072,0-1.082-.008-1.083-1.058q0-4.832,0-9.665c0-1.2.017-2.4-.005-3.605-.011-.585.207-.838.81-.815.817.031,1.638.039,2.454,0,.693-.036.952.21.941.922-.034,2.224-.012,4.449-.013,6.673" transform="translate(-98.89 -232.012)" fill="#fff"/>
  </g>
</svg>
