<svg id="leashpay_logo_hr_fc" xmlns="http://www.w3.org/2000/svg" xmlns:xlink="http://www.w3.org/1999/xlink" width="259.526" height="51.704" viewBox="0 0 259.526 51.704">
  <defs>
    <clipPath id="clip-path">
      <rect id="Rectangle_1" data-name="Rectangle 1" width="259.526" height="51.704" fill="none"/>
    </clipPath>
  </defs>
  <path id="Path_1" data-name="Path 1" d="M117.585,13.889V34.459h12.926V39.74H111.825V13.889Z" transform="translate(-28.574 -3.549)" fill="#008999"/>
  <g id="Group_2" data-name="Group 2">
    <g id="Group_1" data-name="Group 1" clip-path="url(#clip-path)">
      <path id="Path_2" data-name="Path 2" d="M145.789,34.255c.258,1.773,1.957,3.213,4.949,3.213a7.578,7.578,0,0,0,4.727-1.441l2.991,3.324c-1.957,1.92-5.1,2.7-7.829,2.7-6.61,0-10.23-3.878-10.23-9.712,0-5.54,3.73-9.417,9.676-9.417,6.2,0,10.266,3.877,9.121,11.337Zm8.641-3.877c-.11-1.994-2.142-2.918-4.357-2.918a4.161,4.161,0,0,0-4.284,2.918Z" transform="translate(-35.874 -5.856)" fill="#008999"/>
      <path id="Path_3" data-name="Path 3" d="M184.519,23.422h4.986V41.665h-4.8l-.3-2.289c-1.219,1.921-3.841,2.659-5.613,2.7-5.465.036-9.417-3.509-9.417-9.528,0-6.056,4.174-9.6,9.565-9.528,2.289,0,4.431.887,5.392,2.511ZM174.7,32.543a4.573,4.573,0,0,0,4.8,4.8,4.819,4.819,0,1,0,0-9.638,4.6,4.6,0,0,0-4.8,4.838" transform="translate(-43.28 -5.881)" fill="#008999"/>
      <path id="Path_4" data-name="Path 4" d="M212.736,28.158a6.973,6.973,0,0,0-4.321-1.33c-1.735,0-2.622.628-2.622,1.514,0,1,.923,1.552,2.7,1.589,3.582.11,7.9.849,7.94,5.872.037,2.955-2.178,6.13-7.976,6.13a12.381,12.381,0,0,1-8.567-3.1l2.289-3.767a9.761,9.761,0,0,0,6.352,2.289c1.551.037,2.769-.59,2.733-1.551,0-.849-.628-1.551-3.1-1.625-3.4-.147-7.644-1.551-7.644-5.835,0-4.136,3.914-5.871,7.866-5.871a10.078,10.078,0,0,1,6.98,2.364Z" transform="translate(-51.075 -5.742)" fill="#008999"/>
      <path id="Path_5" data-name="Path 5" d="M230.936,13.889v9.86a6.8,6.8,0,0,1,5.539-2.548c4.284,0,7.275,2.253,7.275,8.753V39.74h-5.318V29.99c0-2.548-1.366-3.951-3.471-3.951-2.216,0-4.063,1.551-4.063,4.468V39.74h-5.318V13.889Z" transform="translate(-57.641 -3.549)" fill="#008999"/>
      <path id="Path_6" data-name="Path 6" d="M262.692,32.428v7.312h-5.761V13.89h12.186c6.611,0,9.9,4.283,9.9,9.269,0,5.17-3.323,9.2-9.9,9.27Zm0-5.281h6.426a3.773,3.773,0,0,0,4.136-3.877,3.82,3.82,0,0,0-4.136-3.914h-6.426Z" transform="translate(-65.651 -3.549)" fill="#008999"/>
      <path id="Path_7" data-name="Path 7" d="M305.208,23.422h4.986V41.665h-4.8l-.3-2.289c-1.219,1.921-3.841,2.659-5.614,2.7-5.465.036-9.416-3.509-9.416-9.528,0-6.056,4.172-9.6,9.564-9.528,2.29,0,4.431.887,5.392,2.511Zm-9.823,9.121a4.572,4.572,0,0,0,4.8,4.8,4.819,4.819,0,1,0,0-9.638,4.6,4.6,0,0,0-4.8,4.838" transform="translate(-74.118 -5.881)" fill="#008999"/>
      <path id="Path_8" data-name="Path 8" d="M341.44,23.015,330.25,49.456h-5.8l3.767-8.752-7.644-17.69h5.982L331.1,34.5l4.468-11.485Z" transform="translate(-81.913 -5.881)" fill="#008999"/>
      <path id="Path_9" data-name="Path 9" d="M32.5,0,21.411,41.363H0L9.036,7.646A10.316,10.316,0,0,1,19,0Z" fill="#008999"/>
      <path id="Path_10" data-name="Path 10" d="M66.63,13.89,61.084,34.572H39.68L45.219,13.89Z" transform="translate(-10.139 -3.549)" fill="#e86000"/>
      <path id="Path_11" data-name="Path 11" d="M59.18,41.67,56.411,52.011,55.689,54.7a10.316,10.316,0,0,1-9.966,7.648H32.23l2.777-10.341L37.776,41.67Z" transform="translate(-8.235 -10.648)" fill="#f79400"/>
      <path id="Path_12" data-name="Path 12" d="M91.9,26.879l-2.063,7.693H68.43L73.976,13.89h7.963A10.317,10.317,0,0,1,91.9,26.879" transform="translate(-17.485 -3.549)" fill="#f79400"/>
    </g>
  </g>
</svg>
