<svg id="Group_68135" data-name="Group 68135" xmlns="http://www.w3.org/2000/svg" xmlns:xlink="http://www.w3.org/1999/xlink" width="71.021" height="68.544" viewBox="0 0 71.021 68.544">
  <defs>
    <clipPath id="clip-path">
      <rect id="Rectangle_2083" data-name="Rectangle 2083" width="71.021" height="68.544" fill="#fff"/>
    </clipPath>
  </defs>
  <g id="Group_68134" data-name="Group 68134" clip-path="url(#clip-path)">
    <path id="Path_2365" data-name="Path 2365" d="M71.013,45.566l-.005-2.423a8.431,8.431,0,0,0-.136-1.431,4.527,4.527,0,0,0-4.262-3.768,4.722,4.722,0,0,0-3.6,1.34,4.668,4.668,0,0,0-1.629-2.59,4.726,4.726,0,0,0-3.817-.927,4.384,4.384,0,0,0-2.672,1.6,4.657,4.657,0,0,0-3.67-2.786,4.722,4.722,0,0,0-3.8,1.262c0-.835,0-1.788,0-2.814v-1.91A15.748,15.748,0,0,0,43.995,0H15.749a15.749,15.749,0,0,0,0,31.5H38.1l-.006,11.091-.829-1.408L35.9,38.87q-.359-.609-.715-1.22c-.6-1.02-1.211-2.075-1.851-3.105a4.65,4.65,0,0,0-4.987-2.136,4.737,4.737,0,0,0-3.584,3.729,5.513,5.513,0,0,0,.814,3.722l.037.071q1.36,2.621,2.721,5.241c2.676,5.152,5.443,10.479,8.138,15.73a13.17,13.17,0,0,0,12.42,7.63c1.359.008,2.738.013,4.157.013s2.879,0,4.4-.013a13.388,13.388,0,0,0,6.756-1.649,12.985,12.985,0,0,0,6.8-11.9c.022-3.142.015-6.332.007-9.416M3.86,15.749A11.9,11.9,0,0,1,15.749,3.86H43.995A11.892,11.892,0,0,1,47.42,27.138c0-4.208,0-8.593-.012-10.393a4.626,4.626,0,0,0-8.453-2.583l0,0a5.62,5.62,0,0,0-.849,3.367l0,10.106H15.749A11.9,11.9,0,0,1,3.86,15.749M67.146,54.955a9.237,9.237,0,0,1-4.863,8.582,9.531,9.531,0,0,1-4.855,1.135c-3.024.017-5.808.017-8.511,0a9.335,9.335,0,0,1-9.01-5.534c-2.7-5.259-5.469-10.59-8.146-15.746q-1.36-2.619-2.721-5.241L29,38.076c-.309-.593-.493-.972-.446-1.22a.871.871,0,0,1,.611-.677.778.778,0,0,1,.889.4c.613.987,1.215,2.018,1.8,3.016q.361.618.723,1.236l1.361,2.309q1.019,1.73,2.041,3.461a3.2,3.2,0,0,0,3.737,1.684,3.13,3.13,0,0,0,2.235-3.312L41.957,31.5h0l.007-13.964a2.491,2.491,0,0,1,.158-1.165.751.751,0,0,1,.9-.335.719.719,0,0,1,.523.73c.01,2.133.012,7.919.013,12.722v3.543c0,2.369,0,4.348,0,5.386a6.9,6.9,0,0,0,.091,1.261,3.115,3.115,0,0,0,3.062,2.637A3.163,3.163,0,0,0,49.8,39.572c.013-.085.026-.171.038-.256.02-.141.04-.288.061-.363a.778.778,0,0,1,.9-.536.835.835,0,0,1,.616.72c.007.141.006.3.006.472,0,.192,0,.409.009.643a3.131,3.131,0,0,0,6.259.188c.09-.784.428-.847.59-.877a.859.859,0,0,1,.7.152.825.825,0,0,1,.3.641c.015.358.012.73.009,1.123,0,.324-.005.66,0,1.007a3.114,3.114,0,0,0,6.195.508c.036-.185.056-.354.072-.49.009-.072.02-.172.028-.2.1-.353.382-.523.842-.5a.7.7,0,0,1,.643.586,4.592,4.592,0,0,1,.077.771l.005,2.419c.007,3.076.015,6.256-.007,9.38" fill="#fff"/>
    <path id="Path_2366" data-name="Path 2366" d="M138.184,50.769a1.93,1.93,0,0,0-2.729,0L127.724,58.5,125,55.78a1.93,1.93,0,1,0-2.729,2.729l4.084,4.084a1.93,1.93,0,0,0,2.729,0l9.1-9.1a1.93,1.93,0,0,0,0-2.729" transform="translate(-100.358 -41.396)" fill="#fff"/>
  </g>
</svg>
