<svg id="Group_68122" data-name="Group 68122" xmlns="http://www.w3.org/2000/svg" xmlns:xlink="http://www.w3.org/1999/xlink" width="352.943" height="564.17" viewBox="0 0 352.943 564.17">
  <defs>
    <clipPath id="clip-path">
      <rect id="Rectangle_2074" data-name="Rectangle 2074" width="352.943" height="564.17" fill="none"/>
    </clipPath>
    <clipPath id="clip-path-3">
      <rect id="Rectangle_2061" data-name="Rectangle 2061" width="64.431" height="102.908" fill="none"/>
    </clipPath>
    <clipPath id="clip-path-4">
      <rect id="Rectangle_2062" data-name="Rectangle 2062" width="64.43" height="102.908" fill="none"/>
    </clipPath>
    <clipPath id="clip-path-5">
      <path id="Rectangle_2072" data-name="Rectangle 2072" d="M2.083,0H6.866A2.084,2.084,0,0,1,8.95,2.084v8.462A2.084,2.084,0,0,1,6.866,12.63H2.084A2.084,2.084,0,0,1,0,10.546V2.083A2.083,2.083,0,0,1,2.083,0Z" fill="none"/>
    </clipPath>
    <clipPath id="clip-path-6">
      <rect id="Rectangle_2065" data-name="Rectangle 2065" width="11.237" height="0.348" fill="none"/>
    </clipPath>
    <clipPath id="clip-path-8">
      <rect id="Rectangle_2069" data-name="Rectangle 2069" width="0.348" height="15.712" fill="none"/>
    </clipPath>
  </defs>
  <g id="Group_68121" data-name="Group 68121" clip-path="url(#clip-path)">
    <g id="Group_68104" data-name="Group 68104">
      <g id="Group_68103" data-name="Group 68103" clip-path="url(#clip-path)">
        <path id="Path_2254" data-name="Path 2254" d="M321.34,467.394v71.128a32.12,32.12,0,0,1-32.122,32.114H32.122A32.12,32.12,0,0,1,0,538.521V51.747A32.12,32.12,0,0,1,32.122,19.633h257.1A32.12,32.12,0,0,1,321.34,51.747v71.136h-.007v344.51ZM277.087,231.4V110.422A15.983,15.983,0,0,0,261.1,94.436H63.394a15.988,15.988,0,0,0-15.986,15.986V231.4a15.988,15.988,0,0,0,15.986,15.986H261.1A15.983,15.983,0,0,0,277.087,231.4" transform="translate(0 -6.465)" fill="#063539"/>
        <path id="Path_2255" data-name="Path 2255" d="M292.9,133.039a15.987,15.987,0,0,1,9.762,14.73v120.98a15.983,15.983,0,0,1-15.986,15.986H88.973a15.936,15.936,0,0,1-11.3-4.681" transform="translate(-25.579 -43.812)" fill="#84bd5a"/>
        <path id="Path_2256" data-name="Path 2256" d="M75.371,279.436a15.936,15.936,0,0,1-4.684-11.3V147.152a15.988,15.988,0,0,1,15.986-15.986H284.379a15.937,15.937,0,0,1,6.223,1.256" transform="translate(-23.278 -43.195)" fill="#a4cc7c"/>
        <rect id="Rectangle_2055" data-name="Rectangle 2055" width="195.528" height="18.436" transform="translate(64.484 20.014)" fill="#e86d13"/>
        <rect id="Rectangle_2056" data-name="Rectangle 2056" width="195.528" height="18.436" transform="translate(64.484 20.015)" fill="#050605"/>
        <path id="Path_2257" data-name="Path 2257" d="M312.9,59.558V242.045a22.43,22.43,0,0,1-22.43,22.43H56.4a22.431,22.431,0,0,1-22.431-22.43V22.43A22.431,22.431,0,0,1,56.4,0H290.47A22.43,22.43,0,0,1,312.9,22.43Z" transform="translate(-11.187)" fill="#a7daf6"/>
        <path id="Path_2258" data-name="Path 2258" d="M295.908,64.7H79.745a2.073,2.073,0,0,1-2.073-2.073V55.284a2.073,2.073,0,0,1,2.073-2.073H295.908a2.074,2.074,0,0,1,2.074,2.073v7.345a2.074,2.074,0,0,1-2.074,2.073" transform="translate(-25.579 -17.523)" fill="#063539"/>
        <path id="Path_2259" data-name="Path 2259" d="M289.548,274.009H73.138a18.6,18.6,0,0,1-18.6-18.6V100.089a18.6,18.6,0,0,1,18.6-18.6h216.41a18.6,18.6,0,0,1,18.6,18.6V255.41a18.6,18.6,0,0,1-18.6,18.6" transform="translate(-17.961 -26.836)" fill="#012424"/>
        <path id="Path_2260" data-name="Path 2260" d="M516.369,191.994V499.677a18.414,18.414,0,0,1-18.414,18.413h-1.7V173.58h1.7a18.41,18.41,0,0,1,18.414,18.414" transform="translate(-163.426 -57.163)" fill="#063539"/>
        <rect id="Rectangle_2057" data-name="Rectangle 2057" width="11.491" height="349.836" transform="translate(321.34 113.754)" fill="#094647"/>
        <rect id="Rectangle_2058" data-name="Rectangle 2058" width="0.007" height="344.51" transform="translate(321.332 116.418)" fill="#050605"/>
        <rect id="Rectangle_2059" data-name="Rectangle 2059" width="5.359" height="349.836" transform="translate(318.652 113.754)" fill="#032122"/>
        <path id="Path_2261" data-name="Path 2261" d="M379.529,664.39v15.52a10.657,10.657,0,0,1-10.657,10.65H328.115a10.651,10.651,0,0,1-10.65-10.65V664.39a10.646,10.646,0,0,1,10.65-10.65h40.757a10.652,10.652,0,0,1,10.657,10.65" transform="translate(-104.547 -215.288)" fill="#027888"/>
        <path id="Path_2262" data-name="Path 2262" d="M379.529,588.577v15.512a10.652,10.652,0,0,1-10.657,10.65H328.115a10.646,10.646,0,0,1-10.65-10.65V588.577a10.652,10.652,0,0,1,10.65-10.657h40.757a10.659,10.659,0,0,1,10.657,10.657" transform="translate(-104.547 -190.319)" fill="#027888"/>
        <path id="Path_2263" data-name="Path 2263" d="M379.529,512.762v15.52a10.657,10.657,0,0,1-10.657,10.65H328.115a10.651,10.651,0,0,1-10.65-10.65v-15.52a10.646,10.646,0,0,1,10.65-10.65h40.757a10.652,10.652,0,0,1,10.657,10.65" transform="translate(-104.547 -165.354)" fill="#027888"/>
        <path id="Path_2264" data-name="Path 2264" d="M376.411,752.457a10.628,10.628,0,0,1,3.119,7.53,26.171,26.171,0,0,1-26.17,26.17H328.115a10.65,10.65,0,0,1-10.649-10.65v-15.52a10.645,10.645,0,0,1,10.649-10.65h40.757a10.628,10.628,0,0,1,7.538,3.119" transform="translate(-104.547 -246.77)" fill="#f67f0c"/>
        <path id="Path_2265" data-name="Path 2265" d="M374.133,427.512a18.409,18.409,0,0,1-13.017,31.43H335.87a18.41,18.41,0,0,1,0-36.819h25.245a18.346,18.346,0,0,1,13.017,5.389" transform="translate(-104.547 -139.012)" fill="#027888"/>
        <path id="Path_2266" data-name="Path 2266" d="M256.14,759.988v15.52a10.655,10.655,0,0,1-10.65,10.65H204.726a10.655,10.655,0,0,1-10.65-10.65v-15.52a10.651,10.651,0,0,1,10.65-10.65h40.765a10.651,10.651,0,0,1,10.65,10.65" transform="translate(-63.913 -246.77)" fill="#027888"/>
        <path id="Path_2267" data-name="Path 2267" d="M256.14,664.39v15.52a10.655,10.655,0,0,1-10.65,10.65H204.726a10.655,10.655,0,0,1-10.65-10.65V664.39a10.651,10.651,0,0,1,10.65-10.65h40.765a10.651,10.651,0,0,1,10.65,10.65" transform="translate(-63.913 -215.288)" fill="#027888"/>
        <path id="Path_2268" data-name="Path 2268" d="M256.14,588.577v15.512a10.651,10.651,0,0,1-10.65,10.65H204.726a10.651,10.651,0,0,1-10.65-10.65V588.577a10.657,10.657,0,0,1,10.65-10.657h40.765a10.657,10.657,0,0,1,10.65,10.657" transform="translate(-63.913 -190.319)" fill="#027888"/>
        <path id="Path_2269" data-name="Path 2269" d="M256.14,512.762v15.52a10.656,10.656,0,0,1-10.65,10.65H204.726a10.656,10.656,0,0,1-10.65-10.65v-15.52a10.651,10.651,0,0,1,10.65-10.65h40.765a10.651,10.651,0,0,1,10.65,10.65" transform="translate(-63.913 -165.354)" fill="#027888"/>
        <path id="Path_2270" data-name="Path 2270" d="M237.728,422.124a18.41,18.41,0,0,1,0,36.819H212.49a18.41,18.41,0,1,1,0-36.819Z" transform="translate(-63.913 -139.013)" fill="#027888"/>
        <path id="Path_2271" data-name="Path 2271" d="M132.755,759.988v15.52a10.65,10.65,0,0,1-10.65,10.65H96.86A26.164,26.164,0,0,1,70.7,759.988a10.65,10.65,0,0,1,10.65-10.65h40.757a10.646,10.646,0,0,1,10.65,10.65" transform="translate(-23.282 -246.77)" fill="#e04917"/>
        <path id="Path_2272" data-name="Path 2272" d="M132.755,664.39v15.52a10.651,10.651,0,0,1-10.65,10.65H81.348a10.651,10.651,0,0,1-10.65-10.65V664.39a10.646,10.646,0,0,1,10.65-10.65h40.757a10.646,10.646,0,0,1,10.65,10.65" transform="translate(-23.282 -215.288)" fill="#027888"/>
        <path id="Path_2273" data-name="Path 2273" d="M132.755,588.577v15.512a10.646,10.646,0,0,1-10.65,10.65H81.348a10.646,10.646,0,0,1-10.65-10.65V588.577a10.652,10.652,0,0,1,10.65-10.657h40.757a10.652,10.652,0,0,1,10.65,10.657" transform="translate(-23.282 -190.319)" fill="#027888"/>
        <path id="Path_2274" data-name="Path 2274" d="M132.755,512.762v15.52a10.651,10.651,0,0,1-10.65,10.65H81.348a10.651,10.651,0,0,1-10.65-10.65v-15.52a10.646,10.646,0,0,1,10.65-10.65h40.757a10.646,10.646,0,0,1,10.65,10.65" transform="translate(-23.282 -165.354)" fill="#027888"/>
        <path id="Path_2275" data-name="Path 2275" d="M114.35,422.124a18.41,18.41,0,0,1,0,36.819H89.1a18.41,18.41,0,1,1,0-36.819Z" transform="translate(-23.282 -139.013)" fill="#027888"/>
        <path id="Path_2276" data-name="Path 2276" d="M112.876,532.186v-15.38l-3.775,1.31-1.123-3.931,7.051-2.777h2.9v20.777Z" transform="translate(-35.559 -168.416)" fill="#063539"/>
        <path id="Path_2277" data-name="Path 2277" d="M122.526,607.069v4.961h-4.867v-4.961h-8.111l-.687-3.649,7.706-12.167h5.959v12.011h2.745v3.806Zm-4.867-11.511-4.337,7.705h4.337Z" transform="translate(-35.85 -194.71)" fill="#063539"/>
        <path id="Path_2278" data-name="Path 2278" d="M122.306,671.663l-7.8,16.846h-4.992l7.986-16.784h-8.361v-3.993H121.62Z" transform="translate(-35.942 -219.896)" fill="#063539"/>
        <path id="Path_2279" data-name="Path 2279" d="M109.48,782.192l-4.49-13.084h5.023l2.119,8.53,4.12-14.48h5.023l-6.491,19.035Z" transform="translate(-34.575 -251.321)" fill="#063539"/>
        <path id="Path_2280" data-name="Path 2280" d="M230.481,512.5a11.073,11.073,0,0,1,5.864-1.653,8.333,8.333,0,0,1,2.683.421,6.409,6.409,0,0,1,2.168,1.217,5.612,5.612,0,0,1,1.451,1.98,6.523,6.523,0,0,1,.53,2.683,8.044,8.044,0,0,1-.313,2.278,9.3,9.3,0,0,1-.858,2.012,12.555,12.555,0,0,1-1.264,1.809q-.717.859-1.5,1.669-.843.874-1.732,1.669t-1.607,1.419H243.3V532H230.075l-.748-2.87q.842-.873,1.5-1.545t1.233-1.263q.576-.593,1.107-1.155t1.123-1.217q.656-.717,1.341-1.482a14.288,14.288,0,0,0,1.233-1.576,10.627,10.627,0,0,0,.9-1.622,3.987,3.987,0,0,0,.359-1.622,2.7,2.7,0,0,0-.749-2,2.826,2.826,0,0,0-2.09-.748,5.691,5.691,0,0,0-1.809.28,9.286,9.286,0,0,0-1.747.812Z" transform="translate(-75.521 -168.232)" fill="#063539"/>
        <path id="Path_2281" data-name="Path 2281" d="M243.967,605.556a6.326,6.326,0,0,1-.64,2.892,6.415,6.415,0,0,1-1.731,2.142,7.827,7.827,0,0,1-2.589,1.345,10.7,10.7,0,0,1-3.214.469,15.048,15.048,0,0,1-2.885-.283,12.316,12.316,0,0,1-2.418-.692l.655-3.767a14.506,14.506,0,0,0,2.105.608,10.6,10.6,0,0,0,2.2.234,4.591,4.591,0,0,0,2.683-.682,2.279,2.279,0,0,0,.967-1.985,2.2,2.2,0,0,0-.343-1.255,2.522,2.522,0,0,0-.92-.822,4.257,4.257,0,0,0-1.341-.435,10.041,10.041,0,0,0-1.606-.125h-3.245V591.252h11.2v3.993h-6.489V599.3h.5a9.146,9.146,0,0,1,2.761.407,6.638,6.638,0,0,1,2.262,1.2,5.762,5.762,0,0,1,1.528,1.954,6.091,6.091,0,0,1,.561,2.689" transform="translate(-75.904 -194.71)" fill="#063539"/>
        <path id="Path_2282" data-name="Path 2282" d="M237.742,667.174a9.669,9.669,0,0,1,2.7.359,6.509,6.509,0,0,1,2.106,1.013,4.6,4.6,0,0,1,1.357,1.608,4.721,4.721,0,0,1,.484,2.168,3.971,3.971,0,0,1-.3,1.528,5.8,5.8,0,0,1-.765,1.326,7.941,7.941,0,0,1-1.076,1.139q-.609.53-1.264,1,.748.5,1.466,1.076a8.668,8.668,0,0,1,1.279,1.264,5.683,5.683,0,0,1,.889,1.513,5,5,0,0,1,.327,1.856,4.646,4.646,0,0,1-.561,2.231,5.792,5.792,0,0,1-1.529,1.809,7.424,7.424,0,0,1-2.278,1.2,8.936,8.936,0,0,1-2.839.437,8.257,8.257,0,0,1-5.3-1.529,4.974,4.974,0,0,1-1.9-4.086,4.2,4.2,0,0,1,.343-1.716,6.329,6.329,0,0,1,.889-1.451,8.182,8.182,0,0,1,1.248-1.232q.7-.562,1.451-1.093a14.994,14.994,0,0,1-1.357-1.076,8.256,8.256,0,0,1-1.061-1.138,4.79,4.79,0,0,1-.7-1.28,4.332,4.332,0,0,1-.25-1.5,5.082,5.082,0,0,1,.468-2.184,4.96,4.96,0,0,1,1.326-1.716,6.272,6.272,0,0,1,2.091-1.123,8.8,8.8,0,0,1,2.761-.406m2.527,15.817a2.394,2.394,0,0,0-.14-.842,2.315,2.315,0,0,0-.468-.733,6.317,6.317,0,0,0-.842-.748q-.515-.39-1.264-.919a12.012,12.012,0,0,0-1.716,1.5,2.5,2.5,0,0,0-.624,1.747,1.955,1.955,0,0,0,.671,1.591,2.8,2.8,0,0,0,1.856.561,2.638,2.638,0,0,0,1.825-.624,1.965,1.965,0,0,0,.7-1.529m-4.586-10.482a2.524,2.524,0,0,0,.078.64,1.774,1.774,0,0,0,.312.608,4.13,4.13,0,0,0,.64.655q.405.344,1.06.812a8.887,8.887,0,0,0,1.467-1.3,2.1,2.1,0,0,0,.561-1.419,1.6,1.6,0,0,0-.593-1.357,2.348,2.348,0,0,0-1.466-.452,2.186,2.186,0,0,0-1.482.5,1.65,1.65,0,0,0-.577,1.31" transform="translate(-75.92 -219.712)" fill="#063539"/>
        <path id="Path_2283" data-name="Path 2283" d="M244.7,772.062a16.936,16.936,0,0,1-.53,4.383,9.892,9.892,0,0,1-1.592,3.4,7.239,7.239,0,0,1-2.651,2.2,9.114,9.114,0,0,1-7.378,0,7.267,7.267,0,0,1-2.636-2.2,9.868,9.868,0,0,1-1.592-3.4,18.369,18.369,0,0,1,0-8.766,9.879,9.879,0,0,1,1.592-3.4,7.278,7.278,0,0,1,2.636-2.2,9.114,9.114,0,0,1,7.378,0,7.25,7.25,0,0,1,2.651,2.2,9.9,9.9,0,0,1,1.592,3.4,16.94,16.94,0,0,1,.53,4.383m-5.054,0a12.968,12.968,0,0,0-.764-5.038,2.872,2.872,0,0,0-5.272,0,16.981,16.981,0,0,0,0,10.076,2.872,2.872,0,0,0,5.272,0,12.966,12.966,0,0,0,.764-5.038" transform="translate(-75.015 -250.709)" fill="#063539"/>
        <path id="Path_2284" data-name="Path 2284" d="M366.223,526.262a5.419,5.419,0,0,1-.59,2.558,5.928,5.928,0,0,1-1.6,1.919,7.218,7.218,0,0,1-2.375,1.217,9.885,9.885,0,0,1-2.927.421,13.945,13.945,0,0,1-3.042-.33,14.516,14.516,0,0,1-2.636-.834l.811-3.672a11.831,11.831,0,0,0,1.95.671,9.167,9.167,0,0,0,2.262.265,3.58,3.58,0,0,0,2.371-.666,2.264,2.264,0,0,0,.779-1.813,2,2,0,0,0-1.154-1.938,6.673,6.673,0,0,0-2.964-.573h-2.027v-3.931h1.186a6.353,6.353,0,0,0,3.385-.728,2.237,2.237,0,0,0,1.138-1.969,1.915,1.915,0,0,0-.671-1.534,2.98,2.98,0,0,0-1.981-.573,8.463,8.463,0,0,0-1.825.227,7.448,7.448,0,0,0-1.824.646l-.842-3.494a11.92,11.92,0,0,1,2.667-.967,13.313,13.313,0,0,1,2.98-.312,9.33,9.33,0,0,1,2.651.359,6.146,6.146,0,0,1,2.075,1.03,4.808,4.808,0,0,1,1.341,1.622,4.584,4.584,0,0,1,.483,2.105,5.123,5.123,0,0,1-.983,3.057,6.736,6.736,0,0,1-2.761,2.184,8.373,8.373,0,0,1,1.579.718,5.4,5.4,0,0,1,1.3,1.06,5.1,5.1,0,0,1,.9,1.435,4.72,4.72,0,0,1,.341,1.84" transform="translate(-116.268 -168.232)" fill="#063539"/>
        <path id="Path_2285" data-name="Path 2285" d="M366.094,594.461q-1.03.468-2.168,1a12.965,12.965,0,0,0-2.168,1.277,9.761,9.761,0,0,0-1.841,1.743,6.736,6.736,0,0,0-1.216,2.335,4.584,4.584,0,0,1,1.71-1.069,6.079,6.079,0,0,1,2.115-.378,6.619,6.619,0,0,1,2.333.406,5.589,5.589,0,0,1,1.911,1.188,5.448,5.448,0,0,1,1.291,1.924,6.762,6.762,0,0,1,.466,2.579,6.465,6.465,0,0,1-.546,2.643,6.752,6.752,0,0,1-3.743,3.6,7.473,7.473,0,0,1-2.793.516,7.834,7.834,0,0,1-3.509-.733,7.254,7.254,0,0,1-2.449-1.918,7.745,7.745,0,0,1-1.419-2.683,10.4,10.4,0,0,1-.453-3.026,11.876,11.876,0,0,1,2.9-8.1,18.143,18.143,0,0,1,8.049-5.07Zm-2.215,11.223a2.5,2.5,0,0,0-.667-1.829,2.459,2.459,0,0,0-1.845-.683,3.73,3.73,0,0,0-1.6.341,4.086,4.086,0,0,0-1.163.775,8.216,8.216,0,0,0,.14,1.52,4.809,4.809,0,0,0,.434,1.317,2.449,2.449,0,0,0,.822.931,2.327,2.327,0,0,0,1.333.356,2.4,2.4,0,0,0,1.83-.759,2.763,2.763,0,0,0,.714-1.97" transform="translate(-116.452 -194.526)" fill="#063539"/>
        <path id="Path_2286" data-name="Path 2286" d="M355.848,684.921q1.029-.469,2.168-1a13.033,13.033,0,0,0,2.168-1.28,10.042,10.042,0,0,0,1.841-1.734,6.612,6.612,0,0,0,1.217-2.358,5.114,5.114,0,0,1-1.81,1.084A6.083,6.083,0,0,1,359.4,680a6.65,6.65,0,0,1-2.339-.406,5.6,5.6,0,0,1-1.919-1.185,5.426,5.426,0,0,1-1.294-1.919,6.708,6.708,0,0,1-.468-2.574,6.941,6.941,0,0,1,.578-2.917,6.037,6.037,0,0,1,1.563-2.106,6.8,6.8,0,0,1,2.3-1.278,8.762,8.762,0,0,1,2.783-.437,7.772,7.772,0,0,1,3.5.732,7.019,7.019,0,0,1,2.407,1.919,7.818,7.818,0,0,1,1.376,2.683,10.766,10.766,0,0,1,.437,3.026,11.877,11.877,0,0,1-2.9,8.1,18.138,18.138,0,0,1-8.049,5.07Zm2.184-11.228a2.329,2.329,0,0,0,2.527,2.5,3.783,3.783,0,0,0,1.606-.339,4.1,4.1,0,0,0,1.17-.771,8.05,8.05,0,0,0-.141-1.51,4.748,4.748,0,0,0-.437-1.311,2.463,2.463,0,0,0-.827-.925,2.367,2.367,0,0,0-1.341-.355,2.428,2.428,0,0,0-1.84.755,2.724,2.724,0,0,0-.718,1.958" transform="translate(-116.375 -219.712)" fill="#063539"/>
        <path id="Path_2287" data-name="Path 2287" d="M351.545,781.238,357,773.5l-5.272-7.549h5.117l2.807,4.211,2.839-4.211h5.117l-5.3,7.549,5.491,7.737H362.62l-2.964-4.4-2.932,4.4Z" transform="translate(-115.77 -252.241)" fill="#063539"/>
        <path id="Path_2288" data-name="Path 2288" d="M120.655,450.794l-3.868,1.435-3.057-7.518-3.058,7.518-3.868-1.435L111.3,441h4.866Z" transform="translate(-35.172 -145.228)" fill="#063539"/>
        <rect id="Rectangle_2060" data-name="Rectangle 2060" width="8.548" height="3.993" transform="translate(156.956 299.524)" fill="#063539"/>
        <path id="Path_2289" data-name="Path 2289" d="M353.336,442.433,357.2,441l3.057,7.518L363.318,441l3.869,1.435-4.493,9.8h-4.866Z" transform="translate(-116.359 -145.228)" fill="#063539"/>
        <g id="Group_68099" data-name="Group 68099" transform="translate(132.414 72.23)" opacity="0.27">
          <g id="Group_68098" data-name="Group 68098">
            <g id="Group_68097" data-name="Group 68097" clip-path="url(#clip-path-3)">
              <path id="Path_2290" data-name="Path 2290" d="M197.432,206.229V112.074a4.376,4.376,0,0,1,4.376-4.376h55.678a4.376,4.376,0,0,1,4.377,4.376v94.154a4.377,4.377,0,0,1-4.377,4.377H201.808a4.376,4.376,0,0,1-4.376-4.377" transform="translate(-197.432 -107.697)" fill="#fff"/>
            </g>
          </g>
        </g>
        <g id="Group_68102" data-name="Group 68102" transform="translate(132.415 72.23)" opacity="0.27">
          <g id="Group_68101" data-name="Group 68101">
            <g id="Group_68100" data-name="Group 68100" clip-path="url(#clip-path-4)">
              <path id="Path_2291" data-name="Path 2291" d="M257.487,108.368a3.71,3.71,0,0,1,3.706,3.706v94.155a3.71,3.71,0,0,1-3.706,3.706H201.809a3.709,3.709,0,0,1-3.7-3.706V112.073a3.71,3.71,0,0,1,3.7-3.706Zm0-.671H201.809a4.376,4.376,0,0,0-4.376,4.376v94.155a4.376,4.376,0,0,0,4.376,4.376h55.679a4.376,4.376,0,0,0,4.376-4.376V112.073a4.376,4.376,0,0,0-4.376-4.376" transform="translate(-197.433 -107.697)" fill="#fff"/>
            </g>
          </g>
        </g>
        <path id="Path_2292" data-name="Path 2292" d="M259.565,138.087v-9.834a1.4,1.4,0,0,1,1.4-1.4h6.155a1.4,1.4,0,0,1,1.4,1.4v9.834a1.4,1.4,0,0,1-1.4,1.4h-6.155a1.4,1.4,0,0,1-1.4-1.4" transform="translate(-85.479 -41.776)" fill="#ffbc3e"/>
      </g>
    </g>
    <g id="Group_68118" data-name="Group 68118" transform="translate(174.086 85.079)">
      <g id="Group_68117" data-name="Group 68117" clip-path="url(#clip-path-5)">
        <path id="Path_2293" data-name="Path 2293" d="M259.565,138.087v-9.834a1.4,1.4,0,0,1,1.4-1.4h6.155a1.4,1.4,0,0,1,1.4,1.4v9.834a1.4,1.4,0,0,1-1.4,1.4h-6.155a1.4,1.4,0,0,1-1.4-1.4" transform="translate(-259.565 -126.855)" fill="#fff"/>
        <g id="Group_68107" data-name="Group 68107" transform="translate(-1.144 3.928)" opacity="0.5" style="mix-blend-mode: multiply;isolation: isolate">
          <g id="Group_68106" data-name="Group 68106">
            <g id="Group_68105" data-name="Group 68105" clip-path="url(#clip-path-6)">
              <rect id="Rectangle_2064" data-name="Rectangle 2064" width="11.237" height="0.348" fill="#012424"/>
            </g>
          </g>
        </g>
        <g id="Group_68110" data-name="Group 68110" transform="translate(-1.144 8.353)" opacity="0.5" style="mix-blend-mode: multiply;isolation: isolate">
          <g id="Group_68109" data-name="Group 68109">
            <g id="Group_68108" data-name="Group 68108" clip-path="url(#clip-path-6)">
              <rect id="Rectangle_2066" data-name="Rectangle 2066" width="11.237" height="0.348" fill="#012424"/>
            </g>
          </g>
        </g>
        <g id="Group_68113" data-name="Group 68113" transform="translate(5.929 -1.541)" opacity="0.5" style="mix-blend-mode: multiply;isolation: isolate">
          <g id="Group_68112" data-name="Group 68112">
            <g id="Group_68111" data-name="Group 68111" clip-path="url(#clip-path-8)">
              <rect id="Rectangle_2068" data-name="Rectangle 2068" width="0.348" height="15.712" fill="#012424"/>
            </g>
          </g>
        </g>
        <g id="Group_68116" data-name="Group 68116" transform="translate(2.672 -1.541)" opacity="0.5" style="mix-blend-mode: multiply;isolation: isolate">
          <g id="Group_68115" data-name="Group 68115">
            <g id="Group_68114" data-name="Group 68114" clip-path="url(#clip-path-8)">
              <rect id="Rectangle_2070" data-name="Rectangle 2070" width="0.348" height="15.712" fill="#012424"/>
            </g>
          </g>
        </g>
      </g>
    </g>
    <g id="Group_68120" data-name="Group 68120">
      <g id="Group_68119" data-name="Group 68119" clip-path="url(#clip-path)">
        <path id="Path_2294" data-name="Path 2294" d="M249.574,97.429H238.549l5.512-5.513Z" transform="translate(-78.558 -30.269)" fill="#fff"/>
        <path id="Path_2295" data-name="Path 2295" d="M219.05,312.656h.284l.231,0a2.978,2.978,0,0,1,.439.037,1.2,1.2,0,0,1,.337.111,1.084,1.084,0,0,1,.275.2,1.1,1.1,0,0,1,.2.277,1.151,1.151,0,0,1,.109.336,3.032,3.032,0,0,1,.038.438c0,.076,0,.153,0,.231,0,.095,0,.189,0,.284v12.951c0,.095,0,.189,0,.285,0,.077,0,.153,0,.229a3.083,3.083,0,0,1-.038.439,1.173,1.173,0,0,1-.109.335,1.091,1.091,0,0,1-.477.476,1.188,1.188,0,0,1-.335.109,3.033,3.033,0,0,1-.437.038l-.234,0H195.707l-.229,0a3,3,0,0,1-.438-.038,1.186,1.186,0,0,1-.337-.11,1.1,1.1,0,0,1-.476-.476,1.194,1.194,0,0,1-.109-.337,3.056,3.056,0,0,1-.038-.437c0-.076,0-.154,0-.23v-13.52c0-.076,0-.154,0-.23a3.107,3.107,0,0,1,.038-.439,1.178,1.178,0,0,1,.11-.336,1.091,1.091,0,0,1,.476-.476,1.192,1.192,0,0,1,.336-.109,2.9,2.9,0,0,1,.439-.038l.23,0H219.05Z" transform="translate(-63.913 -102.963)" fill="#fff"/>
        <path id="Path_2296" data-name="Path 2296" d="M204.1,320.231a.631.631,0,1,0-.669-.584,1.464,1.464,0,0,0-.37,1.074,1.3,1.3,0,0,0,1.039-.49" transform="translate(-66.869 -105.09)" fill="#050605"/>
        <path id="Path_2297" data-name="Path 2297" d="M203.076,321.624c-.574-.034-1.061.327-1.336.327s-.694-.309-1.148-.3a1.692,1.692,0,0,0-1.439.873,3.608,3.608,0,0,0,.437,3.506c.291.428.642.9,1.1.883.437-.017.608-.283,1.139-.283s.685.283,1.149.274c.479-.009.779-.429,1.07-.856a3.86,3.86,0,0,0,.48-.985,1.558,1.558,0,0,1-.934-1.414,1.586,1.586,0,0,1,.753-1.329,1.641,1.641,0,0,0-1.276-.694" transform="translate(-65.488 -105.916)" fill="#050605"/>
        <path id="Path_2298" data-name="Path 2298" d="M211.414,319.844a2.017,2.017,0,0,1,2.116,2.112,2.04,2.04,0,0,1-2.148,2.121H210v2.2h-1v-6.429ZM210,323.239h1.145a1.279,1.279,0,1,0,0-2.553H210Z" transform="translate(-68.829 -105.33)" fill="#050605"/>
        <path id="Path_2299" data-name="Path 2299" d="M216.142,325.755c0-.82.628-1.323,1.742-1.386l1.283-.076v-.361c0-.521-.352-.833-.94-.833a.9.9,0,0,0-.989.686h-.909c.053-.846.775-1.47,1.934-1.47,1.135,0,1.862.6,1.862,1.541v3.23H219.2v-.771h-.022a1.675,1.675,0,0,1-1.479.851,1.421,1.421,0,0,1-1.559-1.412m3.025-.423v-.37l-1.154.071c-.574.04-.9.294-.9.695s.339.677.855.677a1.124,1.124,0,0,0,1.2-1.074" transform="translate(-71.179 -106.144)" fill="#050605"/>
        <path id="Path_2300" data-name="Path 2300" d="M223.15,328.853v-.78a1.754,1.754,0,0,0,.312.018.781.781,0,0,0,.833-.668c0-.009.085-.285.085-.29l-1.693-4.691h1.042l1.185,3.814h.018l1.185-3.814h1.015l-1.755,4.932c-.4,1.135-.864,1.5-1.835,1.5a3.7,3.7,0,0,1-.392-.022" transform="translate(-73.335 -106.186)" fill="#050605"/>
        <path id="Path_2301" data-name="Path 2301" d="M277.378,321.858v4.186h-1.329V315.707h3.522a3.176,3.176,0,0,1,2.276.893,2.98,2.98,0,0,1,0,4.373,3.17,3.17,0,0,1-2.276.879h-2.194Zm0-4.878v3.6H279.6a1.773,1.773,0,0,0,1.315-.532,1.743,1.743,0,0,0,.533-1.266,1.843,1.843,0,0,0-1.847-1.8h-2.221Z" transform="translate(-90.908 -103.968)" fill="#fff"/>
        <path id="Path_2302" data-name="Path 2302" d="M289.783,320.226a3.286,3.286,0,0,1,2.325.789,2.8,2.8,0,0,1,.851,2.159v4.359h-1.266v-.983h-.055a2.527,2.527,0,0,1-2.194,1.211,2.845,2.845,0,0,1-1.958-.692,2.209,2.209,0,0,1-.789-1.73,2.09,2.09,0,0,1,.83-1.744,3.486,3.486,0,0,1,2.215-.651,3.872,3.872,0,0,1,1.944.436v-.3a1.508,1.508,0,0,0-.547-1.176,1.879,1.879,0,0,0-1.287-.484,2.02,2.02,0,0,0-1.758.941l-1.169-.733a3.244,3.244,0,0,1,2.858-1.4m-1.716,5.134a1.049,1.049,0,0,0,.443.865,1.629,1.629,0,0,0,1.032.346,2.107,2.107,0,0,0,1.494-.623,1.954,1.954,0,0,0,.657-1.46,2.735,2.735,0,0,0-1.73-.491,2.274,2.274,0,0,0-1.349.387,1.182,1.182,0,0,0-.547.976" transform="translate(-94.414 -105.456)" fill="#fff"/>
        <path id="Path_2303" data-name="Path 2303" d="M303.332,320.566,298.9,330.752h-1.37l1.647-3.564-2.92-6.622h1.446l2.1,5.079h.028l2.048-5.079Z" transform="translate(-97.564 -105.568)" fill="#fff"/>
        <path id="Path_2304" data-name="Path 2304" d="M267.362,323.008a7.013,7.013,0,0,0-.111-1.246h-5.569v2.284h3.207a2.747,2.747,0,0,1-1.19,1.839v1.482h1.909a5.8,5.8,0,0,0,1.753-4.359" transform="translate(-86.177 -105.962)" fill="#fff"/>
        <path id="Path_2305" data-name="Path 2305" d="M261.1,326.988a3.592,3.592,0,0,1-5.345-1.879h-1.969v1.528a5.927,5.927,0,0,0,5.3,3.264,5.653,5.653,0,0,0,3.925-1.433Z" transform="translate(-83.576 -107.064)" fill="#fff"/>
        <path id="Path_2306" data-name="Path 2306" d="M255.26,322.112a3.583,3.583,0,0,1,.185-1.134V319.45h-1.969a5.935,5.935,0,0,0,0,5.324l1.969-1.528a3.583,3.583,0,0,1-.185-1.134" transform="translate(-83.267 -105.2)" fill="#fff"/>
        <path id="Path_2307" data-name="Path 2307" d="M259.084,316.928a3.221,3.221,0,0,1,2.274.889l1.692-1.691a5.7,5.7,0,0,0-3.966-1.544,5.929,5.929,0,0,0-5.3,3.264l1.97,1.528a3.546,3.546,0,0,1,3.328-2.447" transform="translate(-83.576 -103.598)" fill="#fff"/>
      </g>
    </g>
  </g>
</svg>
