<svg xmlns="http://www.w3.org/2000/svg" width="29.25" height="29.24" viewBox="0 0 29.25 29.24">
  <path id="Path_2356" data-name="Path 2356" d="M103.028,0H89.078a7.667,7.667,0,0,0-7.65,7.64v13.95a7.669,7.669,0,0,0,7.65,7.65h13.95a7.676,7.676,0,0,0,7.65-7.65V7.645A7.674,7.674,0,0,0,103.028,0m1.17,9.62a.371.371,0,0,1-.09.25,6.168,6.168,0,0,1-1.27,1.33c-.07.05-.2.11-.2.21a9.8,9.8,0,0,1-2.59,7.17,9.631,9.631,0,0,1-9.36,2.19,8.622,8.622,0,0,1-1.82-.72,6.318,6.318,0,0,1-.56-.33c-.05-.04-.08-.08-.04-.1s.07-.02.21,0a6.4,6.4,0,0,0,2.71-.35,4.171,4.171,0,0,0,1.79-.94.077.077,0,0,0,.02-.03c-.12-.02-.24-.02-.36-.04a3.527,3.527,0,0,1-2.61-2.19q-.045-.135.09-.12a3.987,3.987,0,0,0,1.25-.03,3.056,3.056,0,0,1-.43-.13,3.381,3.381,0,0,1-2.07-2.69,1.645,1.645,0,0,1-.02-.38c0-.08.04-.11.12-.06a3.4,3.4,0,0,0,1.27.35,4.707,4.707,0,0,1-.41-.35,3.352,3.352,0,0,1-.57-3.94c.07-.09.11-.09.19-.01a10.16,10.16,0,0,0,6.57,3.35c.07.01.07,0,.06-.08a3.333,3.333,0,0,1,.04-1.37,3.254,3.254,0,0,1,.65-1.3,3.435,3.435,0,0,1,1.08-.89,3.374,3.374,0,0,1,1.35-.38,3.292,3.292,0,0,1,1.42.23,3.423,3.423,0,0,1,.93.57.869.869,0,0,1,.16.17.138.138,0,0,0,.14.03,8.188,8.188,0,0,0,1.91-.73.113.113,0,0,1,.08-.01c.03.02.02.06.01.09a2.9,2.9,0,0,1-.54.97c-.15.19-.53.66-.79.71a6.762,6.762,0,0,0,1.61-.46c.07-.03.07-.05.07,0Z" transform="translate(-81.428 -0.005)" fill="#f7f7f7"/>
</svg>
