<svg xmlns="http://www.w3.org/2000/svg" width="29.24" height="29.24" viewBox="0 0 29.24 29.24">
  <g id="Group_68126" data-name="Group 68126" transform="translate(-323.545 -6284.24)">
    <path id="Path_2357" data-name="Path 2357" d="M58.107,14.625a2.7,2.7,0,1,1-2.7-2.71,2.7,2.7,0,0,1,2.7,2.71" transform="translate(282.828 6284.235)" fill="#f7f7f7"/>
    <path id="Path_2358" data-name="Path 2358" d="M58.757,7.665h-6.84a3.538,3.538,0,0,0-3.54,3.53v6.85a3.547,3.547,0,0,0,3.54,3.54h6.84a3.547,3.547,0,0,0,3.54-3.54v-6.85a3.538,3.538,0,0,0-3.54-3.53m-3.35,11.18a4.225,4.225,0,1,1,4.22-4.22,4.227,4.227,0,0,1-4.22,4.22m4.47-7.72a1.005,1.005,0,1,1,1-1.01,1.007,1.007,0,0,1-1,1.01m-1.12-3.46h-6.84a3.538,3.538,0,0,0-3.54,3.53v6.85a3.547,3.547,0,0,0,3.54,3.54h6.84a3.547,3.547,0,0,0,3.54-3.54v-6.85a3.538,3.538,0,0,0-3.54-3.53m-3.35,11.18a4.225,4.225,0,1,1,4.22-4.22,4.227,4.227,0,0,1-4.22,4.22m4.47-7.72a1.005,1.005,0,1,1,1-1.01,1.007,1.007,0,0,1-1,1.01m-1.12-3.46h-6.84a3.538,3.538,0,0,0-3.54,3.53v6.85a3.547,3.547,0,0,0,3.54,3.54h6.84a3.547,3.547,0,0,0,3.54-3.54v-6.85a3.538,3.538,0,0,0-3.54-3.53m-3.35,11.18a4.225,4.225,0,1,1,4.22-4.22,4.227,4.227,0,0,1-4.22,4.22m4.47-7.72a1.005,1.005,0,1,1,1-1.01,1.007,1.007,0,0,1-1,1.01m-1.12-3.46h-6.84a3.538,3.538,0,0,0-3.54,3.53v6.85a3.547,3.547,0,0,0,3.54,3.54h6.84a3.547,3.547,0,0,0,3.54-3.54v-6.85a3.538,3.538,0,0,0-3.54-3.53m-3.35,11.18a4.225,4.225,0,1,1,4.22-4.22,4.227,4.227,0,0,1-4.22,4.22m4.47-7.72a1.005,1.005,0,1,1,1-1.01,1.007,1.007,0,0,1-1,1.01M62.307,0H48.367a7.667,7.667,0,0,0-7.65,7.64v13.95a7.669,7.669,0,0,0,7.65,7.65h13.94a7.669,7.669,0,0,0,7.65-7.65V7.645A7.667,7.667,0,0,0,62.307,0m1.6,18.04a5.155,5.155,0,0,1-5.15,5.15h-6.84a5.155,5.155,0,0,1-5.15-5.15v-6.85a5.155,5.155,0,0,1,5.15-5.15h6.84a5.155,5.155,0,0,1,5.15,5.15Zm-5.15-10.38h-6.84a3.538,3.538,0,0,0-3.54,3.53v6.85a3.547,3.547,0,0,0,3.54,3.54h6.84a3.547,3.547,0,0,0,3.54-3.54v-6.85a3.538,3.538,0,0,0-3.54-3.53m-3.35,11.18a4.225,4.225,0,1,1,4.22-4.22,4.227,4.227,0,0,1-4.22,4.22m4.47-7.72a1.005,1.005,0,1,1,1-1.01,1.007,1.007,0,0,1-1,1.01m-1.12-3.46h-6.84a3.538,3.538,0,0,0-3.54,3.53v6.85a3.547,3.547,0,0,0,3.54,3.54h6.84a3.547,3.547,0,0,0,3.54-3.54v-6.85a3.538,3.538,0,0,0-3.54-3.53m-3.35,11.18a4.225,4.225,0,1,1,4.22-4.22,4.227,4.227,0,0,1-4.22,4.22m4.47-7.72a1.005,1.005,0,1,1,1-1.01,1.007,1.007,0,0,1-1,1.01m-1.12-3.46h-6.84a3.538,3.538,0,0,0-3.54,3.53v6.85a3.547,3.547,0,0,0,3.54,3.54h6.84a3.547,3.547,0,0,0,3.54-3.54v-6.85a3.538,3.538,0,0,0-3.54-3.53m-3.35,11.18a4.225,4.225,0,1,1,4.22-4.22,4.227,4.227,0,0,1-4.22,4.22m4.47-7.72a1.005,1.005,0,1,1,1-1.01,1.007,1.007,0,0,1-1,1.01m-1.12-3.46h-6.84a3.538,3.538,0,0,0-3.54,3.53v6.85a3.547,3.547,0,0,0,3.54,3.54h6.84a3.547,3.547,0,0,0,3.54-3.54v-6.85a3.538,3.538,0,0,0-3.54-3.53m-3.35,11.18a4.225,4.225,0,1,1,4.22-4.22,4.227,4.227,0,0,1-4.22,4.22m4.47-7.72a1.005,1.005,0,1,1,1-1.01,1.007,1.007,0,0,1-1,1.01m-1.12-3.46h-6.84a3.538,3.538,0,0,0-3.54,3.53v6.85a3.547,3.547,0,0,0,3.54,3.54h6.84a3.547,3.547,0,0,0,3.54-3.54v-6.85a3.538,3.538,0,0,0-3.54-3.53m-3.35,11.18a4.225,4.225,0,1,1,4.22-4.22,4.227,4.227,0,0,1-4.22,4.22m4.47-7.72a1.005,1.005,0,1,1,1-1.01,1.007,1.007,0,0,1-1,1.01" transform="translate(282.828 6284.235)" fill="#f7f7f7"/>
  </g>
</svg>
