<svg xmlns="http://www.w3.org/2000/svg" width="29.24" height="29.25" viewBox="0 0 29.24 29.25">
  <path id="Path_2360" data-name="Path 2360" d="M143.74,0H129.8a7.676,7.676,0,0,0-7.65,7.65V21.6a7.676,7.676,0,0,0,7.65,7.65h13.94a7.676,7.676,0,0,0,7.65-7.65V7.65A7.676,7.676,0,0,0,143.74,0M133.47,21h-2.83V11.9h2.83Zm-1.41-10.34a1.64,1.64,0,1,1,1.64-1.64,1.641,1.641,0,0,1-1.64,1.64m12,10.34h-2.82V16.58c0-1.06-.02-2.42-1.47-2.42-1.47,0-1.7,1.15-1.7,2.34V21h-2.82V11.9h2.71v1.25H138a2.95,2.95,0,0,1,2.67-1.47c2.87,0,3.39,1.88,3.39,4.33Z" transform="translate(-122.15)" fill="#f7f7f7"/>
</svg>
