<svg id="Group_67856" data-name="Group 67856" xmlns="http://www.w3.org/2000/svg" xmlns:xlink="http://www.w3.org/1999/xlink" width="106.824" height="27.617" viewBox="0 0 106.824 27.617">
  <defs>
    <clipPath id="clip-path">
      <rect id="Rectangle_1921" data-name="Rectangle 1921" width="106.824" height="27.617" fill="none"/>
    </clipPath>
  </defs>
  <g id="Group_67855" data-name="Group 67855" transform="translate(0)">
    <g id="Group_67854" data-name="Group 67854" clip-path="url(#clip-path)">
      <path id="Path_1613" data-name="Path 1613" d="M386.877,3.726a1.689,1.689,0,0,0,1.752,1.752.826.826,0,0,0,.244-.022,1.652,1.652,0,0,0,1.442-2,1.437,1.437,0,0,0-1.353-1.353c-.111,0-.244-.022-.355-.022a1.671,1.671,0,0,0-1.73,1.641m23.735,18.256a7.773,7.773,0,0,0,1.22-1.486,7.3,7.3,0,0,1-.843,4.082,3.226,3.226,0,0,1-.377.576c-1.331,1.775-4.192,2.484-6.7,2.462a12.667,12.667,0,0,1-3.727-.532,7.206,7.206,0,0,1-1.287-.576c-2.906-1.331-2.662-5.967-2.662-5.967s1.641,3.749,7.342,4.082a8.839,8.839,0,0,0,7.032-2.64m0-6.122a2.357,2.357,0,0,0,.466-.045c.6-.089,2.462-.843,2.307-3.7-.133-2.795-1.575-3.571-2.773-3.594h-.066a2.21,2.21,0,0,0-1.153.355,3.716,3.716,0,0,0-1.531,3.416c.022,2.618,1.553,3.416,2.551,3.571Zm0-9.738a5.718,5.718,0,0,1,5.435,4.924c.133.954.155,4.015-1.8,5.834a5.115,5.115,0,0,1-3.638,1.353H410.5a5.312,5.312,0,0,1-3.882-1.686,6.933,6.933,0,0,1-1.553-4.592,6.179,6.179,0,0,1,.887-3.128,5.028,5.028,0,0,1,4.569-2.706Zm0-6.1A1.9,1.9,0,0,0,410.966,0a5.377,5.377,0,0,1,4.88,2.817v1.93s-1.131-2.374-4.924-2.573h-.31a5.478,5.478,0,0,0-4.924,2.373V2.95c.555-1.065,1.663-2.773,4.924-2.928M381,6.544v-2.8A2.636,2.636,0,0,0,378.337,5.7v9.139a4.8,4.8,0,0,0,.71,1.841,3.381,3.381,0,0,0,2.906,1.509c2.884.089,3.372-1.331,3.106-2.906,0,0-3.194,1.775-3.971-.887V8.939h2.884s1.309-.111,1.065-2.4Zm6.211-.067v8.718s.244,2.817,2.329,2.928,2.751-.865,2.795-2.351a2.094,2.094,0,0,1-1.708-.111,1.463,1.463,0,0,1-.666-1.176V7.963s-.444-1.6-2.75-1.486m16.015,3.105a.256.256,0,0,0,.355-.177,2.63,2.63,0,0,0-2.152-3.039c-2.839-.754-6.189.288-7.342,2.684a9.121,9.121,0,0,0-.887,3.239,5.938,5.938,0,0,0,3.061,5.79,7.855,7.855,0,0,0,5.412.4s2-.821,2.018-2.307c.044-1.508.222-3.615-1.065-3.638a14.948,14.948,0,0,0-1.708,0,19.28,19.28,0,0,1,.2,2.773c-.111.333-.821,1.22-2.951.555-2.107-.643-2.4-3.327-1.885-5.035s2.662-2.4,4.015-2.285a8.371,8.371,0,0,1,2.928,1.043" transform="translate(-309.274 0.001)" fill="#193c8a" fill-rule="evenodd"/>
      <path id="Path_1614" data-name="Path 1614" d="M114.609,21.846a2.955,2.955,0,0,1-1.552.386,1.728,1.728,0,0,1-1.721-2,1.883,1.883,0,0,1,2.075-1.9h1.2Zm-1.236-9.87a8.877,8.877,0,0,0-4.03,1.059l-.337.173.8,1.793.453-.214a6.526,6.526,0,0,1,2.825-.661c1.084.045,1.527.542,1.527,1.578v.608h-1.771c-2.847,0-4.619,1.509-4.671,3.853a4.257,4.257,0,0,0,4.439,4.144,6.984,6.984,0,0,0,5.037-1.867V16.087c0-3.094-2.209-4.111-4.274-4.111m42.29,10.248V24.1a7.309,7.309,0,0,1-1.142.12c-2.387,0-3.812-1.124-3.812-3.75V9.4l3-.511V20.668c0,.91.261,1.455,1.506,1.551.17.012.451,0,.451,0m-13.145-5.591c.051-1.153.531-2.339,1.711-2.339,1.329,0,1.525,1.442,1.525,2.339Zm2.357,5.578a2.248,2.248,0,0,1-1.735-.66,4.457,4.457,0,0,1-.711-3.045h6.445v-.3c-.057-4.219-1.5-6.141-4.645-6.141-3.515,0-4.884,3.233-4.909,6.271a6.43,6.43,0,0,0,2.029,4.959,4.983,4.983,0,0,0,3.224,1.042,7.275,7.275,0,0,0,2.119-.314,8.547,8.547,0,0,0,2.247-1.093l-.843-1.735a5.782,5.782,0,0,1-3.22,1.012m-6.607.024v1.852a6.652,6.652,0,0,1-1.139.11c-2.441,0-3.9-1.179-3.9-3.671V9.4l3.065-.492v3.288h1.972v2.2h-1.972v6.261c0,.82.253,1.528,1.538,1.573.174.006.4.006.434.009m-18.383-9.559,2.99-.488V24.093h-2.99Zm1.526-5.245A1.864,1.864,0,0,1,122.766,8a1.843,1.843,0,0,1,.518,1.343,1.9,1.9,0,0,1-3.8-.012,1.916,1.916,0,0,1,1.925-1.9m11.014,4.938-.843,1.891a3.876,3.876,0,0,0-1.224-.124,3.406,3.406,0,0,0-2.044.759V24.1h-3.05l0-9.781a6.944,6.944,0,0,1,5.144-2.315,5.182,5.182,0,0,1,2.015.362" transform="translate(-88.425 -6.074)" fill="#e20010"/>
      <path id="Path_1615" data-name="Path 1615" d="M9.7,17.852v.019H9.552v.018H9.386v.019H9.237v.018h-.13v.019H9.015v.018H8.922v.019H8.829V18H8.736v.019H8.643v.018H8.551v.019H8.5v.018H8.421v.019H8.347v.018H8.273v.019H8.217v.019H8.143v.018H8.068v.019H7.994V18.2H7.939v.018H7.883v.019H7.827v.018H7.772v.019H7.716V18.3H7.66v.018H7.6v.019H7.549v.018H7.493v.019H7.438v.019H7.382v.018H7.327v.019H7.271v.019H7.215v.018H7.178v.019H7.123V18.5H7.085v.019H7.03v.018H6.993v.019H6.937v.019H6.881v.019H6.844v.018H6.789v.019H6.752v.018H6.7v.019H6.659v.018H6.6V18.7H6.566v.019H6.529v.018H6.492v.019H6.436v.018H6.4V18.8H6.362v.019H6.325v.018H6.288v.019H6.232v.019H6.2v.018H6.158v.019H6.121v.018H6.084v.019H6.028v.018H5.991v.019H5.954V19H5.917v.019H5.88v.018H5.843v.019H5.806v.018H5.769v.019H5.731v.018H5.694v.019H5.657v.019H5.62v.018H5.583v.019H5.546v.019H5.509v.018H5.472v.019H5.435v.018H5.416v.019H5.379V19.3H5.342v.018H5.3v.019H5.268v.018H5.231v.019H5.194v.018H5.175v.019H5.138v.019H5.1v.019H5.064v.018H5.045v.019H5.008V19.5H4.971v.018H4.934v.018H4.915v.019H4.878v.019H4.841V19.6H4.8v.018H4.767v.019H4.749v.019H4.711v.019H4.674v.018H4.637v.019H4.619v.019H4.581v.018H4.563v.019H4.526v.018H4.507V19.8H4.47v.019H4.433v.018H4.414v.019H4.377v.018H4.359v.019H4.322v.019H4.285v.018H4.266v.019H4.229v.018H4.211v.019H4.174V20H4.155v.018H4.118v.019H4.081v.019H4.062v.019H4.025V20.1H4.006v.018H3.969v.019H3.951v.019H3.914v.018H3.9v.018H3.877v.019H3.839v.019H3.821v.018H3.784v.019H3.765v.019H3.728V20.3H3.71v.018H3.691v.019H3.654v.018H3.636v.019H3.6v.019H3.58v.018H3.543v.018H3.524v.019H3.506v.019H3.469v.019H3.45V20.5H3.413v.018H3.394v.019H3.376v.019H3.339v.019H3.32V20.6H3.3v.019H3.264v.019H3.246v.018H3.227v.019H3.209v.018H3.172v.019H3.153v.019H3.135v.018H3.1v.018H3.079v.019H3.061V20.8H3.042v.018H3v.019H2.986v.019H2.968v.019H2.931v.018H2.912v.019H2.894v.018H2.856v.019H2.838v.019H2.819v.018H2.8V21H2.782v.019H2.764v.019H2.727v.018H2.708v.019H2.689V21.1H2.671v.019H2.652v.019H2.634v.019H2.6v.018H2.578v.019H2.56v.019H2.541v.018H2.523v.018H2.5v.019H2.467v.019H2.448V21.3H2.43v.019H2.411v.018H2.393v.019H2.374v.019H2.337v.018H2.318v.019H2.3v.019H2.281v.019H2.263v.018H2.244v.018H2.226v.019H2.207v.019H2.189v.019H2.17v.018H2.152v.018H2.133V21.6H2.114v.019H2.1v.018H2.077v.019H2.059v.018H2.04v.019H2.022v.019H2v.019H1.985v.018H1.966v.019H1.929v.019H1.911V21.8H1.892v.018H1.873v.019H1.855v.019H1.836v.018H1.818V21.9H1.8v.019H1.781v.019H1.762v.019H1.743v.037H1.725v.019H1.706v.018H1.688v.019H1.669v.018H1.651v.019H1.632V22.1H1.614v.018H1.6v.019H1.577v.018H1.558v.037H1.54v.018H1.521v.019H1.5v.018H1.484v.019H1.465v.019H1.447V22.3H1.428v.019H1.41v.019H1.391v.037H1.373V22.4H1.354v.019H1.335v.019H1.317v.018H1.3v.018H1.28v.037H1.261v.018H1.243v.019H1.224v.037H1.206V22.6H1.187v.019H1.169v.018H1.15v.037H1.131v.018H1.113v.018H1.094v.037H1.076v.018H1.057v.019H1.039V22.8H1.02v.037H1v.019H.983v.018H.965v.037H.946v.018H.927v.018H.909v.037H.89v.019H.872v.037H.853v.019H.835v.019H.816v.037H.8v.019H.779v.037H.761v.019H.742v.037H.723v.037H.7v.018H.686v.037H.668v.018H.649v.037H.631v.037H.612v.019H.594v.037H.575v.019H.557v.037H.538v.037H.519V23.6H.5v.037H.482v.019H.464v.037H.445v.037H.427v.037H.408v.037H.39v.037H.371v.037H.352v.037H.334v.037H.315v.037H.3v.056H.278v.037H.26v.037H.241v.055H.223v.037H.2v.056H.186v.056H.167v.037H.148v.074H.13v.056H.111v.056H.093v.074H.074v.093H.056v.074H.037v.13H.019v.223H0v.2H.019v.186H.037v.093H.056V25.7H.074v.074H.093v.055H.111v.055H.13v.056H.148v.037H.167v.037H.186v.037H.2v.037H.223v.037H.241v.037H.26V26.2H.278v.019H.3v.037H.315v.019H.334v.037H.352v.019H.371v.037H.39v.018H.408V26.4H.427v.019H.445v.018H.464v.018H.482v.019H.5V26.5H.519v.018H.538v.019H.557v.019H.575v.019H.594v.018H.612v.019H.631v.018H.649v.019H.668v.019H.686v.018H.7V26.7H.723v.019H.761v.019H.779v.018H.816v.019H.835v.018H.872v.019H.89v.019H.927v.019H.946v.018H.983v.019H1V26.9h.037v.018h.018v.018h.037v.019h.037v.019h.056V27h.037v.018h.037v.018h.056v.019h.037v.019h.037v.018h.074v.019h.093v.019h.093v.019h.093v.018h.464v-.018h.13v-.019h.111v-.019h.074v-.019H2.6V27.07h.056v-.019h.056v-.019h.074v-.018h.056V27h.037v-.019h.055v-.019h.037V26.94H3v-.018h.056V26.9H3.1v-.019h.037v-.019h.037v-.018h.037v-.019h.037V26.81h.037v-.019H3.32v-.018h.037v-.019h.037v-.018h.037v-.019h.037V26.7h.037v-.018h.019v-.018h.037v-.019H3.58v-.019h.037v-.018h.037v-.019h.019v-.018H3.71v-.019h.037v-.019h.019v-.019H3.8V26.5h.019v-.019h.037v-.019h.019V26.44h.037v-.018h.019V26.4h.037v-.019h.018v-.018h.037v-.018h.019v-.019h.037V26.31H4.1v-.019h.037v-.018h.019v-.019h.019v-.019h.037v-.018h.018V26.2h.019V26.18h.037v-.019H4.3v-.019H4.34v-.018h.018v-.019h.019v-.018h.037v-.019h.019V26.05h.019v-.018h.037v-.019h.019v-.018h.018v-.019h.037v-.019h.019v-.018H4.6V25.92h.037V25.9h.019v-.019h.019v-.018h.037v-.018H4.73v-.019h.019v-.019h.018V25.79H4.8v-.018h.019v-.019h.018v-.019h.037v-.018H4.9V25.7h.018v-.019h.037V25.66h.018v-.018h.019v-.019h.019V25.6h.037v-.019h.019v-.019h.018v-.018h.037v-.018h.019v-.019h.019v-.019h.037v-.019h.018v-.018h.019v-.018h.037v-.019h.019V25.4H5.3v-.019h.037v-.018h.019v-.019h.018v-.019h.037v-.018h.019v-.019h.037v-.018H5.49v-.019h.019v-.019h.037v-.018h.019V25.2H5.6v-.019H5.62V25.16h.037v-.018h.019v-.019h.037V25.1h.018v-.019h.037v-.018h.018v-.019h.019V25.03h.037v-.019h.019v-.019H5.9v-.018h.019v-.018h.037v-.019h.019v-.019H6.01V24.9h.018v-.019h.037v-.018h.019v-.019h.037v-.019H6.14v-.019h.037v-.018H6.2V24.77h.037v-.019h.019v-.018h.037v-.018h.018V24.7h.019v-.019h.037v-.018h.019V24.64h.037v-.018h.019V24.6h.037v-.019h.019v-.018h.037v-.019h.018v-.019h.037v-.018H6.6v-.019H6.64v-.018h.019v-.019H6.7v-.019h.019v-.019h.037V24.4H6.77v-.018h.037v-.019h.019v-.019h.037v-.018h.018v-.019h.037v-.018h.019v-.019h.037v-.019h.019v-.019H7.03v-.018h.019V24.2h.037v-.019H7.1v-.018h.037V24.14H7.16v-.019H7.2V24.1h.019v-.018h.037v-.018h.019v-.019h.037v-.019h.018V24.01h.037v-.018H7.4v-.019h.019v-.019h.037v-.018h.019v-.019h.037V23.9h.018V23.88h.037v-.019h.019v-.018h.037v-.019h.019v-.018h.037v-.019h.037v-.019h.018V23.75h.037v-.019H7.79v-.018h.037v-.019h.037v-.019h.019v-.018H7.92v-.019h.018V23.62h.037V23.6h.019v-.019h.037v-.018h.037v-.019h.019v-.019h.037v-.018h.037V23.49H8.18v-.019h.037v-.019h.037v-.018h.019v-.019H8.31V23.4h.037v-.019h.019v-.018H8.4v-.019H8.44v-.018h.018V23.3H8.5v-.019h.037v-.018h.018v-.018h.037v-.019h.037v-.019h.037v-.018h.018v-.019h.037v-.018h.037v-.019h.037v-.019h.019V23.1h.037v-.018h.037v-.019h.037v-.019h.037v-.018h.019v-.018h.037V22.99h.037v-.019h.037v-.019h.037v-.018h.037v-.018H9.2V22.9h.037v-.019h.037V22.86h.037v-.019h.037v-.019h.037V22.8h.037v-.018h.018v-.019H9.5v-.018h.037V22.73h.037v-.019h.037v-.018h.037v-.018H9.7v-.019h.037v-.019h.037v-.018h.037V22.6h.037v-.018H9.9v-.019h.037v-.019H10v-.019h.037v-.018h.055v-.019h.056V22.47h.037v-.018h.056v-.018h.037v-.019h.055V22.4h.074v-.018h.056v-.019h.074V22.34h.056v-.019h.074V22.3h.074v-.018h.093v-.019h.111v-.019h.093v-.018h.315V22.21h.037v.019h.167v.018H11.7v.019h.055v.019h.056V22.3h.056v.019h.037v.019h.055v.018H12v.019h.037V22.4h.018v.019h.037v.019h.037v.018h.019v.018h.037v.019H12.2v.019h.037v.018h.019v.019h.019v.019H12.3v.019h.019V22.6h.018v.019h.019v.018h.018v.019h.019v.019h.019v.018h.019v.018h.018v.037h.019v.018h.019v.019H12.5v.037h.019v.019h.018v.037h.019V22.9h.018v.037h.019v.037h.018v.019h.019v.037h.019v.037h.018V23.1h.019v.037h.019v.056h.019v.037h.018v.055h.019v.037h.018v.055H12.8v.056h.018v.074h.019v.056h.018v.074h.019v.111h.019v.093h.018v.2h.019v.464H12.91v.148h-.018v.167h-.019v.093h-.019v.093h-.018v.074h-.019v.093H12.8v.074H12.78v.074h-.018v.056h-.019v.056h-.018v.055h-.019v.074h-.019v.056h-.019v.056H12.65v.056h-.019v.037h-.019v.055h-.018v.037h-.019v.056h-.018v.037h-.019v.056H12.52v.037H12.5v.056h-.018v.037h-.019v.037h-.019v.037h-.018v.037h-.019v.056H12.39v.037h-.019v.037h-.018v.037h-.019v.037h-.018v.019H12.3v.037h-.018v.037H12.26v.037h-.019v.037h-.018v.019H12.2v.037h-.018v.037h-.019v.019h-.018v.037h-.019v.037h-.019v.019h-.019v.037h-.018V26.9h-.019v.018h-.018v.037h-.019v.019H12v.037h-.018v.018h-.019v.037h-.018v.018h-.019v.037h-.018v.019h-.019v.037h-.018V27.2h-.019v.037h-.019v.018h-.019v.018H11.8v.037h-.019v.018H11.76v.019h-.018v.037h-.019V27.4H11.7v.019h-.019v.037h-.018v.019h-.019v.037H11.63v.019h-.019v.019h-.019v.018h-.018v.037h-.019v.019h-.019v.019h-.019v.018H11.5V27.7h-.019v.018h-.018v.019h-.019v.018h-.018v.037h-.019v.019h-.019v.018H11.37v.018h-.019v.019h-.018V27.9h-.019v.019H11.3v.018h-.019v.019h-.019v.019H11.24v.037h-.018v.019H11.2v.019h-.019v.018h-.018v.018h-.019v.019h-.018v.019H11.11v.018h-.018v.037h-.019V28.2h-.018v.018h-.019v.019h-.018v.019H11v.019h-.019v.018h-.019v.019h-.018v.018h-.019v.037h-.019v.018h-.018v.018h-.019v.019h-.018v.019h-.019v.019h-.018v.018H10.8V28.5h-.019v.018h-.018v.019h-.019v.019h-.018v.018H10.7v.019h-.019v.019h-.019v.018h-.018v.019h-.019v.018H10.61v.019h-.019V28.7h-.018v.018h-.019v.018h-.019v.019h-.018v.019H10.5V28.8H10.48v.019h-.019v.019h-.018v.019h-.019v.018h-.019v.019h-.019v.018h-.018v.019H10.35v.019h-.019v.018h-.018v.018h-.019V29h-.018v.019h-.019v.018h-.018v.019H10.22v.018H10.2v.019h-.019v.019h-.019v.019h-.018v.018h-.037v.019H10.09v.019h-.018V29.2h-.019v.018h-.018v.019h-.019v.019H10v.019H9.979V29.3H9.961v.018H9.942v.019H9.9v.019H9.886v.018H9.868v.019H9.849v.019H9.831v.019H9.812v.018H9.794v.019H9.775v.018H9.738V29.5H9.719v.019H9.7v.018H9.682v.018H9.664v.019H9.645v.019H9.627v.018H9.59v.019H9.571v.018H9.552v.019H9.534v.019H9.515V29.7H9.478v.018H9.46v.019H9.441v.019H9.423v.018H9.4V29.8H9.367v.019H9.348v.019H9.33v.018H9.311v.018H9.293v.019H9.256v.019H9.237v.019H9.218v.018H9.2v.019H9.163v.019H9.144V30H9.126v.019H9.107v.018H9.07v.019H9.052v.019H9.033v.018H9.015v.019H8.977v.018H8.959v.019H8.94v.019H8.922v.018H8.885V30.2H8.866v.018H8.848v.019H8.811v.019H8.792v.018H8.773V30.3H8.736v.019H8.718v.019H8.7v.018H8.662v.018H8.643v.019H8.625v.019H8.588v.018H8.569v.018H8.551v.019H8.514v.019H8.5V30.5H8.477v.019H8.44v.019H8.421v.019H8.384v.018H8.365v.019H8.347v.018H8.31v.019H8.291v.019H8.254v.018H8.235v.018H8.2v.019H8.18v.019H8.161v.019H8.124v.018H8.106v.019H8.068V30.8H8.05v.019H8.013v.019H7.994v.018H7.957v.019H7.939v.019H7.9v.018H7.883v.019H7.846v.018H7.827v.019H7.79v.019H7.772V31H7.735v.018H7.7v.019H7.679v.019H7.642v.018H7.623V31.1H7.586v.019H7.549v.019H7.531v.018H7.493v.019H7.475v.018H7.438v.019H7.4v.019H7.364v.018H7.345v.018H7.308v.019H7.271V31.3H7.252v.018H7.215v.019H7.178v.018H7.141v.019H7.123v.019H7.085v.019H7.048v.018H7.011v.019H6.974v.019H6.937v.018H6.918V31.5H6.881v.019H6.844v.019H6.807v.018H6.77v.019H6.733V31.6H6.7v.019H6.659v.019H6.622v.018H6.566v.019H6.529v.019H6.492v.019H6.455v.018H6.418v.018H6.362v.019H6.325v.019H6.269V31.8H6.232v.018H6.177v.018H6.121v.019H6.084v.019H6.01v.018H5.954v.019H5.9v.018H5.824v.019H5.731v.019H5.6v.019H5.416v-.019H5.342v-.019H5.286V31.93H5.249v-.018H5.212v-.019H5.194v-.018H5.175v-.019H5.157v-.019H5.138V31.8H5.119v-.037H5.1v-.037H5.082V31.67H5.064v-.185h.018v-.093H5.1v-.056h.018v-.056h.019v-.037h.019v-.037h.018v-.037h.019v-.037h.018V31.1h.019v-.037h.018v-.019h.019V31h.019v-.037H5.3v-.019h.018V30.91h.019v-.018h.019v-.037h.018v-.018H5.4V30.8h.018V30.78h.019v-.019h.018v-.037h.019v-.019H5.49v-.019h.019V30.65h.019v-.019h.018v-.019h.019v-.037h.019v-.018H5.6v-.019H5.62V30.52h.019V30.5h.018v-.037h.019v-.019h.018v-.018h.019v-.018h.018V30.39H5.75v-.019h.019v-.037h.018v-.019h.019V30.3h.018v-.019h.019v-.018h.019v-.019H5.88v-.019H5.9V30.2h.019v-.019h.018v-.018h.019v-.037h.019v-.018h.018v-.019H6.01v-.018h.018v-.019h.019v-.019h.018v-.018h.019V30H6.1v-.018h.019v-.019H6.14v-.019h.019v-.018h.018v-.019H6.2v-.019h.019v-.019h.018v-.018h.019v-.018h.018v-.019h.019V29.8h.018v-.018h.019V29.76h.018v-.019h.019v-.019h.019V29.7H6.4v-.019h.019v-.019h.019v-.019h.019V29.63h.018v-.019h.019v-.018H6.51v-.019h.019v-.019h.018v-.018h.019v-.018h.018V29.5H6.6v-.019h.019v-.018H6.64v-.019h.019v-.018h.018v-.019H6.7v-.019h.019V29.37h.019v-.018h.018v-.019H6.77v-.019h.018V29.3h.019v-.018h.019v-.019h.018V29.24h.019v-.019h.018V29.2H6.9v-.018h.018v-.019h.019v-.019h.037v-.018h.019v-.037h.019v-.019H7.03v-.018h.019v-.019h.019v-.018h.018V29H7.1v-.019h.018v-.018h.019v-.018H7.16v-.019h.019v-.019H7.2v-.037h.019v-.018h.019v-.019h.018v-.019h.019V28.8H7.29v-.018h.019v-.037h.018v-.018h.019V28.7h.018v-.037h.019v-.018H7.4v-.019h.019V28.61h.019v-.037h.018v-.018h.019v-.037h.018V28.5h.019v-.037h.018v-.037h.019v-.019h.019v-.037h.019v-.037H7.6v-.018h.019v-.056h.019V28.2H7.66v-.056h.019v-.037H7.7v-.278H7.679v-.074H7.66V27.7H7.642v-.019H7.623v-.037H7.6v-.019H7.586V27.59H7.568v-.019H7.549v-.018H7.531v-.019H7.512v-.019H7.493V27.5H7.475v-.018H7.456V27.46H7.438v-.019H7.4v-.018H7.382V27.4H7.345v-.019H7.327v-.019H7.29v-.018H7.252V27.33H7.215v-.018H7.178v-.019H7.123v-.019H7.067v-.018H7.03v-.018H6.974v-.019H6.881V27.2H6.807v-.018H6.7v-.019H6.529v-.018H6.51v.018H6.177v.019H6.065V27.2H5.973v.019H5.917v.019H5.861v.018H5.787v.018H5.731v.019H5.694v.019H5.657v.018H5.62v.019H5.564v.018H5.527v.019H5.49V27.4H5.453v.019H5.416v.018H5.4v.019H5.361v.019H5.342V27.5H5.3v.018H5.286v.019H5.249v.019H5.231v.018H5.212v.019H5.175v.018H5.157v.019H5.119v.019H5.1v.018H5.082v.019H5.064V27.7H5.045v.018H5.027v.019H4.989v.018H4.971v.019H4.952v.019H4.934v.019H4.915v.018H4.9v.018H4.878v.019H4.86v.019H4.841V27.9H4.823v.019H4.8v.018H4.786v.019H4.767v.019H4.749V28H4.73v.018H4.711v.037H4.693v.018H4.674v.018H4.656v.019H4.637v.019H4.619v.037H4.6v.019H4.581V28.2H4.563v.018H4.544v.019H4.526v.019H4.507v.037H4.489v.019H4.47v.037H4.452v.019H4.433v.037H4.414v.019H4.4v.037H4.377v.018H4.359v.037H4.34v.019H4.322v.037H4.3v.019H4.285v.037H4.266v.019H4.248v.037H4.229V28.7H4.211v.037H4.192v.037H4.174v.037H4.155v.037H4.136v.037H4.118v.037H4.1v.037H4.081v.018H4.062v.037H4.044v.037H4.025v.037H4.006v.037H3.988v.037H3.969V29.2H3.951v.037H3.932v.037H3.914v.037H3.9v.056H3.877v.037H3.858v.037H3.839V29.5H3.821v.037H3.8v.037H3.784v.056H3.765v.037H3.747V29.7H3.728v.056H3.71V29.8H3.691v.056H3.673v.056H3.654v.056H3.636v.056H3.617v.074H3.6v.056H3.58V30.2H3.561v.074H3.543v.13H3.524v.13H3.506v.148H3.487v.019h.018v.371h.019v.074h.018v.074h.019v.093H3.58v.074H3.6v.037h.018v.037h.019v.055h.018v.037h.019V31.6h.019v.037H3.71v.037h.019v.037h.018v.018h.019v.037h.018v.019H3.8v.037h.019v.018h.018v.019h.019v.037h.019v.019H3.9v.018h.019v.037h.037v.019h.019V32h.018v.019h.019v.019h.018v.018h.019v.018h.018V32.1h.019v.019H4.1v.018h.018v.018h.019v.019h.037v.019h.018v.019h.037v.018h.019v.019h.037v.019H4.3v.018H4.34V32.3h.018v.018H4.4v.019h.037v.019H4.47v.018h.037v.019h.055v.018h.056v.019h.056v.019h.093v.018h.111v.019h.186V32.5h.3v-.018h.223v-.019h.13v-.018h.111v-.019h.093v-.019H6.01v-.018h.074v-.019h.074v-.018h.074v-.019h.056v-.019h.055V32.3h.074v-.019h.056v-.018h.056v-.019h.055v-.019H6.64v-.018h.037v-.019h.056v-.019h.055v-.019h.037v-.018h.055v-.018h.037V32.1h.056v-.019h.037V32.06h.056v-.018H7.1v-.019h.037V32h.037v-.018h.056v-.019h.037v-.019h.037V31.93h.037v-.018h.037v-.019h.037v-.018h.037v-.019h.056v-.019h.037v-.018h.037V31.8h.037v-.019H7.66v-.019h.019v-.019h.037v-.018h.037v-.018H7.79v-.019h.037V31.67h.037v-.019H7.9v-.018h.037v-.019h.019V31.6h.037v-.018h.037v-.019h.037V31.54h.037v-.019h.019V31.5h.037v-.018H8.2v-.018h.037v-.019h.018v-.019h.037v-.018h.037v-.019h.018v-.019h.037v-.019h.037v-.018H8.44v-.019h.037V31.3h.037v-.019h.019v-.019h.037v-.018h.018v-.018h.037v-.019h.037v-.019h.018v-.018h.037v-.019h.019v-.018h.037v-.019h.037V31.1h.018v-.019h.037v-.018h.019v-.019h.037v-.019H8.94V31h.037v-.018H9v-.019h.037v-.019h.019v-.018h.037V30.91h.019v-.018h.037v-.019h.018v-.019H9.2v-.018h.019v-.019h.018V30.8h.037V30.78h.019v-.019H9.33v-.018h.019v-.019h.037v-.019H9.4v-.019h.037v-.018H9.46V30.65h.018v-.019h.037v-.019h.018v-.018h.019v-.019H9.59v-.018h.018v-.019h.037V30.52h.019V30.5h.018v-.018h.037v-.019h.019v-.019h.019v-.018h.037v-.018h.018V30.39h.037v-.019h.019v-.018h.018v-.018h.037v-.019h.019V30.3h.019v-.019H10v-.018h.018v-.019h.019v-.019h.018V30.2h.037v-.019h.019v-.018h.019v-.019h.037v-.019h.019v-.018H10.2v-.019h.037v-.018h.018v-.019h.019v-.019h.018v-.018h.037V30h.019v-.018h.019v-.019h.037v-.019h.019v-.018h.019v-.019h.018v-.019H10.5v-.019h.019v-.018h.018v-.018h.019v-.019h.037V29.8h.019v-.018h.018V29.76h.019v-.019h.037v-.019H10.7V29.7h.019v-.019h.018v-.019h.019v-.019H10.8V29.63h.019v-.019h.018v-.018h.019v-.019h.037v-.019h.018v-.018h.019v-.018h.019V29.5h.018v-.019H11v-.018h.019v-.019h.018v-.018h.019v-.019h.018v-.019h.037V29.37h.019v-.018h.018v-.019h.019v-.019h.018V29.3H11.2v-.018h.037v-.019h.019V29.24h.019v-.019H11.3V29.2h.018v-.018h.019v-.019h.037v-.019h.018v-.018h.019V29.11h.019v-.019h.018v-.019h.019v-.018h.018v-.019h.037v-.018h.019V29h.019v-.019h.019v-.018h.018v-.018h.019v-.019h.019v-.019h.018v-.018h.019v-.019H11.7v-.018h.018v-.019h.019v-.019h.018V28.8h.019v-.018H11.8v-.019h.018v-.019h.019v-.018h.019V28.7h.019v-.019h.018v-.019h.019v-.018h.018v-.019h.019V28.61h.018v-.019h.019v-.019H12v-.018h.019v-.019h.019v-.019h.018V28.5h.019V28.48h.018v-.018h.019v-.019h.019v-.019h.019v-.019h.018v-.018h.019v-.018H12.2V28.35h.019v-.019h.018v-.018h.019v-.019h.019v-.018H12.3v-.019h.019v-.019h.018V28.22h.019V28.2h.018v-.037h.019v-.018h.019v-.018h.019v-.019h.018V28.09h.019v-.018h.019v-.018H12.5v-.019h.019v-.019h.018V28h.019V27.96h.018v-.019h.019v-.018h.018V27.9h.019v-.018h.019v-.019h.018v-.037h.019v-.018h.019v-.019h.019v-.019h.018v-.019h.019v-.018h.018V27.7H12.8v-.019h.018v-.019h.019v-.018h.018v-.019h.019V27.59h.019v-.019h.018v-.018h.019v-.037h.018V27.5h.019v-.018h.019V27.46H13v-.037h.018V27.4h.019v-.019h.018v-.019h.019V27.33H13.1v-.018h.018v-.019h.019v-.037h.018v-.018h.019v-.019h.018v-.037h.019v-.019h.018v-.018h.019v-.037h.019v-.019h.019v-.037H13.3v-.019h.019v-.018h.019v-.037h.018v-.019h.019v-.037h.018V26.9h.019v-.019h.018v-.037h.019v-.019h.018v-.037h.019v-.018H13.5v-.037h.018v-.019h.019v-.037h.019v-.018h.019v-.037H13.6v-.018h.019v-.037h.018v-.019h.019v-.037h.018v-.037h.019v-.019h.018v-.037h.019V26.4h.019v-.037h.018v-.037h.019V26.31H13.8v-.037h.019v-.037h.019v-.018h.019V26.18h.018v-.037h.019v-.018h.018v-.037h.019V26.05h.019v-.037h.018v-.018h.019v-.037H14V25.92h.019v-.037h.018v-.037h.019v-.037h.019v-.037H14.1v-.019h.019v-.037h.019v-.037h.018v-.037h.019V25.6h.019v-.037h.018v-.037h.019v-.037h.018v-.037h.019v-.037h.018v-.056H14.3v-.037h.018v-.037h.019v-.037h.019v-.037h.018v-.037h.019v-.037h.019v-.056h.019v-.037h.018v-.056h.019v-.037h.018V24.9H14.5v-.037h.018v-.056h.019V24.77h.019v-.055h.018v-.037H14.6v-.056h.018v-.056h.019v-.056h.018v-.056h.019V24.4h.019v-.056h.019v-.055h.018v-.056h.019v-.056h.019V24.1h.018v-.074H14.8v-.056h.018V23.9h.019v-.074h.018V23.75h.019v-.093h.018v-.093h.019v-.093h.019v-.093h.018v-.111h.019v-.148h.019v-.148h.019V22.73h.018v-.575h-.018V21.8h-.019v-.148h-.019v-.111H14.95v-.111h-.018V21.32h-.019v-.111h-.019v-.093h-.018V21.06h-.019V21h-.018v-.074H14.82v-.055H14.8v-.056h-.019v-.074h-.018V20.69h-.019v-.056h-.019v-.056h-.018v-.037H14.69V20.5h-.019v-.056h-.019v-.037h-.018v-.037h-.019v-.037H14.6v-.056h-.019v-.037H14.56v-.037h-.019V20.17h-.019v-.037H14.5V20.1h-.019v-.037h-.018V20.04h-.019V20h-.018v-.019h-.019v-.037h-.019v-.037h-.019v-.019h-.018v-.037h-.019v-.037h-.019V19.8H14.3v-.037h-.019v-.019h-.018v-.037h-.019v-.019h-.018v-.018h-.019v-.037H14.19v-.019h-.019V19.6h-.019v-.018h-.018V19.54h-.019v-.018H14.1V19.5h-.018v-.019H14.06v-.037h-.019v-.019h-.018V19.41H14v-.019h-.018v-.018h-.019v-.037h-.018v-.019H13.93V19.3h-.019V19.28h-.018v-.019h-.019v-.018h-.018v-.019h-.037v-.018H13.8v-.019h-.018v-.019h-.019V19.15h-.018v-.019h-.019v-.019h-.019v-.018h-.018v-.019H13.67v-.018h-.018v-.019h-.019V19.02h-.018V19H13.6v-.019h-.037v-.019H13.54v-.018h-.019v-.019h-.037v-.018h-.019V18.89h-.018v-.018H13.41v-.019h-.019v-.019h-.018v-.018h-.037V18.8h-.019v-.019H13.3v-.018h-.018v-.019h-.037v-.018h-.037V18.7h-.019v-.019h-.037v-.018h-.037v-.019H13.1v-.018h-.037v-.019H13.04v-.018H13v-.019h-.037v-.019h-.019v-.019H12.91v-.018h-.037V18.5h-.037v-.018H12.8v-.019h-.037v-.018h-.037v-.019h-.037v-.019H12.65V18.39h-.037v-.019h-.037v-.019h-.037v-.018H12.5v-.019h-.056V18.3h-.037v-.019h-.056V18.26h-.037v-.018H12.26v-.019H12.2V18.2h-.037v-.019h-.056v-.019h-.056v-.018H12V18.13h-.055v-.019h-.074v-.018h-.056v-.019H11.76v-.018h-.074v-.019h-.074v-.018h-.074V18h-.093v-.019H11.37v-.019h-.093v-.018h-.111v-.019h-.111v-.018h-.111v-.019h-.167V17.87H10.61v-.019Z" transform="translate(0 -14.593)" fill="#e20010"/>
      <path id="Path_1616" data-name="Path 1616" d="M26.936,91.326h.019v-.038h-.019Zm-.019.038h.019v-.038h-.019ZM26.9,91.4h.019v-.038H26.9Zm-.019.057H26.9v-.038h-.019Zm-.019.057h.019v-.038H26.86Zm-.019.1h.019v-.038h-.019Z" transform="translate(-21.941 -74.624)" fill="#d10010"/>
      <rect id="Rectangle_1919" data-name="Rectangle 1919" width="0.019" height="0.038" transform="translate(5.014 16.626)" fill="#d10010"/>
      <rect id="Rectangle_1920" data-name="Rectangle 1920" width="0.019" height="0.038" transform="translate(5.148 16.378)" fill="#d10010"/>
      <path id="Path_1617" data-name="Path 1617" d="M27.6,89.824v.019h-.019v.019h-.019V89.9h-.019v.038h-.019v.019h-.019V90h-.019v.038h-.019v.038h.019v-.019h.019v-.038h.019v-.038h.019v-.019h.019V89.92h.019v-.038H27.6v-.019h.019v-.038Z" transform="translate(-22.453 -73.427)" fill="#d10010"/>
      <path id="Path_1618" data-name="Path 1618" d="M27.364,91.184v.038h.019V91.2H27.4v-.019Z" transform="translate(-22.368 -74.538)" fill="#d10010"/>
    </g>
  </g>
</svg>
