<svg xmlns="http://www.w3.org/2000/svg" xmlns:xlink="http://www.w3.org/1999/xlink" width="62.917" height="59.433" viewBox="0 0 62.917 59.433">
  <defs>
    <clipPath id="clip-path">
      <rect id="Rectangle_2086" data-name="Rectangle 2086" width="62.917" height="59.433" fill="none"/>
    </clipPath>
  </defs>
  <g id="at_logo" data-name="at logo" transform="translate(0 0)">
    <g id="Group_68140" data-name="Group 68140" transform="translate(0 0)" clip-path="url(#clip-path)">
      <path id="Path_2376" data-name="Path 2376" d="M15.443,11.529V.01A10.843,10.843,0,0,0,4.493,8.06v37.58a19.765,19.765,0,0,0,2.915,7.575,13.9,13.9,0,0,0,11.955,6.2c11.862.366,13.865-5.471,12.774-11.947,0,0-13.14,7.295-16.335-3.647V21.38H27.663s5.385-.46,4.38-9.874Z" transform="translate(30.523 -0.004)" fill="#193c8a" fill-rule="evenodd"/>
      <path id="Path_2377" data-name="Path 2377" d="M19.242,1.739A32.8,32.8,0,0,0,4.357,5.659L3.1,6.283,6.056,12.93l1.66-.811A24.425,24.425,0,0,1,18.174,9.681c3.982.187,5.611,2,5.611,5.837V17.77H17.247C6.757,17.77.187,23.35,0,31.993a15.751,15.751,0,0,0,16.14,15.33.593.593,0,0,0,.257-.039A25.744,25.744,0,0,0,35.016,40.41V16.921c0-11.41-8.129-15.182-15.774-15.182M23.786,38.2a11.091,11.091,0,0,1-5.728,1.442,6.343,6.343,0,0,1-6.422-6.352,5.154,5.154,0,0,1,.07-1.037A6.916,6.916,0,0,1,18.541,25.2a5.381,5.381,0,0,1,.811.039h4.434Z" transform="translate(0 11.812)" fill="#e20010"/>
    </g>
  </g>
</svg>
