<svg width="80" height="50" viewBox="0 0 80 50" fill="none" xmlns="http://www.w3.org/2000/svg">
<path d="M80 24.7211C80 38.3863 68.9442 49.4421 55.279 49.4421C49.5108 49.4421 44.2232 47.4507 40.0344 44.1545C45.8026 39.6224 49.4421 32.618 49.4421 24.7211C49.4421 16.8241 45.734 9.81977 40.0344 5.28758C44.2232 1.99144 49.5108 1.52588e-05 55.279 1.52588e-05C68.9442 1.52588e-05 80 11.1245 80 24.7211Z" fill="#F79E1B"/>
<path d="M40.0344 5.28758C40.0344 5.28758 40.0344 5.28758 40.0344 5.28758C45.734 9.81977 49.4421 16.8241 49.4421 24.7211C49.4421 32.618 45.8026 39.6224 40.0344 44.1545L39.9654 44.1545C34.266 39.691 30.5579 32.6181 30.5579 24.7212C30.5579 16.8242 34.2661 9.81991 39.9656 5.28772C39.9656 5.28767 39.9657 5.28777 39.9656 5.28772L40.0344 5.28758Z" fill="#FF5F00"/>
<path d="M30.5579 24.7212C30.5579 16.8242 34.2661 9.81991 39.9656 5.28772C35.7768 1.99158 30.4893 0.00012207 24.721 0.00012207C11.0558 0.00012207 0 11.0559 0 24.7212C0 38.3864 11.0558 49.4422 24.721 49.4422C30.4893 49.4422 35.7766 47.4507 39.9654 44.1545C34.266 39.691 30.5579 32.6181 30.5579 24.7212Z" fill="#EB001B"/>
</svg>
