<svg xmlns="http://www.w3.org/2000/svg" xmlns:xlink="http://www.w3.org/1999/xlink" width="123" height="124" viewBox="0 0 123 124">
  <defs>
    <clipPath id="clip-path">
      <rect id="Rectangle_2010" data-name="Rectangle 2010" width="97.146" height="31.374" fill="none"/>
    </clipPath>
  </defs>
  <g id="Group_68043" data-name="Group 68043" transform="translate(-1089 -2608)">
    <g id="Group_67980" data-name="Group 67980" transform="translate(1089.4 2607.816)">
      <g id="Rectangle_1512" data-name="Rectangle 1512" transform="translate(-0.4 0.183)" fill="#fff" stroke="#008999" stroke-width="1">
        <rect width="123" height="124" rx="15" stroke="none"/>
        <rect x="0.5" y="0.5" width="122" height="123" rx="14.5" fill="none"/>
      </g>
    </g>
    <g id="Group_68042" data-name="Group 68042" transform="translate(1101.927 2657.813)">
      <g id="Group_68041" data-name="Group 68041" clip-path="url(#clip-path)">
        <path id="Path_1956" data-name="Path 1956" d="M36.884.554,24.166,30.9h-8.3L9.609,6.683A3.325,3.325,0,0,0,7.744,4.016,32.864,32.864,0,0,0,0,1.436L.186.554H13.543a3.658,3.658,0,0,1,3.62,3.094l3.306,17.559L28.638.554ZM69.4,20.992c.033-8.009-11.075-8.45-11-12.028.024-1.089,1.061-2.246,3.33-2.542A14.807,14.807,0,0,1,69.468,7.78l1.379-6.435A21.1,21.1,0,0,0,63.5,0C55.745,0,50.284,4.125,50.238,10.031c-.05,4.369,3.9,6.806,6.871,8.258,3.06,1.487,4.086,2.442,4.075,3.772-.022,2.036-2.44,2.934-4.7,2.97a16.447,16.447,0,0,1-8.06-1.916L47,29.762a23.8,23.8,0,0,0,8.73,1.612c8.247,0,13.641-4.073,13.667-10.382M89.886,30.9h7.26L90.809.554h-6.7a3.572,3.572,0,0,0-3.341,2.226L68.988,30.9H77.23l1.637-4.533H88.938ZM81.127,20.147,85.259,8.754l2.378,11.394ZM48.1.554,41.61,30.9H33.76L40.253.554Z" fill="#1434cb"/>
      </g>
    </g>
  </g>
</svg>
