<svg xmlns="http://www.w3.org/2000/svg" width="65.178" height="65.178" viewBox="0 0 65.178 65.178">
  <g id="Group_67853" data-name="Group 67853" transform="translate(0 0)">
    <g id="Group_54" data-name="Group 54">
      <path id="Path_1421" data-name="Path 1421" d="M49.87,24.935A32.589,32.589,0,1,1,17.281-7.654,32.59,32.59,0,0,1,49.87,24.935" transform="translate(15.308 7.654)" fill="#ed3023"/>
    </g>
    <g id="Group_55" data-name="Group 55" transform="translate(14.536 2.863)">
      <path id="Path_1422" data-name="Path 1422" d="M14.018,36.641c-8.954.03-18.274-7.6-18.321-19.88C-4.316,8.642.066.838,5.647-3.8a32.626,32.626,0,0,1,19.722-7.443,8.1,8.1,0,0,1,2.35.255,13.543,13.543,0,0,0-10.627,13,2.539,2.539,0,0,0,.03.536c9.933,2.414,14.43,8.4,14.459,16.7A17.434,17.434,0,0,1,14.1,36.641h-.081" transform="translate(4.303 11.247)" fill="#fff"/>
    </g>
  </g>
</svg>
