<svg id="Group_68137" data-name="Group 68137" xmlns="http://www.w3.org/2000/svg" xmlns:xlink="http://www.w3.org/1999/xlink" width="57.078" height="57.236" viewBox="0 0 57.078 57.236">
  <defs>
    <clipPath id="clip-path">
      <rect id="Rectangle_2084" data-name="Rectangle 2084" width="57.078" height="57.236" fill="#fff"/>
    </clipPath>
  </defs>
  <g id="Group_68136" data-name="Group 68136" clip-path="url(#clip-path)">
    <path id="Path_2367" data-name="Path 2367" d="M105.981,318.3a1.851,1.851,0,0,1-.956-2.612c.3-.918.605-1.836.918-2.751a1.743,1.743,0,0,1,1.9-1.378c.632,0,1.267-.036,1.9.01.559.04.694-.181.678-.7-.034-1.133.007-2.269-.018-3.4-.01-.466.157-.6.612-.6q6.7.019,13.392,0c.455,0,.624.137.613.6-.026,1.115-.008,2.232-.008,3.348,0,.746,0,.746.722.748.669,0,1.339,0,2.009,0a1.614,1.614,0,0,1,1.633,1.118c.414,1.135.8,2.281,1.15,3.437.277.917-.085,1.587-1.085,2.185Z" transform="translate(-89.182 -261.061)" fill="#fff"/>
    <path id="Path_2368" data-name="Path 2368" d="M28.54,31.359H.838c-.819,0-.821,0-.821-.827q0-12.65,0-25.3A5.009,5.009,0,0,1,5.255,0q23.29,0,46.58,0a5.006,5.006,0,0,1,5.232,5.234q.005,12.65,0,25.3c0,.821,0,.822-.826.822H28.54M10.859,6.782c-.726,0-1.452-.007-2.177,0A1.722,1.722,0,0,0,6.809,8.437a1.72,1.72,0,0,0,1.855,1.615c.912.01,1.825.029,2.735-.008.5-.02.674.168.767.64.795,4.049,1.614,8.094,2.425,12.14.252,1.258.576,1.573,1.868,1.747.28.037.4.141.392.417-.007.391-.009.782.005,1.172a1.637,1.637,0,1,0,3.265.009c.014-.372.014-.745,0-1.116-.01-.32.1-.478.448-.477q2.931.011,5.862,0c.374,0,.488.164.475.508-.015.371-.014.745,0,1.116a1.634,1.634,0,1,0,3.263-.013c.015-.334.019-.671,0-1-.021-.394.068-.593.538-.627a1.637,1.637,0,0,0,1.7-1.533q1-5,2-10.006a5.786,5.786,0,0,0,.2-1.317c-.039-.987-.779-1.563-1.933-1.563-5.173,0-10.347,0-15.52-.008-.588,0-1.3.244-1.733-.126-.409-.348-.314-1.074-.433-1.635a1.739,1.739,0,0,0-1.9-1.581c-.744-.014-1.489,0-2.233,0M44.2,9.018c-1.452,0-2.9-.015-4.355.005a1.692,1.692,0,0,0-1.754,1.6,1.67,1.67,0,0,0,1.7,1.654q4.41.034,8.821,0A1.588,1.588,0,0,0,50.157,11.2,1.63,1.63,0,0,0,48.5,9.023C47.064,9,45.63,9.018,44.2,9.018m-.043,9.971c1.47,0,2.941.02,4.411-.007a1.627,1.627,0,1,0,.027-3.251q-4.411-.035-8.821,0A1.6,1.6,0,0,0,38.21,16.8a1.629,1.629,0,0,0,1.645,2.185c1.433.025,2.866.006,4.3,0m.029,6.7c1.414,0,2.829.009,4.243,0a1.645,1.645,0,1,0,.026-3.268c-.149,0-.3,0-.447,0H41.361c-.54,0-1.081-.021-1.619.01a1.628,1.628,0,1,0-.026,3.255c.166.014.335.007.5.007h3.964" transform="translate(-0.014 0)" fill="#fff"/>
    <path id="Path_2369" data-name="Path 2369" d="M28.528,232.032h27.7c.823,0,.839,0,.821.823a16.492,16.492,0,0,1-.086,3.008,5,5,0,0,1-4.979,4.065q-23.457.006-46.913,0A5,5,0,0,1,0,234.866c0-.782.01-1.564,0-2.346-.007-.359.134-.515.492-.49.185.013.372,0,.558,0H28.528" transform="translate(0 -197.4)" fill="#fff"/>
    <path id="Path_2370" data-name="Path 2370" d="M115.089,89.778q3.405,0,6.81,0c.666,0,.683.015.556.657-.443,2.243-.9,4.483-1.339,6.727a.55.55,0,0,1-.638.52q-5.415-.018-10.83,0a.551.551,0,0,1-.64-.519q-.663-3.393-1.355-6.78c-.1-.473.026-.619.514-.614,2.307.02,4.615.009,6.922.009" transform="translate(-91.56 -76.372)" fill="#fff"/>
  </g>
</svg>
