<svg xmlns="http://www.w3.org/2000/svg" width="723.773" height="497.579" viewBox="0 0 723.773 497.579">
  <g id="Group_121" data-name="Group 121" transform="translate(-866.001 -3013.5)">
    <path id="Path_1369" data-name="Path 1369" d="M302.218,0,196.5,394.318H0L86.947,70.162A94.78,94.78,0,0,1,178.386,0Z" transform="translate(866.652 3014)" fill="none" stroke="#fff" stroke-width="1"/>
    <path id="Path_1370" data-name="Path 1370" d="M286.976,13.89l-25.4,94.9-25.473,94.9H39.68L90.553,13.89Z" transform="translate(1119.104 3102.371)" fill="none" stroke="#fff" stroke-width="1"/>
    <path id="Path_1371" data-name="Path 1371" d="M279.6,41.67,247.574,161.305a94.78,94.78,0,0,1-91.438,70.162H32.23L83.176,41.67Z" transform="translate(1071.706 3279.112)" fill="none" stroke="#fff" stroke-width="1"/>
    <path id="Path_1372" data-name="Path 1372" d="M283.858,133.084l-18.994,70.6H68.44l25.4-94.9,25.473-94.9h73.107a94.749,94.749,0,0,1,91.438,119.194" transform="translate(1302.08 3102.371)" fill="none" stroke="#fff" stroke-width="1"/>
  </g>
</svg>
