<svg id="Group_68139" data-name="Group 68139" xmlns="http://www.w3.org/2000/svg" xmlns:xlink="http://www.w3.org/1999/xlink" width="55.964" height="58.598" viewBox="0 0 55.964 58.598">
  <defs>
    <clipPath id="clip-path">
      <rect id="Rectangle_2085" data-name="Rectangle 2085" width="55.964" height="58.598" fill="#fff"/>
    </clipPath>
  </defs>
  <g id="Group_68138" data-name="Group 68138" clip-path="url(#clip-path)">
    <path id="Path_2371" data-name="Path 2371" d="M38.039,17.52a6.854,6.854,0,0,0-5-3.7c-.408-.078-.53-.2-.522-.607A17.749,17.749,0,0,0,32.306,9.5,11.718,11.718,0,0,0,9.563,8.387a15.889,15.889,0,0,0-.476,4.832c.007.3.023.511-.4.584a7.133,7.133,0,0,0-5.942,6.638c-.357,4.051-.754,8.1-1.137,12.146C1.084,38.133.525,43.676.035,49.225a8.553,8.553,0,0,0,8.591,9.368c2.056.01,4.11,0,6.165,0,2.258,0,4.517.011,6.775,0A1.94,1.94,0,0,0,23.5,56.2a1.993,1.993,0,0,0-2.087-1.511c-4.292,0-8.585.011-12.878-.008a4.654,4.654,0,0,1-4.612-5.1c.127-1.437.268-2.875.4-4.312q.573-6.074,1.147-12.144c.387-4.069.8-8.134,1.165-12.2A3.292,3.292,0,0,1,10.2,17.585c7,0,14,.015,21-.013a3.594,3.594,0,0,1,3.483,1.879,1.941,1.941,0,0,0,3.364-1.932M28.49,13.576c-.359.328-1.235.1-1.881.1-1.953,0-3.9,0-5.857,0-2.419,0-4.839-.007-7.258.008-.378,0-.525-.067-.514-.488a14,14,0,0,1,.307-3.63A7.812,7.812,0,0,1,28.61,11.653c0,.662.292,1.548-.119,1.923" transform="translate(0 0)" fill="#fff"/>
    <path id="Path_2372" data-name="Path 2372" d="M145.148,143.679a17.577,17.577,0,1,0,17.544,17.61,17.606,17.606,0,0,0-17.544-17.61m-.02,31.247a13.671,13.671,0,1,1,13.657-13.671,13.694,13.694,0,0,1-13.657,13.671" transform="translate(-106.728 -120.239)" fill="#fff"/>
    <path id="Path_2373" data-name="Path 2373" d="M163.442,121.667a1.951,1.951,0,1,1,1.906,1.966,1.95,1.95,0,0,1-1.906-1.966" transform="translate(-136.778 -100.197)" fill="#fff"/>
    <path id="Path_2374" data-name="Path 2374" d="M76.867,121.674a1.955,1.955,0,0,1-1.968,1.961,1.951,1.951,0,1,1,.043-3.9,1.952,1.952,0,0,1,1.925,1.942" transform="translate(-61.061 -100.199)" fill="#fff"/>
    <path id="Path_2375" data-name="Path 2375" d="M193.682,225.782a4.663,4.663,0,0,1-3.107-1.225c-.814-.766-1.6-1.558-2.378-2.365a1.943,1.943,0,0,1,2.748-2.748c.649.616,1.269,1.261,1.9,1.893.793.792.949.794,1.726.018q3.646-3.642,7.289-7.287a1.982,1.982,0,0,1,1.978-.652,1.94,1.94,0,0,1,1.113,3.046,1.128,1.128,0,0,1-.111.145c-2.691,2.685-5.367,5.385-8.085,8.042a4.408,4.408,0,0,1-3.075,1.133" transform="translate(-157.015 -178.548)" fill="#fff"/>
  </g>
</svg>
