<svg id="Iconly_Bold_More_Circle" data-name="Iconly/Bold/More Circle" xmlns="http://www.w3.org/2000/svg" width="30" height="30" viewBox="0 0 30 30">
  <g id="More_Circle" data-name="More Circle">
    <path id="More_Circle-2" data-name="More Circle" d="M15,30A15,15,0,0,1,4.389,4.4,15,15,0,1,1,15,30Zm6.72-16.8A1.8,1.8,0,1,0,23.5,15,1.8,1.8,0,0,0,21.719,13.2ZM15,13.2A1.8,1.8,0,1,0,16.785,15,1.8,1.8,0,0,0,15,13.2Zm-6.719,0A1.8,1.8,0,1,0,10.065,15,1.8,1.8,0,0,0,8.281,13.2Z" fill="#008999"/>
  </g>
</svg>
