<svg xmlns="http://www.w3.org/2000/svg" xmlns:xlink="http://www.w3.org/1999/xlink" width="1045.112" height="707.479" viewBox="0 0 1045.112 707.479">
  <defs>
    <clipPath id="clip-path">
      <rect id="Rectangle_2054" data-name="Rectangle 2054" width="1045.112" height="707.479" fill="none"/>
    </clipPath>
  </defs>
  <g id="Group_68096" data-name="Group 68096" transform="translate(0 -0.004)">
    <g id="Group_68095" data-name="Group 68095" transform="translate(0 0.004)" clip-path="url(#clip-path)">
      <path id="Path_2092" data-name="Path 2092" d="M1011.523,707.483H33.588A33.626,33.626,0,0,1,0,673.895V33.592A33.626,33.626,0,0,1,33.588,0h977.935a33.626,33.626,0,0,1,33.588,33.588v640.3a33.626,33.626,0,0,1-33.588,33.588M33.588,1.019A32.611,32.611,0,0,0,1.015,33.592v640.3a32.61,32.61,0,0,0,32.574,32.574h977.935a32.61,32.61,0,0,0,32.574-32.574V33.592a32.61,32.61,0,0,0-32.574-32.574Z" transform="translate(0 -0.004)" fill="#027888"/>
      <path id="Path_2093" data-name="Path 2093" d="M216.927,493.5H148.348a8.886,8.886,0,0,1,0-17.773h68.579a8.886,8.886,0,1,1,0,17.773m-68.579-16.758a7.872,7.872,0,0,0,0,15.744h68.579a7.872,7.872,0,1,0,0-15.744Z" transform="translate(-68.719 -234.417)" fill="#027888"/>
      <path id="Path_2094" data-name="Path 2094" d="M159.64,484.314l1.844,2.467,2.917.992-1.777,2.516-.042,3.08-2.943-.912-2.942.912-.042-3.08-1.777-2.516,2.917-.992Z" transform="translate(-76.316 -238.646)" fill="#9fc9cc"/>
      <path id="Path_2095" data-name="Path 2095" d="M189.8,484.324l1.844,2.467,2.917.992-1.777,2.517-.042,3.081-2.942-.912-2.942.912-.042-3.081-1.777-2.517,2.917-.992Z" transform="translate(-91.176 -238.651)" fill="#9fc9cc"/>
      <path id="Path_2096" data-name="Path 2096" d="M219.954,484.334,221.8,486.8l2.917.992-1.777,2.517-.042,3.081-2.942-.912-2.942.912-.042-3.081-1.777-2.517,2.917-.992Z" transform="translate(-106.036 -238.656)" fill="#9fc9cc"/>
      <path id="Path_2097" data-name="Path 2097" d="M252.626,493.194l-3.689-1.143-3.69,1.143-.052-3.862-2.228-3.156,3.657-1.244,2.313-3.093,2.313,3.093,3.657,1.244-2.228,3.156Zm-7.242-6.232,1.325,1.878.031,2.3,2.2-.68,2.2.68.031-2.3,1.326-1.878-2.176-.74-1.376-1.841-1.376,1.841Z" transform="translate(-119.721 -237.427)" fill="#027888"/>
      <path id="Path_2098" data-name="Path 2098" d="M282.783,493.205l-3.689-1.144-3.69,1.144-.052-3.863-2.228-3.156,3.657-1.243,2.313-3.094,2.313,3.094,3.657,1.243-2.228,3.156Zm-7.242-6.233,1.326,1.878.031,2.3,2.2-.681,2.2.681.031-2.3,1.325-1.878-2.176-.74-1.376-1.841-1.376,1.841Z" transform="translate(-134.581 -237.432)" fill="#027888"/>
      <path id="Path_2099" data-name="Path 2099" d="M215.417,303.266H99.9a11.145,11.145,0,0,1-11.133-11.133V184.717A11.145,11.145,0,0,1,99.9,173.584H215.417a11.146,11.146,0,0,1,11.133,11.133V292.133a11.146,11.146,0,0,1-11.133,11.133M99.9,174.6a10.13,10.13,0,0,0-10.118,10.119V292.133A10.13,10.13,0,0,0,99.9,302.252H215.417a10.13,10.13,0,0,0,10.118-10.119V184.717A10.13,10.13,0,0,0,215.417,174.6Z" transform="translate(-43.741 -85.535)" fill="#027888"/>
      <path id="Path_2100" data-name="Path 2100" d="M215.909,431.471H100.394a10.626,10.626,0,0,1-10.626-10.625v-9.432a10.626,10.626,0,0,1,10.626-10.625H215.909a10.626,10.626,0,0,1,10.626,10.625v9.431a10.626,10.626,0,0,1-10.626,10.626" transform="translate(-44.233 -197.489)" fill="#9fc9cc"/>
      <path id="Path_2101" data-name="Path 2101" d="M185.028,302.577a40.715,40.715,0,1,1,40.716-40.716,40.762,40.762,0,0,1-40.716,40.716m0-80.416a39.7,39.7,0,1,0,39.7,39.7,39.746,39.746,0,0,0-39.7-39.7" transform="translate(-71.109 -108.971)" fill="#027888"/>
      <path id="Path_2102" data-name="Path 2102" d="M118.553,432.363a8.364,8.364,0,0,1-2.758.493,4.216,4.216,0,0,1-4.608-4.529,4.5,4.5,0,0,1,4.862-4.636,5.558,5.558,0,0,1,2.238.413l-.28.946a4.654,4.654,0,0,0-1.985-.387,3.358,3.358,0,0,0-3.61,3.61,3.291,3.291,0,0,0,3.464,3.623,3.777,3.777,0,0,0,1.545-.24V428.98H115.6v-.933h2.957Z" transform="translate(-54.787 -208.775)" fill="#fff"/>
      <path id="Path_2103" data-name="Path 2103" d="M130.364,423.874v3.757h4.343v-3.757h1.172v8.978h-1.172v-4.21h-4.343v4.21h-1.159v-8.978Z" transform="translate(-63.666 -208.865)" fill="#fff"/>
      <path id="Path_2104" data-name="Path 2104" d="M145.731,431.3a4.108,4.108,0,0,0,2.078.586c1.185,0,1.878-.626,1.878-1.532,0-.84-.48-1.319-1.692-1.785-1.465-.519-2.371-1.279-2.371-2.544,0-1.4,1.159-2.438,2.9-2.438a4.078,4.078,0,0,1,1.985.44l-.32.945a3.575,3.575,0,0,0-1.7-.426c-1.226,0-1.692.733-1.692,1.345,0,.84.546,1.252,1.785,1.732,1.518.586,2.291,1.319,2.291,2.638,0,1.385-1.026,2.584-3.144,2.584a4.641,4.641,0,0,1-2.291-.573Z" transform="translate(-71.664 -208.722)" fill="#fff"/>
      <path id="Path_2105" data-name="Path 2105" d="M161.773,425.6h-.027l-1.505.813-.226-.892,1.892-1.013h1v8.658h-1.132Z" transform="translate(-78.847 -209.176)" fill="#fff"/>
      <path id="Path_2106" data-name="Path 2106" d="M177.069,425.491h-3.3l-.333,2.224a4.662,4.662,0,0,1,.706-.053,3.652,3.652,0,0,1,1.864.467,2.467,2.467,0,0,1,1.239,2.224,3,3,0,0,1-3.224,2.957,4.236,4.236,0,0,1-2.158-.533l.294-.892a3.877,3.877,0,0,0,1.851.479,1.91,1.91,0,0,0,2.051-1.878c-.013-1.119-.759-1.918-2.491-1.918a8.94,8.94,0,0,0-1.2.093l.56-4.156h4.143Z" transform="translate(-84.683 -209.176)" fill="#fff"/>
      <path id="Path_2107" data-name="Path 2107" d="M271.049,432.7h26.224a7.152,7.152,0,1,0,0-14.3H271.049a7.152,7.152,0,0,0,0,14.3" transform="translate(-130.034 -206.166)" fill="#b2e0e6"/>
      <path id="Path_2108" data-name="Path 2108" d="M591.991,493.49H523.412a8.379,8.379,0,0,1,0-16.758h68.58a8.379,8.379,0,0,1,0,16.758Z" transform="translate(-253.781 -234.91)" fill="none" stroke="#027888" stroke-width="2"/>
      <path id="Path_2109" data-name="Path 2109" d="M534.212,484.314l1.844,2.467,2.917.992-1.777,2.516-.042,3.08-2.943-.912-2.942.912-.042-3.08-1.777-2.516,2.917-.992Z" transform="translate(-260.885 -238.646)" fill="#9fc9cc"/>
      <path id="Path_2110" data-name="Path 2110" d="M564.369,484.324l1.844,2.467,2.917.992-1.777,2.517-.042,3.081-2.942-.912-2.942.912-.042-3.081-1.777-2.517,2.917-.992Z" transform="translate(-275.745 -238.651)" fill="#9fc9cc"/>
      <path id="Path_2111" data-name="Path 2111" d="M594.526,484.334l1.844,2.467,2.917.992-1.777,2.517-.042,3.081-2.942-.912-2.942.912-.042-3.081-1.777-2.517,2.917-.992Z" transform="translate(-290.605 -238.656)" fill="#9fc9cc"/>
      <path id="Path_2112" data-name="Path 2112" d="M627.2,493.194l-3.689-1.143-3.69,1.143-.052-3.862-2.228-3.156,3.657-1.244,2.313-3.093,2.313,3.093,3.657,1.244-2.228,3.156Zm-7.242-6.232,1.326,1.878.031,2.3,2.2-.68,2.2.68.031-2.3,1.325-1.878-2.176-.74-1.376-1.841-1.376,1.841Z" transform="translate(-304.29 -237.427)" fill="#027888"/>
      <path id="Path_2113" data-name="Path 2113" d="M657.354,493.205l-3.689-1.144-3.69,1.144-.052-3.863-2.228-3.156,3.657-1.243,2.313-3.094,2.313,3.094,3.657,1.243-2.228,3.156Zm-7.242-6.233,1.325,1.878.031,2.3,2.2-.681,2.2.681.031-2.3,1.325-1.878-2.176-.74-1.376-1.841-1.376,1.841Z" transform="translate(-319.15 -237.432)" fill="#027888"/>
      <path id="Path_2114" data-name="Path 2114" d="M589.988,303.266H474.474a11.145,11.145,0,0,1-11.133-11.133V184.717a11.145,11.145,0,0,1,11.133-11.133H589.988a11.146,11.146,0,0,1,11.133,11.133V292.133a11.146,11.146,0,0,1-11.133,11.133M474.474,174.6a10.13,10.13,0,0,0-10.118,10.119V292.133a10.13,10.13,0,0,0,10.118,10.119H589.988a10.13,10.13,0,0,0,10.119-10.119V184.717A10.13,10.13,0,0,0,589.988,174.6Z" transform="translate(-228.31 -85.535)" fill="#027888"/>
      <path id="Path_2115" data-name="Path 2115" d="M590.481,431.471H474.966a10.626,10.626,0,0,1-10.626-10.625v-9.432a10.626,10.626,0,0,1,10.626-10.625H590.481a10.626,10.626,0,0,1,10.626,10.625v9.431a10.626,10.626,0,0,1-10.626,10.626" transform="translate(-228.802 -197.489)" fill="#9fc9cc"/>
      <path id="Path_2116" data-name="Path 2116" d="M493.124,432.363a8.365,8.365,0,0,1-2.758.493,4.216,4.216,0,0,1-4.608-4.529,4.5,4.5,0,0,1,4.862-4.636,5.558,5.558,0,0,1,2.238.413l-.28.946a4.653,4.653,0,0,0-1.985-.387,3.358,3.358,0,0,0-3.61,3.61,3.291,3.291,0,0,0,3.464,3.623,3.777,3.777,0,0,0,1.545-.24V428.98h-1.825v-.933h2.957Z" transform="translate(-239.356 -208.775)" fill="#fff"/>
      <path id="Path_2117" data-name="Path 2117" d="M504.935,423.874v3.757h4.343v-3.757h1.172v8.978h-1.172v-4.21h-4.343v4.21h-1.159v-8.978Z" transform="translate(-248.234 -208.865)" fill="#fff"/>
      <path id="Path_2118" data-name="Path 2118" d="M520.3,431.3a4.108,4.108,0,0,0,2.078.586c1.185,0,1.878-.626,1.878-1.532,0-.84-.48-1.319-1.692-1.785-1.465-.519-2.371-1.279-2.371-2.544,0-1.4,1.159-2.438,2.9-2.438a4.079,4.079,0,0,1,1.985.44l-.32.945a3.574,3.574,0,0,0-1.7-.426c-1.225,0-1.692.733-1.692,1.345,0,.84.546,1.252,1.785,1.732,1.518.586,2.291,1.319,2.291,2.638,0,1.385-1.026,2.584-3.144,2.584a4.641,4.641,0,0,1-2.291-.573Z" transform="translate(-256.233 -208.722)" fill="#fff"/>
      <path id="Path_2119" data-name="Path 2119" d="M536.344,425.6h-.027l-1.505.813-.226-.892,1.892-1.013h1v8.658h-1.132Z" transform="translate(-263.416 -209.176)" fill="#fff"/>
      <path id="Path_2120" data-name="Path 2120" d="M546.3,430.824a2.474,2.474,0,0,1,1.719-2.318l-.014-.04a2.146,2.146,0,0,1-1.372-1.945,2.425,2.425,0,0,1,2.678-2.3,2.236,2.236,0,0,1,2.518,2.131,2.2,2.2,0,0,1-1.426,2.025v.04a2.4,2.4,0,0,1,1.745,2.237,2.666,2.666,0,0,1-2.944,2.518c-1.812,0-2.9-1.079-2.9-2.345m4.662-.053c0-1.053-.733-1.559-1.9-1.892a1.881,1.881,0,0,0-1.559,1.785,1.6,1.6,0,0,0,1.732,1.652,1.567,1.567,0,0,0,1.732-1.545m-3.224-4.329c0,.866.653,1.332,1.652,1.6a1.706,1.706,0,0,0,1.318-1.571,1.346,1.346,0,0,0-1.465-1.412,1.377,1.377,0,0,0-1.506,1.385" transform="translate(-269.188 -209.034)" fill="#fff"/>
      <path id="Path_2121" data-name="Path 2121" d="M645.621,432.7h26.224a7.152,7.152,0,1,0,0-14.3H645.621a7.152,7.152,0,0,0,0,14.3" transform="translate(-314.604 -206.166)" fill="#b2e0e6"/>
      <path id="Path_2122" data-name="Path 2122" d="M591.649,292.962h-54.76a8.538,8.538,0,0,1-8.528-8.528v-54.76a8.538,8.538,0,0,1,8.528-8.528h54.76a8.538,8.538,0,0,1,8.529,8.528v54.76a8.538,8.538,0,0,1-8.529,8.528m-54.76-70.8a7.523,7.523,0,0,0-7.514,7.513v54.76a7.522,7.522,0,0,0,7.514,7.514h54.76a7.523,7.523,0,0,0,7.514-7.514v-54.76a7.523,7.523,0,0,0-7.514-7.513Z" transform="translate(-260.348 -108.971)" fill="#027888"/>
      <path id="Path_2123" data-name="Path 2123" d="M966.071,493.5h-68.58a8.886,8.886,0,0,1,0-17.773h68.58a8.886,8.886,0,0,1,0,17.773m-68.58-16.758a7.872,7.872,0,0,0,0,15.744h68.58a7.872,7.872,0,0,0,0-15.744Z" transform="translate(-437.857 -234.417)" fill="#027888"/>
      <path id="Path_2124" data-name="Path 2124" d="M908.784,484.314l1.844,2.467,2.917.992-1.777,2.516-.042,3.08-2.943-.912-2.942.912-.042-3.08-1.777-2.516,2.917-.992Z" transform="translate(-445.454 -238.646)" fill="#9fc9cc"/>
      <path id="Path_2125" data-name="Path 2125" d="M938.941,484.324l1.844,2.467,2.917.992-1.777,2.517-.042,3.081-2.942-.912L936,493.38l-.042-3.081-1.777-2.517,2.917-.992Z" transform="translate(-460.314 -238.651)" fill="#9fc9cc"/>
      <path id="Path_2126" data-name="Path 2126" d="M969.1,484.334l1.844,2.467,2.917.992-1.777,2.517-.042,3.081-2.942-.912-2.942.912-.042-3.081-1.777-2.517,2.917-.992Z" transform="translate(-475.174 -238.656)" fill="#9fc9cc"/>
      <path id="Path_2127" data-name="Path 2127" d="M1001.769,493.194l-3.689-1.143-3.69,1.143-.052-3.862-2.228-3.156,3.657-1.243,2.313-3.094,2.313,3.094,3.657,1.244-2.228,3.155Zm-7.242-6.232,1.325,1.878.031,2.3,2.2-.68,2.2.68.031-2.3,1.326-1.878-2.176-.74-1.376-1.841-1.376,1.841Z" transform="translate(-488.859 -237.427)" fill="#027888"/>
      <path id="Path_2128" data-name="Path 2128" d="M1031.927,493.205l-3.689-1.144-3.689,1.144-.052-3.863-2.228-3.156,3.657-1.243,2.313-3.094,2.313,3.094,3.657,1.243-2.228,3.156Zm-3.689-2.737,2.2.681.031-2.3,1.325-1.878-2.176-.74-1.376-1.841-1.376,1.841-2.176.74,1.326,1.878.031,2.3Z" transform="translate(-503.719 -237.432)" fill="#027888"/>
      <path id="Path_2129" data-name="Path 2129" d="M964.559,303.266H849.044a11.146,11.146,0,0,1-11.133-11.133V184.717a11.146,11.146,0,0,1,11.133-11.133H964.559a11.146,11.146,0,0,1,11.133,11.133V292.133a11.146,11.146,0,0,1-11.133,11.133M849.044,174.6a10.13,10.13,0,0,0-10.119,10.119V292.133a10.13,10.13,0,0,0,10.119,10.119H964.559a10.13,10.13,0,0,0,10.119-10.119V184.717A10.13,10.13,0,0,0,964.559,174.6Z" transform="translate(-412.878 -85.535)" fill="#027888"/>
      <path id="Path_2130" data-name="Path 2130" d="M965.052,431.471H849.537a10.626,10.626,0,0,1-10.626-10.625v-9.432a10.626,10.626,0,0,1,10.626-10.625H965.052a10.626,10.626,0,0,1,10.626,10.625v9.431a10.626,10.626,0,0,1-10.626,10.626" transform="translate(-413.371 -197.489)" fill="#9fc9cc"/>
      <path id="Path_2131" data-name="Path 2131" d="M934.171,302.577a40.715,40.715,0,1,1,40.715-40.716,40.762,40.762,0,0,1-40.715,40.716m0-80.416a39.7,39.7,0,1,0,39.7,39.7,39.746,39.746,0,0,0-39.7-39.7" transform="translate(-440.247 -108.971)" fill="#027888"/>
      <path id="Path_2132" data-name="Path 2132" d="M867.7,432.363a8.364,8.364,0,0,1-2.758.493,4.216,4.216,0,0,1-4.608-4.529,4.5,4.5,0,0,1,4.862-4.636,5.559,5.559,0,0,1,2.238.413l-.28.946a4.654,4.654,0,0,0-1.985-.387,3.358,3.358,0,0,0-3.609,3.61,3.291,3.291,0,0,0,3.463,3.623,3.776,3.776,0,0,0,1.545-.24V428.98h-1.825v-.933H867.7Z" transform="translate(-423.925 -208.775)" fill="#fff"/>
      <path id="Path_2133" data-name="Path 2133" d="M879.507,423.874v3.757h4.343v-3.757h1.172v8.978H883.85v-4.21h-4.343v4.21h-1.159v-8.978Z" transform="translate(-432.803 -208.865)" fill="#fff"/>
      <path id="Path_2134" data-name="Path 2134" d="M894.874,431.3a4.108,4.108,0,0,0,2.078.586c1.186,0,1.878-.626,1.878-1.532,0-.84-.48-1.319-1.692-1.785-1.465-.519-2.371-1.279-2.371-2.544,0-1.4,1.159-2.438,2.9-2.438a4.078,4.078,0,0,1,1.985.44l-.32.945a3.574,3.574,0,0,0-1.7-.426c-1.226,0-1.692.733-1.692,1.345,0,.84.546,1.252,1.785,1.732,1.518.586,2.291,1.319,2.291,2.638,0,1.385-1.026,2.584-3.144,2.584a4.641,4.641,0,0,1-2.291-.573Z" transform="translate(-440.802 -208.722)" fill="#fff"/>
      <path id="Path_2135" data-name="Path 2135" d="M910.916,425.6h-.027l-1.505.813-.226-.892,1.891-1.013h1v8.658h-1.132Z" transform="translate(-447.985 -209.176)" fill="#fff"/>
      <path id="Path_2136" data-name="Path 2136" d="M924.39,425.6h-.027l-1.505.813-.226-.892,1.892-1.013h1v8.658H924.39Z" transform="translate(-454.624 -209.176)" fill="#fff"/>
      <path id="Path_2137" data-name="Path 2137" d="M1020.192,432.7h26.224a7.152,7.152,0,1,0,0-14.3h-26.224a7.152,7.152,0,0,0,0,14.3" transform="translate(-499.172 -206.166)" fill="#b2e0e6"/>
      <path id="Path_2138" data-name="Path 2138" d="M216.927,886.419H148.348a8.886,8.886,0,0,1,0-17.772h68.579a8.886,8.886,0,1,1,0,17.772m-68.579-16.758a7.872,7.872,0,0,0,0,15.743h68.579a7.872,7.872,0,1,0,0-15.743Z" transform="translate(-68.719 -428.025)" fill="#027888"/>
      <path id="Path_2139" data-name="Path 2139" d="M159.64,877.228l1.844,2.467,2.917.992-1.777,2.516-.042,3.08-2.943-.912-2.942.912-.042-3.08-1.777-2.516,2.917-.992Z" transform="translate(-76.316 -432.254)" fill="#9fc9cc"/>
      <path id="Path_2140" data-name="Path 2140" d="M189.8,877.239l1.844,2.467,2.917.992-1.777,2.517-.042,3.081-2.942-.912-2.942.912-.042-3.081-1.777-2.517,2.917-.992Z" transform="translate(-91.176 -432.259)" fill="#9fc9cc"/>
      <path id="Path_2141" data-name="Path 2141" d="M219.954,877.249l1.844,2.467,2.917.992-1.777,2.516-.042,3.081-2.942-.912-2.942.912-.042-3.081-1.777-2.516,2.917-.992Z" transform="translate(-106.036 -432.264)" fill="#9fc9cc"/>
      <path id="Path_2142" data-name="Path 2142" d="M252.626,886.109l-3.689-1.143-3.689,1.143-.053-3.861-2.227-3.156,3.657-1.243,2.313-3.093,2.313,3.093,3.657,1.243-2.228,3.156Zm-7.242-6.232,1.326,1.878.031,2.3,2.2-.68,2.2.68.031-2.3,1.325-1.878-2.176-.74-1.376-1.841-1.376,1.841Z" transform="translate(-119.721 -431.035)" fill="#027888"/>
      <path id="Path_2143" data-name="Path 2143" d="M282.783,886.12l-3.689-1.144-3.69,1.144-.052-3.863-2.228-3.156,3.657-1.243,2.313-3.095,2.313,3.095,3.657,1.243-2.228,3.156Zm-7.242-6.233,1.326,1.877.031,2.3,2.2-.68,2.2.68.031-2.3,1.325-1.877-2.176-.74-1.376-1.841-1.376,1.841Z" transform="translate(-134.581 -431.039)" fill="#027888"/>
      <path id="Path_2144" data-name="Path 2144" d="M215.417,696.181H99.9a11.145,11.145,0,0,1-11.133-11.133V577.632A11.145,11.145,0,0,1,99.9,566.5H215.417a11.146,11.146,0,0,1,11.133,11.133V685.048a11.145,11.145,0,0,1-11.133,11.133M99.9,567.513a10.13,10.13,0,0,0-10.118,10.118V685.048A10.13,10.13,0,0,0,99.9,695.166H215.417a10.13,10.13,0,0,0,10.118-10.119V577.632a10.13,10.13,0,0,0-10.118-10.118Z" transform="translate(-43.741 -279.143)" fill="#027888"/>
      <path id="Path_2145" data-name="Path 2145" d="M215.909,824.386H100.394A10.626,10.626,0,0,1,89.768,813.76v-9.432A10.626,10.626,0,0,1,100.394,793.7H215.909a10.626,10.626,0,0,1,10.626,10.625v9.432a10.626,10.626,0,0,1-10.626,10.626" transform="translate(-44.233 -391.097)" fill="#9fc9cc"/>
      <path id="Path_2146" data-name="Path 2146" d="M185.028,695.492a40.715,40.715,0,1,1,40.716-40.716,40.762,40.762,0,0,1-40.716,40.716m0-80.416a39.7,39.7,0,1,0,39.7,39.7,39.746,39.746,0,0,0-39.7-39.7" transform="translate(-71.109 -302.579)" fill="#027888"/>
      <path id="Path_2147" data-name="Path 2147" d="M118.553,825.278a8.38,8.38,0,0,1-2.758.493,4.216,4.216,0,0,1-4.608-4.529,4.5,4.5,0,0,1,4.862-4.636,5.561,5.561,0,0,1,2.238.413l-.28.946a4.646,4.646,0,0,0-1.985-.386,3.358,3.358,0,0,0-3.61,3.61,3.291,3.291,0,0,0,3.464,3.623,3.777,3.777,0,0,0,1.545-.24v-2.677H115.6v-.932h2.957Z" transform="translate(-54.787 -402.382)" fill="#fff"/>
      <path id="Path_2148" data-name="Path 2148" d="M130.364,816.79v3.756h4.343V816.79h1.172v8.978h-1.172v-4.209h-4.343v4.209h-1.159V816.79Z" transform="translate(-63.666 -402.473)" fill="#fff"/>
      <path id="Path_2149" data-name="Path 2149" d="M145.731,824.214a4.108,4.108,0,0,0,2.078.586c1.185,0,1.878-.626,1.878-1.531,0-.84-.48-1.319-1.692-1.786-1.465-.519-2.371-1.278-2.371-2.544,0-1.4,1.159-2.438,2.9-2.438a4.078,4.078,0,0,1,1.985.44l-.32.946a3.574,3.574,0,0,0-1.7-.426c-1.226,0-1.692.732-1.692,1.345,0,.839.546,1.252,1.785,1.732,1.518.586,2.291,1.319,2.291,2.637,0,1.386-1.026,2.585-3.144,2.585a4.641,4.641,0,0,1-2.291-.573Z" transform="translate(-71.664 -402.33)" fill="#fff"/>
      <path id="Path_2150" data-name="Path 2150" d="M163.265,818.116a4.252,4.252,0,0,0-.879.053,3.521,3.521,0,0,0-3.011,3.077h.04a2.639,2.639,0,0,1,4.7,1.8,2.9,2.9,0,0,1-2.877,3.051c-1.851,0-3.064-1.439-3.064-3.69a5.443,5.443,0,0,1,1.465-3.9,4.71,4.71,0,0,1,2.771-1.278,5.573,5.573,0,0,1,.853-.067Zm-.333,5a1.759,1.759,0,0,0-1.785-1.985,1.928,1.928,0,0,0-1.678,1.066,1,1,0,0,0-.133.519c.027,1.425.679,2.477,1.9,2.477,1.012,0,1.692-.839,1.692-2.078" transform="translate(-77.941 -402.654)" fill="#fff"/>
      <path id="Path_2151" data-name="Path 2151" d="M177.578,821.514c0,2.944-1.093,4.569-3.011,4.569-1.692,0-2.838-1.585-2.864-4.449,0-2.9,1.252-4.5,3.011-4.5,1.825,0,2.864,1.625,2.864,4.382m-4.7.133c0,2.251.693,3.53,1.759,3.53,1.2,0,1.771-1.4,1.771-3.61,0-2.131-.546-3.53-1.758-3.53-1.026,0-1.772,1.252-1.772,3.61" transform="translate(-84.606 -402.641)" fill="#fff"/>
      <path id="Path_2152" data-name="Path 2152" d="M271.049,825.615h26.224a7.152,7.152,0,1,0,0-14.3H271.049a7.152,7.152,0,1,0,0,14.3" transform="translate(-130.034 -399.773)" fill="#b2e0e6"/>
      <path id="Path_2153" data-name="Path 2153" d="M591.991,886.4H523.412a8.379,8.379,0,0,1,0-16.758h68.58a8.379,8.379,0,0,1,0,16.758Z" transform="translate(-253.781 -428.517)" fill="none" stroke="#027888" stroke-width="2"/>
      <path id="Path_2154" data-name="Path 2154" d="M534.212,877.228l1.844,2.467,2.917.992L537.2,883.2l-.042,3.08-2.943-.912-2.942.912-.042-3.08-1.777-2.516,2.917-.992Z" transform="translate(-260.885 -432.254)" fill="#9fc9cc"/>
      <path id="Path_2155" data-name="Path 2155" d="M564.369,877.239l1.844,2.467,2.917.992-1.777,2.517-.042,3.081-2.942-.912-2.942.912-.042-3.081-1.777-2.517,2.917-.992Z" transform="translate(-275.745 -432.259)" fill="#9fc9cc"/>
      <path id="Path_2156" data-name="Path 2156" d="M594.526,877.249l1.844,2.467,2.917.992-1.777,2.516-.042,3.081-2.942-.912-2.942.912-.042-3.081-1.777-2.516,2.917-.992Z" transform="translate(-290.605 -432.264)" fill="#9fc9cc"/>
      <path id="Path_2157" data-name="Path 2157" d="M627.2,886.109l-3.689-1.143-3.69,1.143-.052-3.861-2.227-3.156,3.657-1.243,2.313-3.093,2.313,3.093,3.657,1.243-2.228,3.156Zm-7.242-6.232,1.326,1.878.031,2.3,2.2-.68,2.2.68.031-2.3,1.326-1.878-2.176-.74-1.376-1.841-1.376,1.841Z" transform="translate(-304.29 -431.035)" fill="#027888"/>
      <path id="Path_2158" data-name="Path 2158" d="M657.354,886.12l-3.689-1.144-3.69,1.144-.052-3.863-2.228-3.156,3.657-1.243,2.313-3.095,2.313,3.095,3.657,1.243-2.228,3.156Zm-7.242-6.233,1.325,1.877.031,2.3,2.2-.68,2.2.68.031-2.3,1.325-1.877-2.176-.74-1.376-1.841-1.376,1.841Z" transform="translate(-319.15 -431.039)" fill="#027888"/>
      <path id="Path_2159" data-name="Path 2159" d="M589.988,696.181H474.474a11.145,11.145,0,0,1-11.133-11.133V577.632A11.145,11.145,0,0,1,474.474,566.5H589.988a11.146,11.146,0,0,1,11.133,11.133V685.048a11.145,11.145,0,0,1-11.133,11.133M474.474,567.513a10.13,10.13,0,0,0-10.118,10.118V685.048a10.13,10.13,0,0,0,10.118,10.119H589.988a10.13,10.13,0,0,0,10.119-10.119V577.632a10.13,10.13,0,0,0-10.119-10.118Z" transform="translate(-228.31 -279.143)" fill="#027888"/>
      <path id="Path_2160" data-name="Path 2160" d="M590.481,824.386H474.966A10.626,10.626,0,0,1,464.34,813.76v-9.432A10.626,10.626,0,0,1,474.966,793.7H590.481a10.626,10.626,0,0,1,10.626,10.625v9.432a10.626,10.626,0,0,1-10.626,10.626" transform="translate(-228.802 -391.097)" fill="#9fc9cc"/>
      <path id="Path_2161" data-name="Path 2161" d="M493.124,825.278a8.381,8.381,0,0,1-2.758.493,4.216,4.216,0,0,1-4.608-4.529,4.5,4.5,0,0,1,4.862-4.636,5.561,5.561,0,0,1,2.238.413l-.28.946a4.646,4.646,0,0,0-1.985-.386,3.358,3.358,0,0,0-3.61,3.61,3.291,3.291,0,0,0,3.464,3.623,3.777,3.777,0,0,0,1.545-.24v-2.677h-1.825v-.932h2.957Z" transform="translate(-239.356 -402.382)" fill="#fff"/>
      <path id="Path_2162" data-name="Path 2162" d="M504.935,816.79v3.756h4.343V816.79h1.172v8.978h-1.172v-4.209h-4.343v4.209h-1.159V816.79Z" transform="translate(-248.234 -402.473)" fill="#fff"/>
      <path id="Path_2163" data-name="Path 2163" d="M520.3,824.214a4.108,4.108,0,0,0,2.078.586c1.185,0,1.878-.626,1.878-1.531,0-.84-.48-1.319-1.692-1.786-1.465-.519-2.371-1.278-2.371-2.544,0-1.4,1.159-2.438,2.9-2.438a4.078,4.078,0,0,1,1.985.44l-.32.946a3.574,3.574,0,0,0-1.7-.426c-1.225,0-1.692.732-1.692,1.345,0,.839.546,1.252,1.785,1.732,1.518.586,2.291,1.319,2.291,2.637,0,1.386-1.026,2.585-3.144,2.585a4.641,4.641,0,0,1-2.291-.573Z" transform="translate(-256.233 -402.33)" fill="#fff"/>
      <path id="Path_2164" data-name="Path 2164" d="M536.344,818.512h-.027l-1.505.813-.226-.893,1.892-1.013h1v8.658h-1.132Z" transform="translate(-263.416 -402.783)" fill="#fff"/>
      <path id="Path_2165" data-name="Path 2165" d="M552.149,821.514c0,2.944-1.093,4.569-3.01,4.569-1.692,0-2.838-1.585-2.864-4.449,0-2.9,1.252-4.5,3.011-4.5,1.825,0,2.864,1.625,2.864,4.382m-4.7.133c0,2.251.693,3.53,1.759,3.53,1.2,0,1.771-1.4,1.771-3.61,0-2.131-.546-3.53-1.758-3.53-1.026,0-1.772,1.252-1.772,3.61" transform="translate(-269.175 -402.641)" fill="#fff"/>
      <path id="Path_2166" data-name="Path 2166" d="M645.621,825.615h26.224a7.152,7.152,0,1,0,0-14.3H645.621a7.152,7.152,0,1,0,0,14.3" transform="translate(-314.604 -399.773)" fill="#b2e0e6"/>
      <path id="Path_2167" data-name="Path 2167" d="M578.481,695.413H534.634L512.71,657.44l21.924-37.972h43.847L600.4,657.44ZM535.219,694.4H577.9l21.338-36.958L577.9,620.482H535.219L513.882,657.44Z" transform="translate(-252.636 -305.243)" fill="#027888"/>
      <path id="Path_2168" data-name="Path 2168" d="M589.122,694.853H567.851l-10.637-18.422,10.637-18.422h21.272l10.637,18.422Zm-20.686-1.015h20.1l10.05-17.407-10.05-17.408h-20.1l-10.05,17.408Z" transform="translate(-274.565 -324.234)" fill="#027888"/>
      <path id="Path_2169" data-name="Path 2169" d="M966.071,886.419h-68.58a8.886,8.886,0,0,1,0-17.772h68.58a8.886,8.886,0,0,1,0,17.772m-68.58-16.758a7.872,7.872,0,1,0,0,15.743h68.58a7.872,7.872,0,0,0,0-15.743Z" transform="translate(-437.857 -428.025)" fill="#027888"/>
      <path id="Path_2170" data-name="Path 2170" d="M908.784,877.228l1.844,2.467,2.917.992-1.777,2.516-.042,3.08-2.943-.912-2.942.912-.042-3.08-1.777-2.516,2.917-.992Z" transform="translate(-445.454 -432.254)" fill="#9fc9cc"/>
      <path id="Path_2171" data-name="Path 2171" d="M938.941,877.239l1.844,2.467,2.917.992-1.777,2.517-.042,3.081-2.942-.912-2.942.912-.042-3.081-1.777-2.517,2.917-.992Z" transform="translate(-460.314 -432.259)" fill="#9fc9cc"/>
      <path id="Path_2172" data-name="Path 2172" d="M969.1,877.249l1.844,2.467,2.917.992-1.777,2.516-.042,3.081-2.942-.912-2.942.912-.042-3.081-1.777-2.516,2.917-.992Z" transform="translate(-475.174 -432.264)" fill="#9fc9cc"/>
      <path id="Path_2173" data-name="Path 2173" d="M1001.769,886.109l-3.69-1.143-3.689,1.143-.053-3.861-2.227-3.156,3.657-1.243,2.312-3.093,2.313,3.093,3.657,1.243-2.228,3.156Zm-7.242-6.232,1.326,1.878.031,2.3,2.2-.68,2.2.68.031-2.3,1.325-1.878-2.176-.74-1.377-1.841-1.375,1.841Z" transform="translate(-488.859 -431.035)" fill="#027888"/>
      <path id="Path_2174" data-name="Path 2174" d="M1031.927,886.119l-3.689-1.144-3.689,1.144-.052-3.863-2.228-3.155,3.657-1.243,2.313-3.094,2.313,3.094,3.657,1.243-2.228,3.155Zm-3.689-2.737,2.2.681.031-2.3,1.325-1.878-2.176-.74-1.376-1.841-1.376,1.841-2.176.74,1.326,1.878.031,2.3Z" transform="translate(-503.719 -431.039)" fill="#027888"/>
      <path id="Path_2175" data-name="Path 2175" d="M964.559,696.181H849.044a11.146,11.146,0,0,1-11.133-11.133V577.632A11.146,11.146,0,0,1,849.044,566.5H964.559a11.146,11.146,0,0,1,11.133,11.133V685.048a11.146,11.146,0,0,1-11.133,11.133M849.044,567.513a10.13,10.13,0,0,0-10.119,10.118V685.048a10.13,10.13,0,0,0,10.119,10.119H964.559a10.13,10.13,0,0,0,10.119-10.119V577.632a10.13,10.13,0,0,0-10.119-10.118Z" transform="translate(-412.878 -279.143)" fill="#027888"/>
      <path id="Path_2176" data-name="Path 2176" d="M965.052,824.386H849.537a10.626,10.626,0,0,1-10.626-10.625v-9.432A10.626,10.626,0,0,1,849.537,793.7H965.052a10.626,10.626,0,0,1,10.626,10.625v9.432a10.626,10.626,0,0,1-10.626,10.626" transform="translate(-413.371 -391.097)" fill="#9fc9cc"/>
      <path id="Path_2177" data-name="Path 2177" d="M867.7,825.278a8.38,8.38,0,0,1-2.758.493,4.216,4.216,0,0,1-4.608-4.529,4.5,4.5,0,0,1,4.862-4.636,5.562,5.562,0,0,1,2.238.413l-.28.946a4.647,4.647,0,0,0-1.985-.386,3.357,3.357,0,0,0-3.609,3.61,3.291,3.291,0,0,0,3.463,3.623,3.776,3.776,0,0,0,1.545-.24v-2.677h-1.825v-.932H867.7Z" transform="translate(-423.925 -402.382)" fill="#fff"/>
      <path id="Path_2178" data-name="Path 2178" d="M879.507,816.79v3.756h4.343V816.79h1.172v8.978H883.85v-4.209h-4.343v4.209h-1.159V816.79Z" transform="translate(-432.803 -402.473)" fill="#fff"/>
      <path id="Path_2179" data-name="Path 2179" d="M894.874,824.214a4.108,4.108,0,0,0,2.078.586c1.186,0,1.878-.626,1.878-1.531,0-.84-.48-1.319-1.692-1.786-1.465-.519-2.371-1.278-2.371-2.544,0-1.4,1.159-2.438,2.9-2.438a4.078,4.078,0,0,1,1.985.44l-.32.946a3.574,3.574,0,0,0-1.7-.426c-1.226,0-1.692.732-1.692,1.345,0,.839.546,1.252,1.785,1.732,1.518.586,2.291,1.319,2.291,2.637,0,1.386-1.026,2.585-3.144,2.585a4.641,4.641,0,0,1-2.291-.573Z" transform="translate(-440.802 -402.33)" fill="#fff"/>
      <path id="Path_2180" data-name="Path 2180" d="M910.916,818.512h-.027l-1.505.813-.226-.893,1.891-1.013h1v8.658h-1.132Z" transform="translate(-447.985 -402.783)" fill="#fff"/>
      <path id="Path_2181" data-name="Path 2181" d="M926.212,818.406h-3.3l-.333,2.225a4.581,4.581,0,0,1,.706-.054,3.653,3.653,0,0,1,1.864.467,2.467,2.467,0,0,1,1.239,2.224,3,3,0,0,1-3.224,2.957,4.237,4.237,0,0,1-2.158-.533l.294-.892a3.878,3.878,0,0,0,1.852.48A1.91,1.91,0,0,0,925.2,823.4c-.013-1.119-.759-1.919-2.491-1.919a9.053,9.053,0,0,0-1.2.093l.56-4.156h4.143Z" transform="translate(-453.821 -402.783)" fill="#fff"/>
      <path id="Path_2182" data-name="Path 2182" d="M1020.192,825.615h26.224a7.152,7.152,0,1,0,0-14.3h-26.224a7.152,7.152,0,1,0,0,14.3" transform="translate(-499.172 -399.773)" fill="#b2e0e6"/>
      <path id="Path_2183" data-name="Path 2183" d="M966.221,695.354H911.461a8.538,8.538,0,0,1-8.529-8.528v-54.76a8.538,8.538,0,0,1,8.529-8.529h54.759a8.538,8.538,0,0,1,8.529,8.529v54.76a8.538,8.538,0,0,1-8.529,8.528m-54.759-70.8a7.523,7.523,0,0,0-7.514,7.514v54.76a7.522,7.522,0,0,0,7.514,7.514h54.759a7.523,7.523,0,0,0,7.515-7.514v-54.76a7.523,7.523,0,0,0-7.515-7.514Z" transform="translate(-444.917 -307.248)" fill="#027888"/>
      <path id="Path_2184" data-name="Path 2184" d="M216.927,1289.056H148.348a8.886,8.886,0,1,1,0-17.772h68.579a8.886,8.886,0,1,1,0,17.772M148.348,1272.3a7.872,7.872,0,0,0,0,15.743h68.579a7.872,7.872,0,1,0,0-15.743Z" transform="translate(-68.719 -626.423)" fill="#027888"/>
      <path id="Path_2185" data-name="Path 2185" d="M159.64,1279.865l1.844,2.467,2.917.992-1.777,2.516-.042,3.08-2.943-.912-2.942.912-.042-3.08-1.777-2.516,2.917-.992Z" transform="translate(-76.316 -630.652)" fill="#9fc9cc"/>
      <path id="Path_2186" data-name="Path 2186" d="M189.8,1279.875l1.844,2.467,2.917.992-1.777,2.516-.042,3.081-2.942-.912-2.942.912-.042-3.081-1.777-2.516,2.917-.992Z" transform="translate(-91.176 -630.657)" fill="#9fc9cc"/>
      <path id="Path_2187" data-name="Path 2187" d="M219.954,1279.885l1.844,2.467,2.917.992-1.777,2.516-.042,3.08-2.942-.912-2.942.912-.042-3.08-1.777-2.516,2.917-.992Z" transform="translate(-106.036 -630.662)" fill="#9fc9cc"/>
      <path id="Path_2188" data-name="Path 2188" d="M252.626,1288.746l-3.689-1.143-3.689,1.143-.053-3.861-2.227-3.156,3.657-1.243,2.313-3.093,2.313,3.093,3.657,1.243-2.228,3.156Zm-7.242-6.232,1.326,1.878.031,2.3,2.2-.68,2.2.68.031-2.3,1.325-1.878-2.176-.74-1.376-1.841-1.376,1.841Z" transform="translate(-119.721 -629.433)" fill="#027888"/>
      <path id="Path_2189" data-name="Path 2189" d="M282.783,1288.755l-3.689-1.143-3.69,1.143-.052-3.862-2.228-3.156,3.657-1.243,2.313-3.094,2.313,3.094,3.657,1.243-2.228,3.156Zm-7.242-6.232,1.326,1.877.031,2.3,2.2-.68,2.2.68.031-2.3,1.325-1.877-2.176-.74-1.376-1.841-1.376,1.841Z" transform="translate(-134.581 -629.437)" fill="#027888"/>
      <path id="Path_2190" data-name="Path 2190" d="M215.417,1098.817H99.9a11.145,11.145,0,0,1-11.133-11.132V980.269A11.145,11.145,0,0,1,99.9,969.136H215.417a11.146,11.146,0,0,1,11.133,11.133v107.416a11.145,11.145,0,0,1-11.133,11.132M99.9,970.15a10.13,10.13,0,0,0-10.118,10.118v107.416A10.13,10.13,0,0,0,99.9,1097.8H215.417a10.13,10.13,0,0,0,10.118-10.118V980.269a10.13,10.13,0,0,0-10.118-10.118Z" transform="translate(-43.741 -477.541)" fill="#027888"/>
      <path id="Path_2191" data-name="Path 2191" d="M215.909,1227.022H100.394A10.626,10.626,0,0,1,89.768,1216.4v-9.432a10.626,10.626,0,0,1,10.626-10.625H215.909a10.626,10.626,0,0,1,10.626,10.625v9.431a10.626,10.626,0,0,1-10.626,10.626" transform="translate(-44.233 -589.494)" fill="#9fc9cc"/>
      <path id="Path_2192" data-name="Path 2192" d="M118.553,1227.914a8.381,8.381,0,0,1-2.758.492,4.216,4.216,0,0,1-4.608-4.529,4.5,4.5,0,0,1,4.862-4.636,5.559,5.559,0,0,1,2.238.413l-.28.946a4.645,4.645,0,0,0-1.985-.387,3.358,3.358,0,0,0-3.61,3.61,3.291,3.291,0,0,0,3.464,3.623,3.774,3.774,0,0,0,1.545-.24v-2.677H115.6v-.932h2.957Z" transform="translate(-54.787 -600.78)" fill="#fff"/>
      <path id="Path_2193" data-name="Path 2193" d="M130.364,1219.426v3.756h4.343v-3.756h1.172v8.978h-1.172v-4.209h-4.343v4.209h-1.159v-8.978Z" transform="translate(-63.666 -600.87)" fill="#fff"/>
      <path id="Path_2194" data-name="Path 2194" d="M145.731,1226.85a4.109,4.109,0,0,0,2.078.586c1.185,0,1.878-.626,1.878-1.531,0-.84-.48-1.319-1.692-1.786-1.465-.519-2.371-1.278-2.371-2.544,0-1.4,1.159-2.438,2.9-2.438a4.077,4.077,0,0,1,1.985.44l-.32.945a3.574,3.574,0,0,0-1.7-.426c-1.226,0-1.692.733-1.692,1.345,0,.839.546,1.252,1.785,1.732,1.518.586,2.291,1.319,2.291,2.637,0,1.386-1.026,2.584-3.144,2.584a4.641,4.641,0,0,1-2.291-.573Z" transform="translate(-71.664 -600.728)" fill="#fff"/>
      <path id="Path_2195" data-name="Path 2195" d="M161.773,1221.149h-.027l-1.505.813-.226-.893,1.892-1.012h1v8.658h-1.132Z" transform="translate(-78.847 -601.181)" fill="#fff"/>
      <path id="Path_2196" data-name="Path 2196" d="M172.567,1227.746a4.862,4.862,0,0,0,.946-.04,3.264,3.264,0,0,0,1.812-.839,3.8,3.8,0,0,0,1.145-2.3h-.04a2.541,2.541,0,0,1-2.038.933,2.508,2.508,0,0,1-2.558-2.651,2.968,2.968,0,0,1,2.957-3.077c1.772,0,2.864,1.439,2.864,3.65a5.469,5.469,0,0,1-1.492,4.063,4.328,4.328,0,0,1-2.518,1.159,5.479,5.479,0,0,1-1.079.067Zm.427-4.982a1.666,1.666,0,0,0,1.665,1.838,1.938,1.938,0,0,0,1.705-.906.775.775,0,0,0,.107-.426c0-1.479-.546-2.611-1.772-2.611-1,0-1.7.879-1.7,2.1" transform="translate(-84.671 -601.039)" fill="#fff"/>
      <path id="Path_2197" data-name="Path 2197" d="M271.049,1228.252h26.224a7.152,7.152,0,1,0,0-14.3H271.049a7.152,7.152,0,0,0,0,14.3" transform="translate(-130.034 -598.171)" fill="#b2e0e6"/>
      <path id="Path_2198" data-name="Path 2198" d="M187.692,1088.74l-.254-.146-37.719-21.777V1022.97l37.972-21.923.254.146,37.719,21.777v43.847Zm-36.958-22.509,36.958,21.338,36.958-21.338v-42.676l-36.958-21.338-36.958,21.338Z" transform="translate(-73.774 -493.265)" fill="#027888"/>
      <path id="Path_2199" data-name="Path 2199" d="M591.5,1289.056H522.92a8.886,8.886,0,1,1,0-17.772H591.5a8.886,8.886,0,1,1,0,17.772M522.92,1272.3a7.872,7.872,0,1,0,0,15.743H591.5a7.872,7.872,0,1,0,0-15.743Z" transform="translate(-253.288 -626.423)" fill="#027888"/>
      <path id="Path_2200" data-name="Path 2200" d="M534.212,1279.865l1.844,2.467,2.917.992-1.777,2.516-.042,3.08-2.943-.912-2.942.912-.042-3.08-1.777-2.516,2.917-.992Z" transform="translate(-260.885 -630.652)" fill="#9fc9cc"/>
      <path id="Path_2201" data-name="Path 2201" d="M564.369,1279.875l1.844,2.467,2.917.992-1.777,2.516-.042,3.081-2.942-.912-2.942.912-.042-3.081-1.777-2.516,2.917-.992Z" transform="translate(-275.745 -630.657)" fill="#9fc9cc"/>
      <path id="Path_2202" data-name="Path 2202" d="M594.526,1279.885l1.844,2.467,2.917.992-1.777,2.516-.042,3.08-2.942-.912-2.942.912-.042-3.08-1.777-2.516,2.917-.992Z" transform="translate(-290.605 -630.662)" fill="#9fc9cc"/>
      <path id="Path_2203" data-name="Path 2203" d="M627.2,1288.746l-3.689-1.143-3.69,1.143-.052-3.861-2.227-3.156,3.657-1.243,2.313-3.093,2.313,3.093,3.657,1.243-2.228,3.156Zm-7.242-6.232,1.326,1.878.031,2.3,2.2-.68,2.2.68.031-2.3,1.326-1.878-2.176-.74-1.376-1.841-1.376,1.841Z" transform="translate(-304.29 -629.433)" fill="#027888"/>
      <path id="Path_2204" data-name="Path 2204" d="M657.354,1288.755l-3.689-1.143-3.69,1.143-.052-3.862-2.228-3.156,3.657-1.243,2.313-3.094,2.313,3.094,3.657,1.243-2.228,3.156Zm-7.242-6.232,1.325,1.877.031,2.3,2.2-.68,2.2.68.031-2.3,1.325-1.877-2.176-.74-1.376-1.841-1.376,1.841Z" transform="translate(-319.15 -629.437)" fill="#027888"/>
      <path id="Path_2205" data-name="Path 2205" d="M589.988,1098.817H474.474a11.145,11.145,0,0,1-11.133-11.132V980.269a11.145,11.145,0,0,1,11.133-11.133H589.988a11.146,11.146,0,0,1,11.133,11.133v107.416a11.145,11.145,0,0,1-11.133,11.132M474.474,970.15a10.13,10.13,0,0,0-10.118,10.118v107.416a10.13,10.13,0,0,0,10.118,10.118H589.988a10.13,10.13,0,0,0,10.119-10.118V980.269a10.13,10.13,0,0,0-10.119-10.118Z" transform="translate(-228.31 -477.541)" fill="#027888"/>
      <path id="Path_2206" data-name="Path 2206" d="M590.481,1227.022H474.966A10.626,10.626,0,0,1,464.34,1216.4v-9.432a10.626,10.626,0,0,1,10.626-10.625H590.481a10.626,10.626,0,0,1,10.626,10.625v9.431a10.626,10.626,0,0,1-10.626,10.626" transform="translate(-228.802 -589.494)" fill="#9fc9cc"/>
      <path id="Path_2207" data-name="Path 2207" d="M493.124,1227.914a8.381,8.381,0,0,1-2.758.492,4.216,4.216,0,0,1-4.608-4.529,4.5,4.5,0,0,1,4.862-4.636,5.559,5.559,0,0,1,2.238.413l-.28.946a4.644,4.644,0,0,0-1.985-.387,3.358,3.358,0,0,0-3.61,3.61,3.291,3.291,0,0,0,3.464,3.623,3.774,3.774,0,0,0,1.545-.24v-2.677h-1.825v-.932h2.957Z" transform="translate(-239.356 -600.78)" fill="#fff"/>
      <path id="Path_2208" data-name="Path 2208" d="M504.935,1219.426v3.756h4.343v-3.756h1.172v8.978h-1.172v-4.209h-4.343v4.209h-1.159v-8.978Z" transform="translate(-248.234 -600.87)" fill="#fff"/>
      <path id="Path_2209" data-name="Path 2209" d="M520.3,1226.85a4.109,4.109,0,0,0,2.078.586c1.185,0,1.878-.626,1.878-1.531,0-.84-.48-1.319-1.692-1.786-1.465-.519-2.371-1.278-2.371-2.544,0-1.4,1.159-2.438,2.9-2.438a4.077,4.077,0,0,1,1.985.44l-.32.945a3.574,3.574,0,0,0-1.7-.426c-1.225,0-1.692.733-1.692,1.345,0,.839.546,1.252,1.785,1.732,1.518.586,2.291,1.319,2.291,2.637,0,1.386-1.026,2.584-3.144,2.584a4.641,4.641,0,0,1-2.291-.573Z" transform="translate(-256.233 -600.728)" fill="#fff"/>
      <path id="Path_2210" data-name="Path 2210" d="M536.344,1221.149h-.027l-1.505.813-.226-.893,1.892-1.012h1v8.658h-1.132Z" transform="translate(-263.416 -601.181)" fill="#fff"/>
      <path id="Path_2211" data-name="Path 2211" d="M551.64,1221.042h-3.3l-.333,2.225a4.554,4.554,0,0,1,.706-.054,3.653,3.653,0,0,1,1.864.467,2.467,2.467,0,0,1,1.239,2.224,3,3,0,0,1-3.224,2.957,4.237,4.237,0,0,1-2.158-.533l.294-.892a3.877,3.877,0,0,0,1.851.48,1.91,1.91,0,0,0,2.051-1.878c-.013-1.119-.759-1.918-2.491-1.918a9.01,9.01,0,0,0-1.2.093l.56-4.156h4.143Z" transform="translate(-269.252 -601.181)" fill="#fff"/>
      <path id="Path_2212" data-name="Path 2212" d="M645.621,1228.252h26.224a7.152,7.152,0,1,0,0-14.3H645.621a7.152,7.152,0,1,0,0,14.3" transform="translate(-314.604 -598.171)" fill="#b2e0e6"/>
      <path id="Path_2213" data-name="Path 2213" d="M591.649,1088.514h-54.76a8.538,8.538,0,0,1-8.528-8.528v-54.76a8.538,8.538,0,0,1,8.528-8.529h54.76a8.539,8.539,0,0,1,8.529,8.529v54.76a8.539,8.539,0,0,1-8.529,8.528m-54.76-70.8a7.523,7.523,0,0,0-7.514,7.514v54.76a7.522,7.522,0,0,0,7.514,7.514h54.76a7.523,7.523,0,0,0,7.514-7.514v-54.76a7.523,7.523,0,0,0-7.514-7.514Z" transform="translate(-260.348 -500.976)" fill="#027888"/>
      <path id="Path_2214" data-name="Path 2214" d="M966.071,1289.056h-68.58a8.886,8.886,0,1,1,0-17.772h68.58a8.886,8.886,0,1,1,0,17.772m-68.58-16.757a7.872,7.872,0,1,0,0,15.743h68.58a7.872,7.872,0,0,0,0-15.743Z" transform="translate(-437.857 -626.423)" fill="#027888"/>
      <path id="Path_2215" data-name="Path 2215" d="M908.784,1279.865l1.844,2.467,2.917.992-1.777,2.516-.042,3.08-2.943-.912-2.942.912-.042-3.08-1.777-2.516,2.917-.992Z" transform="translate(-445.454 -630.652)" fill="#9fc9cc"/>
      <path id="Path_2216" data-name="Path 2216" d="M938.941,1279.875l1.844,2.467,2.917.992-1.777,2.516-.042,3.081-2.942-.912-2.942.912-.042-3.081-1.777-2.516,2.917-.992Z" transform="translate(-460.314 -630.657)" fill="#9fc9cc"/>
      <path id="Path_2217" data-name="Path 2217" d="M969.1,1279.885l1.844,2.467,2.917.992-1.777,2.516-.042,3.08-2.942-.912-2.942.912-.042-3.08-1.777-2.516,2.917-.992Z" transform="translate(-475.174 -630.662)" fill="#9fc9cc"/>
      <path id="Path_2218" data-name="Path 2218" d="M1001.769,1288.746l-3.69-1.143-3.689,1.143-.053-3.861-2.227-3.156,3.657-1.243,2.312-3.093,2.313,3.093,3.657,1.243-2.228,3.156Zm-7.242-6.232,1.326,1.878.031,2.3,2.2-.68,2.2.68.031-2.3,1.325-1.878-2.176-.74-1.377-1.841-1.375,1.841Z" transform="translate(-488.859 -629.433)" fill="#027888"/>
      <path id="Path_2219" data-name="Path 2219" d="M1031.927,1288.756l-3.689-1.143-3.689,1.143-.052-3.862-2.228-3.155,3.657-1.244,2.313-3.094,2.313,3.094,3.657,1.244-2.228,3.155Zm-3.689-2.737,2.2.681.031-2.3,1.325-1.878-2.176-.74-1.376-1.841-1.376,1.841-2.176.74,1.326,1.878.031,2.3Z" transform="translate(-503.719 -629.437)" fill="#027888"/>
      <path id="Path_2220" data-name="Path 2220" d="M964.559,1098.817H849.044a11.145,11.145,0,0,1-11.133-11.132V980.269a11.146,11.146,0,0,1,11.133-11.133H964.559a11.146,11.146,0,0,1,11.133,11.133v107.416a11.145,11.145,0,0,1-11.133,11.132M849.044,970.15a10.13,10.13,0,0,0-10.119,10.118v107.416a10.13,10.13,0,0,0,10.119,10.118H964.559a10.13,10.13,0,0,0,10.119-10.118V980.269a10.13,10.13,0,0,0-10.119-10.118Z" transform="translate(-412.878 -477.541)" fill="#027888"/>
      <path id="Path_2221" data-name="Path 2221" d="M965.052,1227.022H849.537a10.626,10.626,0,0,1-10.626-10.625v-9.432a10.626,10.626,0,0,1,10.626-10.625H965.052a10.626,10.626,0,0,1,10.626,10.625v9.431a10.626,10.626,0,0,1-10.626,10.626" transform="translate(-413.371 -589.494)" fill="#9fc9cc"/>
      <path id="Path_2222" data-name="Path 2222" d="M934.171,1098.128a40.715,40.715,0,1,1,40.715-40.715,40.762,40.762,0,0,1-40.715,40.715m0-80.416a39.7,39.7,0,1,0,39.7,39.7,39.746,39.746,0,0,0-39.7-39.7" transform="translate(-440.247 -500.976)" fill="#027888"/>
      <path id="Path_2223" data-name="Path 2223" d="M867.7,1227.914a8.38,8.38,0,0,1-2.758.492,4.216,4.216,0,0,1-4.608-4.529,4.5,4.5,0,0,1,4.862-4.636,5.559,5.559,0,0,1,2.238.413l-.28.946a4.646,4.646,0,0,0-1.985-.387,3.358,3.358,0,0,0-3.609,3.61,3.291,3.291,0,0,0,3.463,3.623,3.773,3.773,0,0,0,1.545-.24v-2.677h-1.825v-.932H867.7Z" transform="translate(-423.925 -600.78)" fill="#fff"/>
      <path id="Path_2224" data-name="Path 2224" d="M879.507,1219.426v3.756h4.343v-3.756h1.172v8.978H883.85v-4.209h-4.343v4.209h-1.159v-8.978Z" transform="translate(-432.803 -600.87)" fill="#fff"/>
      <path id="Path_2225" data-name="Path 2225" d="M894.874,1226.85a4.109,4.109,0,0,0,2.078.586c1.186,0,1.878-.626,1.878-1.531,0-.84-.48-1.319-1.692-1.786-1.465-.519-2.371-1.278-2.371-2.544,0-1.4,1.159-2.438,2.9-2.438a4.077,4.077,0,0,1,1.985.44l-.32.945a3.574,3.574,0,0,0-1.7-.426c-1.226,0-1.692.733-1.692,1.345,0,.839.546,1.252,1.785,1.732,1.518.586,2.291,1.319,2.291,2.637,0,1.386-1.026,2.584-3.144,2.584a4.641,4.641,0,0,1-2.291-.573Z" transform="translate(-440.802 -600.728)" fill="#fff"/>
      <path id="Path_2226" data-name="Path 2226" d="M910.916,1221.149h-.027l-1.505.813-.226-.893,1.891-1.012h1v8.658h-1.132Z" transform="translate(-447.985 -601.181)" fill="#fff"/>
      <path id="Path_2227" data-name="Path 2227" d="M921.323,1227.227a3.915,3.915,0,0,0,1.918.546c1.505,0,1.972-.959,1.958-1.678-.014-1.212-1.106-1.732-2.239-1.732h-.652v-.879h.652c.853,0,1.932-.439,1.932-1.465,0-.692-.439-1.305-1.518-1.305a3.183,3.183,0,0,0-1.732.573l-.306-.853a4.118,4.118,0,0,1,2.264-.665c1.706,0,2.478,1.012,2.478,2.065a2.151,2.151,0,0,1-1.6,2.038v.027a2.255,2.255,0,0,1,1.931,2.224c0,1.386-1.079,2.6-3.157,2.6a4.4,4.4,0,0,1-2.252-.586Z" transform="translate(-453.821 -601.039)" fill="#fff"/>
      <path id="Path_2228" data-name="Path 2228" d="M1020.192,1228.252h26.224a7.152,7.152,0,1,0,0-14.3h-26.224a7.152,7.152,0,1,0,0,14.3" transform="translate(-499.172 -598.171)" fill="#b2e0e6"/>
      <rect id="Rectangle_2053" data-name="Rectangle 2053" width="1.015" height="588.028" transform="translate(627.453 88.381)" fill="#027888"/>
      <path id="Path_2229" data-name="Path 2229" d="M1362.821,211.391a14.978,14.978,0,1,1,14.979-14.978,15,15,0,0,1-14.979,14.978m0-28.942a13.964,13.964,0,1,0,13.964,13.964,13.98,13.98,0,0,0-13.964-13.964" transform="translate(-664.146 -89.403)" fill="#027888"/>
      <path id="Path_2230" data-name="Path 2230" d="M1369.019,301.375H1351.3l-8.858-15.342,8.858-15.342h17.716l8.858,15.342Zm-17.13-1.015h16.544l8.272-14.328-8.272-14.328H1351.89l-8.272,14.328Z" transform="translate(-661.486 -133.384)" fill="#027888"/>
      <path id="Path_2231" data-name="Path 2231" d="M1373.233,301.153h-8.776l-4.389-7.6,4.389-7.6h8.776l4.389,7.6Zm-8.191-1.014h7.606l3.8-6.587-3.8-6.587h-7.606l-3.8,6.587Z" transform="translate(-670.169 -140.903)" fill="#027888"/>
      <path id="Path_2232" data-name="Path 2232" d="M1373.537,390.032h-23.69a4.3,4.3,0,0,1-4.3-4.3v-23.69a4.3,4.3,0,0,1,4.3-4.3h23.69a4.3,4.3,0,0,1,4.3,4.3v23.69a4.3,4.3,0,0,1-4.3,4.3m-23.69-31.268a3.285,3.285,0,0,0-3.281,3.281v23.69a3.285,3.285,0,0,0,3.281,3.281h23.69a3.285,3.285,0,0,0,3.281-3.281v-23.69a3.284,3.284,0,0,0-3.281-3.281Z" transform="translate(-663.016 -176.282)" fill="#027888"/>
      <path id="Path_2233" data-name="Path 2233" d="M1577.534,198.922H1445.026a3.3,3.3,0,0,1,0-6.6h132.509a3.3,3.3,0,1,1,0,6.6" transform="translate(-710.406 -94.767)" fill="#9fc9cc"/>
      <path id="Path_2234" data-name="Path 2234" d="M1477.054,217.737h-32.029a3.3,3.3,0,1,1,0-6.6h32.029a3.3,3.3,0,1,1,0,6.6" transform="translate(-710.405 -104.038)" fill="#9fc9cc"/>
      <path id="Path_2235" data-name="Path 2235" d="M1577.534,289.694H1445.026a3.3,3.3,0,0,1,0-6.6h132.509a3.3,3.3,0,1,1,0,6.6" transform="translate(-710.406 -139.495)" fill="#9fc9cc"/>
      <path id="Path_2236" data-name="Path 2236" d="M1477.054,308.508h-32.029a3.3,3.3,0,1,1,0-6.6h32.029a3.3,3.3,0,1,1,0,6.6" transform="translate(-710.405 -148.765)" fill="#9fc9cc"/>
      <path id="Path_2237" data-name="Path 2237" d="M1577.534,378.171H1445.026a3.3,3.3,0,0,1,0-6.6h132.509a3.3,3.3,0,1,1,0,6.6" transform="translate(-710.406 -183.092)" fill="#9fc9cc"/>
      <path id="Path_2238" data-name="Path 2238" d="M1477.054,396.985h-32.029a3.3,3.3,0,1,1,0-6.6h32.029a3.3,3.3,0,1,1,0,6.6" transform="translate(-710.405 -192.362)" fill="#9fc9cc"/>
      <path id="Path_2239" data-name="Path 2239" d="M1780.143,196.964a8.364,8.364,0,0,1-2.758.493,4.216,4.216,0,0,1-4.608-4.529,4.5,4.5,0,0,1,4.862-4.636,5.56,5.56,0,0,1,2.238.413l-.28.946a4.654,4.654,0,0,0-1.985-.387,3.358,3.358,0,0,0-3.609,3.61,3.291,3.291,0,0,0,3.463,3.623,3.776,3.776,0,0,0,1.545-.24v-2.677h-1.825v-.933h2.957Z" transform="translate(-873.53 -92.782)" fill="#027888"/>
      <path id="Path_2240" data-name="Path 2240" d="M1791.954,188.476v3.757h4.343v-3.757h1.172v8.978H1796.3v-4.21h-4.343v4.21H1790.8v-8.978Z" transform="translate(-882.409 -92.873)" fill="#027888"/>
      <path id="Path_2241" data-name="Path 2241" d="M1807.321,195.9a4.108,4.108,0,0,0,2.078.586c1.185,0,1.878-.626,1.878-1.532,0-.84-.48-1.319-1.692-1.785-1.465-.519-2.371-1.279-2.371-2.544,0-1.4,1.158-2.438,2.9-2.438a4.079,4.079,0,0,1,1.985.44l-.32.946a3.572,3.572,0,0,0-1.7-.426c-1.226,0-1.692.732-1.692,1.345,0,.84.546,1.252,1.785,1.732,1.518.586,2.291,1.319,2.291,2.638,0,1.385-1.026,2.584-3.144,2.584a4.641,4.641,0,0,1-2.291-.573Z" transform="translate(-890.407 -92.731)" fill="#027888"/>
      <path id="Path_2242" data-name="Path 2242" d="M1823.363,190.2h-.027l-1.5.813-.226-.892,1.892-1.012h1v8.658h-1.132Z" transform="translate(-897.59 -93.184)" fill="#027888"/>
      <path id="Path_2243" data-name="Path 2243" d="M1838.659,190.093h-3.3l-.333,2.224a4.664,4.664,0,0,1,.706-.053,3.652,3.652,0,0,1,1.864.467,2.467,2.467,0,0,1,1.24,2.224,3,3,0,0,1-3.224,2.957,4.236,4.236,0,0,1-2.158-.533l.294-.892a3.878,3.878,0,0,0,1.851.479,1.91,1.91,0,0,0,2.051-1.878c-.013-1.119-.759-1.918-2.491-1.918a8.944,8.944,0,0,0-1.2.093l.56-4.156h4.143Z" transform="translate(-903.427 -93.184)" fill="#027888"/>
      <path id="Path_2244" data-name="Path 2244" d="M1780.143,286.895a8.362,8.362,0,0,1-2.758.493,4.216,4.216,0,0,1-4.608-4.529,4.5,4.5,0,0,1,4.862-4.636,5.559,5.559,0,0,1,2.238.413l-.28.946a4.653,4.653,0,0,0-1.985-.387,3.358,3.358,0,0,0-3.609,3.61,3.291,3.291,0,0,0,3.463,3.623,3.775,3.775,0,0,0,1.545-.24v-2.677h-1.825v-.933h2.957Z" transform="translate(-873.53 -137.096)" fill="#027888"/>
      <path id="Path_2245" data-name="Path 2245" d="M1791.954,278.407v3.757h4.343v-3.757h1.172v8.978H1796.3v-4.21h-4.343v4.21H1790.8v-8.978Z" transform="translate(-882.409 -137.186)" fill="#027888"/>
      <path id="Path_2246" data-name="Path 2246" d="M1807.321,285.831a4.108,4.108,0,0,0,2.078.586c1.185,0,1.878-.626,1.878-1.532,0-.84-.48-1.319-1.692-1.785-1.465-.519-2.371-1.279-2.371-2.544,0-1.4,1.158-2.438,2.9-2.438a4.078,4.078,0,0,1,1.985.44l-.32.946a3.572,3.572,0,0,0-1.7-.426c-1.226,0-1.692.733-1.692,1.345,0,.839.546,1.252,1.785,1.732,1.518.586,2.291,1.319,2.291,2.638,0,1.385-1.026,2.584-3.144,2.584a4.641,4.641,0,0,1-2.291-.573Z" transform="translate(-890.407 -137.044)" fill="#027888"/>
      <path id="Path_2247" data-name="Path 2247" d="M1823.363,280.13h-.027l-1.5.813-.226-.892,1.892-1.012h1V287.7h-1.132Z" transform="translate(-897.59 -137.497)" fill="#027888"/>
      <path id="Path_2248" data-name="Path 2248" d="M1839.168,283.131c0,2.944-1.093,4.569-3.011,4.569-1.692,0-2.838-1.585-2.864-4.449,0-2.9,1.252-4.5,3.01-4.5,1.825,0,2.864,1.625,2.864,4.383m-4.7.133c0,2.251.693,3.53,1.759,3.53,1.2,0,1.771-1.4,1.771-3.61,0-2.132-.546-3.53-1.758-3.53-1.026,0-1.772,1.252-1.772,3.61" transform="translate(-903.349 -137.354)" fill="#027888"/>
      <path id="Path_2249" data-name="Path 2249" d="M1780.143,380.358a8.366,8.366,0,0,1-2.758.492,4.216,4.216,0,0,1-4.608-4.529,4.5,4.5,0,0,1,4.862-4.636,5.56,5.56,0,0,1,2.238.413l-.28.946a4.654,4.654,0,0,0-1.985-.386,3.358,3.358,0,0,0-3.609,3.61,3.291,3.291,0,0,0,3.463,3.623,3.775,3.775,0,0,0,1.545-.24v-2.677h-1.825v-.933h2.957Z" transform="translate(-873.53 -183.149)" fill="#027888"/>
      <path id="Path_2250" data-name="Path 2250" d="M1791.954,371.87v3.757h4.343V371.87h1.172v8.978H1796.3v-4.21h-4.343v4.21H1790.8V371.87Z" transform="translate(-882.409 -183.24)" fill="#027888"/>
      <path id="Path_2251" data-name="Path 2251" d="M1807.321,379.294a4.109,4.109,0,0,0,2.078.586c1.185,0,1.878-.626,1.878-1.532,0-.84-.48-1.319-1.692-1.785-1.465-.519-2.371-1.279-2.371-2.544,0-1.4,1.158-2.438,2.9-2.438a4.078,4.078,0,0,1,1.985.44l-.32.945a3.572,3.572,0,0,0-1.7-.426c-1.226,0-1.692.732-1.692,1.345,0,.84.546,1.252,1.785,1.732,1.518.586,2.291,1.319,2.291,2.638,0,1.385-1.026,2.584-3.144,2.584a4.642,4.642,0,0,1-2.291-.573Z" transform="translate(-890.407 -183.097)" fill="#027888"/>
      <path id="Path_2252" data-name="Path 2252" d="M1820.055,381.017V380.3l.919-.893c2.211-2.1,3.21-3.224,3.224-4.529a1.545,1.545,0,0,0-1.719-1.692,2.95,2.95,0,0,0-1.838.732l-.373-.826a3.8,3.8,0,0,1,2.451-.879,2.436,2.436,0,0,1,2.651,2.518c0,1.6-1.159,2.891-2.984,4.649l-.693.639v.027h3.89v.972Z" transform="translate(-896.826 -183.408)" fill="#027888"/>
      <path id="Path_2253" data-name="Path 2253" d="M1839.168,376.595c0,2.944-1.093,4.569-3.011,4.569-1.692,0-2.838-1.585-2.864-4.449,0-2.9,1.252-4.5,3.01-4.5,1.825,0,2.864,1.625,2.864,4.383m-4.7.133c0,2.251.693,3.53,1.759,3.53,1.2,0,1.771-1.4,1.771-3.61,0-2.131-.546-3.53-1.758-3.53-1.026,0-1.772,1.252-1.772,3.61" transform="translate(-903.349 -183.408)" fill="#027888"/>
    </g>
  </g>
</svg>
