<svg id="Group_67994" data-name="Group 67994" xmlns="http://www.w3.org/2000/svg" xmlns:xlink="http://www.w3.org/1999/xlink" width="188.285" height="227.552" viewBox="0 0 188.285 227.552">
  <defs>
    <clipPath id="clip-path">
      <path id="Path_1927" data-name="Path 1927" d="M50.938,93.263V75.531a5.972,5.972,0,1,1,11.943,0V93.263a5.972,5.972,0,0,1-11.943,0M26.352,43.11V49.3H20.659a5.978,5.978,0,0,0-5.975,5.968v58.263a5.978,5.978,0,0,0,5.975,5.968h72.5a5.978,5.978,0,0,0,5.975-5.968V55.265A5.978,5.978,0,0,0,93.16,49.3H38.288V43.11c0-9.7,8.22-17.59,18.332-17.59A18.389,18.389,0,0,1,74.178,38.05,4.629,4.629,0,0,0,80.9,40.674l2.376-1.379a4.624,4.624,0,0,0,2.065-5.5A30.193,30.193,0,0,0,56.62,13.584c-16.7,0-30.268,13.244-30.268,29.526" transform="translate(-14.684 -13.584)" fill="#f7f7f7"/>
    </clipPath>
    <clipPath id="clip-path-2">
      <path id="Path_1928" data-name="Path 1928" d="M93.4,213.276,14.4,160.8a1.335,1.335,0,0,1-.6-1.124V30.312a1.338,1.338,0,0,1,.856-1.255,217.781,217.781,0,0,1,158.986,0l.852.332V159.676a1.344,1.344,0,0,1-.6,1.124l-79,52.476a1.361,1.361,0,0,1-1.492,0M10.791,15.756l-.8.311A15.618,15.618,0,0,0,0,30.7V160.019A14.481,14.481,0,0,0,6.477,172.1l79.976,53.123a13.867,13.867,0,0,0,15.376,0L181.55,172.27a15.041,15.041,0,0,0,6.735-12.562V25.125a6.9,6.9,0,0,0-5.2-6.682,6.787,6.787,0,0,0-2.128-1.336l-3.447-1.347a228.373,228.373,0,0,0-166.715,0" transform="translate(0 -0.001)" fill="#f7f7f7"/>
    </clipPath>
  </defs>
  <g id="Group_67990" data-name="Group 67990" transform="translate(51.917 48.024)">
    <g id="Group_67989" data-name="Group 67989" clip-path="url(#clip-path)">
      <rect id="Rectangle_1971" data-name="Rectangle 1971" width="134.608" height="134.608" transform="translate(-52.956 52.955) rotate(-45)" fill="#f7f7f7"/>
    </g>
  </g>
  <g id="Group_67992" data-name="Group 67992" transform="translate(0 0)">
    <g id="Group_67991" data-name="Group 67991" clip-path="url(#clip-path-2)">
      <rect id="Rectangle_1972" data-name="Rectangle 1972" width="294.042" height="294.042" transform="translate(-113.776 113.774) rotate(-45)" fill="#f7f7f7"/>
    </g>
  </g>
</svg>
