<svg id="Group_68044" data-name="Group 68044" xmlns="http://www.w3.org/2000/svg" width="79.501" height="79.514" viewBox="0 0 79.501 79.514">
  <path id="Path_1960" data-name="Path 1960" d="M664.2,134.37c.2-1.008.367-2.027.622-3.022a17.523,17.523,0,0,1,4.575-8.148c5.635-5.664,11.212-11.39,16.976-16.921a18.542,18.542,0,0,1,28.322,3.7c.093.152.179.307.18.308a38.366,38.366,0,0,1-3.229,3.429,4.486,4.486,0,0,1-6.067-.429,9.282,9.282,0,0,0-6.744-2.647,8.9,8.9,0,0,0-6.354,2.63c-5.459,5.438-10.925,10.869-16.34,16.352a9.293,9.293,0,0,0,13.128,13.152c3.5-3.407,6.935-6.888,10.369-10.364a1.388,1.388,0,0,1,1.718-.425,22.116,22.116,0,0,0,10.316,1.037c.125-.016.253-.014.547-.03-.28.292-.462.491-.653.682q-7.624,7.625-15.245,15.253a18.667,18.667,0,0,1-11.436,5.65,1.639,1.639,0,0,0-.355.126h-3.415a4.265,4.265,0,0,0-.511-.142c-7.646-1.165-12.81-5.388-15.443-12.642a34.3,34.3,0,0,1-.964-4.131Z" transform="translate(-664.196 -75.185)" fill="#008999"/>
  <path id="Path_1961" data-name="Path 1961" d="M775.213,44.316c1.094-1.092,2.035-2.09,3.039-3.021a4.594,4.594,0,0,1,6.389.084A9.5,9.5,0,0,0,790.053,44a9.083,9.083,0,0,0,7.86-2.645c2.487-2.452,4.944-4.933,7.413-7.4,2.908-2.908,5.846-5.787,8.717-8.731a9.278,9.278,0,0,0-3.851-15.408,8.858,8.858,0,0,0-9.243,2.219c-3.567,3.454-7.04,7.006-10.553,10.516-.267.267-.464.539-.972.352a23.127,23.127,0,0,0-11.282-1.158c.183-.231.282-.384.407-.51,5.248-5.25,10.44-10.558,15.766-15.728,5.267-5.114,11.6-6.727,18.594-4.578a17.68,17.68,0,0,1,12.713,13.955,17.384,17.384,0,0,1-4.515,16.365c-5.6,5.879-11.361,11.612-17.227,17.227a18.608,18.608,0,0,1-26.181-.931c-.905-.978-1.639-2.116-2.487-3.225" transform="translate(-746.59 0.001)" fill="#008999"/>
</svg>
