<svg xmlns="http://www.w3.org/2000/svg" width="86.53" height="86.431" viewBox="0 0 86.53 86.431">
  <g id="Group_68045" data-name="Group 68045" transform="translate(0)">
    <path id="Path_1957" data-name="Path 1957" d="M66.857,27.483A33.874,33.874,0,0,0,22.939,3.913C6.949,9.25-2.908,26.413.769,42.86,3.631,55.666,11.453,64.21,23.87,68.408A32.538,32.538,0,0,0,42.235,69c.761-.183,1.134-.454,1.088-1.325a12.929,12.929,0,0,1,.217-2.687A23.136,23.136,0,0,1,65.929,45.3c.575-.018.874-.147.972-.758.438-2.785.91-5.564,1.377-8.384-.467-2.926-.686-5.868-1.421-8.676M38.569,50.164A2.283,2.283,0,0,0,37.063,52.6a2.935,2.935,0,0,1-3.135,2.952,2.971,2.971,0,0,1-2.962-3.135,1.982,1.982,0,0,0-1.323-2.15,8.822,8.822,0,0,1-4.87-7.686,3.078,3.078,0,0,1,2.944-3.47,3.119,3.119,0,0,1,3.215,3.13,3.083,3.083,0,0,0,5.956,1.075,2.967,2.967,0,0,0-1.15-3.643,4.046,4.046,0,0,0-1.8-.544,9.342,9.342,0,0,1-8.975-7.366,9.175,9.175,0,0,1,5.355-10.354.91.91,0,0,0,.629-1.008,6.141,6.141,0,0,1,.139-1.715A2.978,2.978,0,0,1,34.395,16.5a2.881,2.881,0,0,1,2.658,2.823,2.413,2.413,0,0,0,1.586,2.586,8.757,8.757,0,0,1,4.638,7.348c.021,2.194-1.248,3.6-2.957,3.666a3.119,3.119,0,0,1-3.215-3.13,3.12,3.12,0,0,0-2.728-3.022,3.077,3.077,0,0,0-3.282,2.13,2.964,2.964,0,0,0,1.364,3.563,4.848,4.848,0,0,0,1.934.456,9.312,9.312,0,0,1,8.5,6.6,9.064,9.064,0,0,1-4.319,10.643" transform="translate(0 -2.083)" fill="#008999"/>
    <path id="Path_1958" data-name="Path 1958" d="M200.2,181.629a20.07,20.07,0,1,0,19.829,20.123A20.1,20.1,0,0,0,200.2,181.629m8.122,18.117c-2.733,2.766-5.474,5.528-8.256,8.25a3.009,3.009,0,0,1-4.409-.059q-2-1.949-3.955-3.955a3.083,3.083,0,1,1,4.391-4.321c.572.562,1.088,1.178,1.74,1.887,2.127-2.14,4.071-4.148,6.074-6.095a3.069,3.069,0,0,1,5.206,1.364,2.9,2.9,0,0,1-.792,2.929" transform="translate(-133.502 -135.337)" fill="#008999"/>
  </g>
</svg>
