<svg xmlns="http://www.w3.org/2000/svg" width="72.396" height="78.977" viewBox="0 0 72.396 78.977">
  <path id="Path_1957" data-name="Path 1957" d="M1162.45,2.083a33.247,33.247,0,0,1,3.4.927,13.14,13.14,0,0,1-2.883,25.254,12.881,12.881,0,0,1-10.873-3.4c-.227-.206-.445-.422-.717-.681l-23.781,13.554a13.478,13.478,0,0,1,0,7.669l23.79,13.56a13.081,13.081,0,0,1,10.01-4.22,12.685,12.685,0,0,1,8.3,3.23,13.161,13.161,0,0,1-12.707,22.444,13.3,13.3,0,0,1-8.757-15.671q-3.082-1.759-6.2-3.535-8.6-4.9-17.193-9.817a.919.919,0,0,0-1.259.112,13.143,13.143,0,0,1-21.613-8.252,13.137,13.137,0,0,1,21.628-11.629c.317.277.548.523,1.049.236q11.762-6.743,23.569-13.457c-.092-.785-.234-1.566-.269-2.352a13.084,13.084,0,0,1,11.373-13.841,2.007,2.007,0,0,0,.356-.126Z" transform="translate(-1101.837 -2.083)" fill="#008999"/>
</svg>
